<?xml version="1.0" encoding="utf-8"?>
<!-- Generator: Adobe Illustrator 16.0.0, SVG Export Plug-In . SVG Version: 6.00 Build 0)  -->
<!DOCTYPE svg PUBLIC "-//W3C//DTD SVG 1.1//EN" "http://www.w3.org/Graphics/SVG/1.1/DTD/svg11.dtd">
<svg version="1.1" id="Layer_1" xmlns="http://www.w3.org/2000/svg" xmlns:xlink="http://www.w3.org/1999/xlink" x="0px" y="0px"
	 width="200px" height="200px" viewBox="0 0 200 200" enable-background="new 0 0 200 200" xml:space="preserve">
<path fill="#444444" d="M99.141,40.766v-4.35l-10.8,11.389l10.8,11.389V55.08c23.292,1.713,41.724,21.198,41.724,44.92
	c0,24.844-20.213,45.057-45.057,45.057H28l4.461,7.285L28,159.332h67.809c32.715,0,59.332-26.617,59.332-59.332
	C155.141,68.403,130.312,42.502,99.141,40.766z"/>
<path fill="#444444" d="M177,152.195l-10.801-11.39v4.251h-26.825c-6.994,6.666-15.605,11.643-25.183,14.275h52.008v4.251
	L177,152.195z"/>
<g>
	<path fill="#444444" d="M54.745,142.776h26.92c-17.645-5.86-30.549-22.362-30.89-41.979c-0.412-23.519,17.368-43.189,40.34-45.587
		l-7.269-6.437l6.196-7.796c-30.453,2.961-54.083,28.958-53.54,60.066C36.788,117.457,43.75,132.214,54.745,142.776z"/>
</g>
<g>
	<path fill="#444444" d="M118.718,122.5h-11.02l-3.328-9H87.242l-3.325,9H72.898l18.165-45h9.491L118.718,122.5z M95.863,91.411
		h-0.109l-5.02,13.091h10.146L95.863,91.411z"/>
</g>
</svg>
