<?xml version="1.0" encoding="utf-8"?>
<!-- Generator: Adobe Illustrator 16.0.0, SVG Export Plug-In . SVG Version: 6.00 Build 0)  -->
<!DOCTYPE svg PUBLIC "-//W3C//DTD SVG 1.1//EN" "http://www.w3.org/Graphics/SVG/1.1/DTD/svg11.dtd">
<svg version="1.1" id="Layer_1" xmlns="http://www.w3.org/2000/svg" xmlns:xlink="http://www.w3.org/1999/xlink" x="0px" y="0px"
	 width="200px" height="200px" viewBox="0 0 200 200" enable-background="new 0 0 200 200" xml:space="preserve">
<rect x="116.834" y="51.835" fill="none" stroke="#444444" stroke-width="3" stroke-miterlimit="10" width="16.332" height="90.332"/>
<polygon fill="none" stroke="#444444" stroke-width="3" stroke-miterlimit="10" points="133.166,142.167 133.166,146.501 
	125,155.917 116.834,146.501 116.834,142.167 "/>
<path fill="#888888" stroke="#444444" stroke-width="3" stroke-miterlimit="10" d="M129.01,151.294
	c-1.074-0.935-2.475-1.502-4.01-1.502s-2.936,0.567-4.01,1.502l4.01,4.623L129.01,151.294z"/>
<line fill="none" stroke="#444444" stroke-width="3" stroke-miterlimit="10" x1="125" y1="142.167" x2="125" y2="51.835"/>
<path fill="none" stroke="#444444" stroke-width="3" stroke-miterlimit="10" d="M116.75,51.877v-4.881c0-2.673,2.168-4.84,4.84-4.84
	h6.736c2.672,0,4.84,2.167,4.84,4.84v4.881H116.75z"/>
<path fill="none" stroke="#444444" stroke-width="3" stroke-miterlimit="10" d="M158.166,46.996c0-2.673-2.168-4.84-4.84-4.84
	h-6.736c-2.672,0-4.84,2.167-4.84,4.84v105.042c0,2.673,2.168,4.84,4.84,4.84h6.736c2.672,0,4.84-2.167,4.84-4.84V46.996
	L158.166,46.996z"/>
<path fill="none" stroke="#444444" stroke-width="3" stroke-miterlimit="10" d="M106.052,42.274
	c-0.812-0.257-1.694,0.044-2.183,0.742l-77.432,110.8c-0.416,0.597-0.466,1.373-0.13,2.018c0.335,0.645,1.001,1.048,1.727,1.048
	h77.432c1.077,0,1.948-0.872,1.948-1.946V44.132C107.414,43.281,106.861,42.529,106.052,42.274z M63.543,136.43l23.417-33.511
	v33.511H63.543z"/>
<line fill="none" stroke="#444444" stroke-width="3" stroke-linecap="round" stroke-miterlimit="10" x1="107.352" y1="54.75" x2="102.312" y2="54.75"/>
<line fill="none" stroke="#444444" stroke-width="3" stroke-linecap="round" stroke-miterlimit="10" x1="107.352" y1="64.75" x2="102.312" y2="64.75"/>
<line fill="none" stroke="#444444" stroke-width="3" stroke-linecap="round" stroke-miterlimit="10" x1="107.352" y1="74.75" x2="102.312" y2="74.75"/>
<line fill="none" stroke="#444444" stroke-width="3" stroke-linecap="round" stroke-miterlimit="10" x1="107.352" y1="84.75" x2="102.312" y2="84.75"/>
<line fill="none" stroke="#444444" stroke-width="3" stroke-linecap="round" stroke-miterlimit="10" x1="107.352" y1="94.75" x2="102.312" y2="94.75"/>
<line fill="none" stroke="#444444" stroke-width="3" stroke-linecap="round" stroke-miterlimit="10" x1="107.352" y1="104.75" x2="102.312" y2="104.75"/>
<line fill="none" stroke="#444444" stroke-width="3" stroke-linecap="round" stroke-miterlimit="10" x1="107.352" y1="114.75" x2="102.312" y2="114.75"/>
<line fill="none" stroke="#444444" stroke-width="3" stroke-linecap="round" stroke-miterlimit="10" x1="107.352" y1="124.75" x2="102.312" y2="124.75"/>
<line fill="none" stroke="#444444" stroke-width="3" stroke-linecap="round" stroke-miterlimit="10" x1="107.352" y1="134.75" x2="102.312" y2="134.75"/>
<line fill="none" stroke="#444444" stroke-width="3" stroke-linecap="round" stroke-miterlimit="10" x1="107.352" y1="144.75" x2="102.312" y2="144.75"/>
<line fill="none" stroke="#444444" stroke-width="3" stroke-linecap="round" stroke-miterlimit="10" x1="157.352" y1="54.75" x2="152.312" y2="54.75"/>
<line fill="none" stroke="#444444" stroke-width="3" stroke-linecap="round" stroke-miterlimit="10" x1="157.352" y1="64.75" x2="152.312" y2="64.75"/>
<line fill="none" stroke="#444444" stroke-width="3" stroke-linecap="round" stroke-miterlimit="10" x1="157.352" y1="74.75" x2="152.312" y2="74.75"/>
<line fill="none" stroke="#444444" stroke-width="3" stroke-linecap="round" stroke-miterlimit="10" x1="157.352" y1="84.75" x2="152.312" y2="84.75"/>
<line fill="none" stroke="#444444" stroke-width="3" stroke-linecap="round" stroke-miterlimit="10" x1="157.352" y1="94.75" x2="152.312" y2="94.75"/>
<line fill="none" stroke="#444444" stroke-width="3" stroke-linecap="round" stroke-miterlimit="10" x1="157.352" y1="104.75" x2="152.312" y2="104.75"/>
<line fill="none" stroke="#444444" stroke-width="3" stroke-linecap="round" stroke-miterlimit="10" x1="157.352" y1="114.75" x2="152.312" y2="114.75"/>
<line fill="none" stroke="#444444" stroke-width="3" stroke-linecap="round" stroke-miterlimit="10" x1="157.352" y1="124.75" x2="152.312" y2="124.75"/>
<line fill="none" stroke="#444444" stroke-width="3" stroke-linecap="round" stroke-miterlimit="10" x1="157.352" y1="134.75" x2="152.312" y2="134.75"/>
<line fill="none" stroke="#444444" stroke-width="3" stroke-linecap="round" stroke-miterlimit="10" x1="157.352" y1="144.75" x2="152.312" y2="144.75"/>
</svg>
