<?xml version="1.0" encoding="utf-8"?>
<!-- Generator: Adobe Illustrator 16.0.0, SVG Export Plug-In . SVG Version: 6.00 Build 0)  -->
<!DOCTYPE svg PUBLIC "-//W3C//DTD SVG 1.1 Tiny//EN" "http://www.w3.org/Graphics/SVG/1.1/DTD/svg11-tiny.dtd">
<svg version="1.1" baseProfile="tiny" id="Layer_1" xmlns="http://www.w3.org/2000/svg" xmlns:xlink="http://www.w3.org/1999/xlink"
	 x="0px" y="0px" width="200px" height="200px" viewBox="0 0 200 200" xml:space="preserve">
<path fill="none" stroke="#444444" stroke-width="4" stroke-linecap="round" stroke-linejoin="round" stroke-miterlimit="10" d="
	M93.03,111.979c-14.51-12.452-24.012-25.831-23.294-32.137c-4.489,11.256-25.084,63.753-26.458,82.537l7.485,6.424
	c18.357-4.208,67.119-32.529,77.564-38.675C122.206,131.793,107.54,124.431,93.03,111.979z"/>
<ellipse transform="matrix(0.7589 0.6513 -0.6513 0.7589 91.5037 -40.5285)" fill="none" stroke="#444444" stroke-width="4" stroke-linejoin="round" stroke-miterlimit="10" cx="100.479" cy="103.298" rx="39.363" ry="11.439"/>
<g>
	<path fill="none" stroke="#444444" stroke-width="4" stroke-linejoin="round" stroke-miterlimit="10" d="M57.765,111.435
		c-1.228,3.422-2.463,6.933-3.672,10.463c5.264,4.751,12.652,9.87,21.29,14.473c8.95,4.767,17.622,8.124,24.638,9.785
		c4.262-2.322,8.344-4.591,12.05-6.678c-7.652-0.882-18.649-4.66-30.114-10.766C71.589,123.189,63.015,116.921,57.765,111.435z"/>
	<path fill="none" stroke="#444444" stroke-width="4" stroke-linejoin="round" stroke-miterlimit="10" d="M55.664,159.347
		c-3.885-2.069-7.506-4.246-10.811-6.445c-0.825,3.66-1.386,6.896-1.575,9.478l7.485,6.424c3.657-0.838,8.532-2.646,14.058-5.03
		C61.838,162.47,58.772,161.003,55.664,159.347z"/>
</g>
<path fill="none" stroke="#444444" stroke-width="4" stroke-linecap="round" stroke-linejoin="round" stroke-miterlimit="10" d="
	M114.147,108.07c4.319,0,7.822-3.503,7.822-7.822c0-4.321,3.501-7.821,7.821-7.821c4.319,0,7.822,3.5,7.822,7.821v15.644
	c0,4.319,3.501,7.821,7.821,7.821c4.319,0,7.822-3.502,7.822-7.821v-15.644c0-4.321,3.5-7.821,7.821-7.821
	c4.319,0,7.822,3.5,7.822,7.821c0,4.319,3.5,7.822,7.821,7.822"/>
<circle fill="none" stroke="#444444" stroke-width="4" stroke-linejoin="round" stroke-miterlimit="10" cx="103.087" cy="101.703" r="0.783"/>
<circle fill="none" stroke="#444444" stroke-width="4" stroke-linejoin="round" stroke-miterlimit="10" cx="154.559" cy="82.779" r="0.783"/>
<path fill="none" stroke="#444444" stroke-width="4" stroke-linecap="round" stroke-linejoin="round" stroke-miterlimit="10" d="
	M89.758,93.771c0-4.316,3.503-7.821,7.822-7.821c4.318,0,7.821-3.501,7.821-7.822c0-4.317-3.503-7.821-7.821-7.821H81.935
	c-4.317,0-7.822-3.5-7.822-7.821c0-4.318,3.505-7.821,7.822-7.821H97.58c4.318,0,7.821-3.501,7.821-7.822
	c0-4.318-3.503-7.821-7.821-7.821c-4.319,0-7.822-3.501-7.822-7.822"/>
<circle fill="none" stroke="#444444" stroke-width="4" stroke-linejoin="round" stroke-miterlimit="10" cx="106.216" cy="64.461" r="0.783"/>
<path fill="none" stroke="#444444" stroke-width="4" stroke-linejoin="round" stroke-miterlimit="10" d="M125.139,52.577
	c-0.43,0-0.78,0.351-0.78,0.782s0.351,0.783,0.78,0.783c0.435,0,0.785-0.352,0.785-0.783S125.573,52.577,125.139,52.577z"/>
<path fill="none" stroke="#444444" stroke-width="4" stroke-linecap="round" stroke-linejoin="round" stroke-miterlimit="10" d="
	M152.164,52.253c0,9.663-7.833,17.496-17.494,17.496s-17.494,7.834-17.494,17.493"/>
</svg>
