<?xml version="1.0" encoding="utf-8"?>
<!-- Generator: Adobe Illustrator 16.0.0, SVG Export Plug-In . SVG Version: 6.00 Build 0)  -->
<!DOCTYPE svg PUBLIC "-//W3C//DTD SVG 1.1//EN" "http://www.w3.org/Graphics/SVG/1.1/DTD/svg11.dtd">
<svg version="1.1" id="Layer_1" xmlns="http://www.w3.org/2000/svg" xmlns:xlink="http://www.w3.org/1999/xlink" x="0px" y="0px"
	 width="200px" height="200px" viewBox="0 0 200 200" enable-background="new 0 0 200 200" xml:space="preserve">
<g>
	
		<polygon fill="none" stroke="#444444" stroke-width="4" stroke-linecap="round" stroke-linejoin="round" stroke-miterlimit="10" points="
		100,49.563 31.895,78.011 100,106.457 168.105,78.011 	"/>
	
		<line fill="none" stroke="#444444" stroke-width="4" stroke-linecap="round" stroke-linejoin="round" stroke-miterlimit="10" x1="100" y1="78.011" x2="65.947" y2="92.234"/>
	<path fill="none" stroke="#444444" stroke-width="4" stroke-linecap="round" stroke-linejoin="round" stroke-miterlimit="10" d="
		M100.564,140.331c0-13.924,10.768-22.474,19.547-25.212c10.807-3.37,26.562-3.87,29.748,6.4
		c-1.721-11.547-7.346-21.814-15.502-29.414L100,106.457l-34.357-14.35c-8.156,7.599-13.783,17.866-15.504,29.413
		c3.188-10.271,18.943-9.771,29.749-6.399c8.78,2.739,19.547,11.288,19.547,25.212"/>
	
		<line fill="none" stroke="#444444" stroke-width="4" stroke-linecap="round" stroke-linejoin="round" stroke-miterlimit="10" x1="65.947" y1="92.234" x2="65.947" y2="120.123"/>
	
		<circle fill="none" stroke="#444444" stroke-width="4" stroke-linecap="round" stroke-linejoin="round" stroke-miterlimit="10" cx="65.947" cy="125.19" r="4.154"/>
	
		<line fill="none" stroke="#444444" stroke-width="4" stroke-linecap="round" stroke-linejoin="round" stroke-miterlimit="10" x1="70.101" y1="125.189" x2="74.128" y2="135.421"/>
	
		<line fill="none" stroke="#444444" stroke-width="4" stroke-linecap="round" stroke-linejoin="round" stroke-miterlimit="10" x1="61.793" y1="125.189" x2="57.767" y2="135.421"/>
	
		<line fill="none" stroke="#444444" stroke-width="4" stroke-linecap="round" stroke-linejoin="round" stroke-miterlimit="10" x1="65.947" y1="129.344" x2="65.947" y2="138.631"/>
</g>
<path fill="none" stroke="#444444" stroke-miterlimit="10" d="M258,43"/>
<path fill="none" stroke="#444444" stroke-miterlimit="10" d="M270.5,145.5"/>
<path fill="none" stroke="#444444" stroke-miterlimit="10" d="M258,158"/>
</svg>
