<?xml version="1.0" encoding="utf-8"?>
<!-- Generator: Adobe Illustrator 16.0.0, SVG Export Plug-In . SVG Version: 6.00 Build 0)  -->
<!DOCTYPE svg PUBLIC "-//W3C//DTD SVG 1.1//EN" "http://www.w3.org/Graphics/SVG/1.1/DTD/svg11.dtd">
<svg version="1.1" id="Layer_1" xmlns="http://www.w3.org/2000/svg" xmlns:xlink="http://www.w3.org/1999/xlink" x="0px" y="0px"
	 width="200px" height="200px" viewBox="0 0 200 200" enable-background="new 0 0 200 200" xml:space="preserve">
<g>
	<path fill="none" stroke="#444444" stroke-width="4" stroke-linejoin="round" stroke-miterlimit="10" d="M109.75,127.702
		c2.642-5.523,3.587-13.761,9.085-20.781c0.161-0.19,0.316-0.387,0.472-0.581c0.142-0.175,0.276-0.348,0.426-0.525
		c0.346-0.409,0.638-0.857,0.911-1.32c2.543-3.881,4.035-8.512,4.035-13.498c0-12.745-9.662-23.229-22.062-24.536h-5.233
		c-12.399,1.308-22.061,11.791-22.061,24.536c0,4.986,1.49,9.617,4.033,13.498c0.273,0.465,0.568,0.913,0.912,1.32
		c0.149,0.177,0.284,0.351,0.426,0.525c0.155,0.196,0.311,0.391,0.471,0.581c5.499,7.021,6.443,15.261,9.086,20.784L109.75,127.702z
		"/>
	<path fill="none" stroke="#444444" stroke-width="4" stroke-linejoin="round" stroke-miterlimit="10" d="M110.112,127.705v13.779
		c0,2.326-1.887,4.213-4.215,4.213H94.102c-2.327,0-4.213-1.887-4.213-4.213v-13.779H110.112z"/>
	
		<line fill="none" stroke="#444444" stroke-width="4" stroke-linecap="round" stroke-linejoin="round" stroke-miterlimit="10" x1="103.855" y1="127.035" x2="108.48" y2="104.056"/>
	
		<line fill="none" stroke="#444444" stroke-width="4" stroke-linecap="round" stroke-linejoin="round" stroke-miterlimit="10" x1="96.144" y1="127.035" x2="91.517" y2="104.056"/>
	
		<line fill="none" stroke="#444444" stroke-width="4" stroke-linecap="round" stroke-linejoin="round" stroke-miterlimit="10" x1="100" y1="127.705" x2="100" y2="99.736"/>
	<path fill="none" stroke="#444444" stroke-width="4" stroke-linecap="round" stroke-linejoin="round" stroke-miterlimit="10" d="
		M91.517,103.902c0,0,0.771,1.543,3.393,1.543c2.622,0,5.09-5.71,5.09-5.71"/>
	<path fill="none" stroke="#444444" stroke-width="4" stroke-linecap="round" stroke-linejoin="round" stroke-miterlimit="10" d="
		M108.48,103.902c0,0-0.77,1.543-3.392,1.543c-2.623,0-5.089-5.709-5.089-5.709"/>
</g>
<line fill="none" stroke="#444444" stroke-width="4" stroke-linecap="round" stroke-linejoin="round" stroke-miterlimit="10" x1="100" y1="56.97" x2="100" y2="49.061"/>
<line fill="none" stroke="#444444" stroke-width="4" stroke-linecap="round" stroke-linejoin="round" stroke-miterlimit="10" x1="128.841" y1="63.721" x2="134.433" y2="58.129"/>
<line fill="none" stroke="#444444" stroke-width="4" stroke-linecap="round" stroke-linejoin="round" stroke-miterlimit="10" x1="143.5" y1="84.652" x2="135.591" y2="84.652"/>
<line fill="none" stroke="#444444" stroke-width="4" stroke-linecap="round" stroke-linejoin="round" stroke-miterlimit="10" x1="65.567" y1="58.129" x2="71.16" y2="63.721"/>
<line fill="none" stroke="#444444" stroke-width="4" stroke-linecap="round" stroke-linejoin="round" stroke-miterlimit="10" x1="56.5" y1="84.652" x2="64.409" y2="84.652"/>
<line fill="none" stroke="#444444" stroke-width="4" stroke-linecap="round" stroke-linejoin="round" stroke-miterlimit="10" x1="128.841" y1="113.494" x2="134.433" y2="119.086"/>
<line fill="none" stroke="#444444" stroke-width="4" stroke-linecap="round" stroke-linejoin="round" stroke-miterlimit="10" x1="65.567" y1="119.086" x2="71.16" y2="113.494"/>
</svg>
