<?xml version="1.0" encoding="utf-8"?>
<!-- Generator: Adobe Illustrator 16.0.0, SVG Export Plug-In . SVG Version: 6.00 Build 0)  -->
<!DOCTYPE svg PUBLIC "-//W3C//DTD SVG 1.1//EN" "http://www.w3.org/Graphics/SVG/1.1/DTD/svg11.dtd">
<svg version="1.1" id="Layer_1" xmlns="http://www.w3.org/2000/svg" xmlns:xlink="http://www.w3.org/1999/xlink" x="0px" y="0px"
	 width="200px" height="200px" viewBox="0 0 200 200" enable-background="new 0 0 200 200" xml:space="preserve">
<circle fill="#444444" cx="152.83" cy="63.673" r="12.823"/>
<path fill="#444444" d="M85.41,113.638l-11.686-11.685c-1.986-1.986-5.206-1.986-7.192,0c-1.986,1.985-1.986,5.205,0,7.19
	l15.281,15.281c0.993,0.993,2.294,1.489,3.596,1.489c1.301,0,2.603-0.496,3.596-1.489l18.291-18.291l5.623,5.623
	c0.051,0.056,0.087,0.118,0.141,0.172l11.686,11.686l-16.855,16.856c-1.985,1.985-1.985,5.205,0,7.19
	c1.986,1.986,5.206,1.986,7.191,0l20.451-20.451c1.986-1.985,1.986-5.205,0-7.19l-9.465-9.465l18.966-18.967l9.839,9.839
	c0.992,0.993,2.294,1.49,3.596,1.49s2.603-0.497,3.595-1.49l15.281-15.281c1.987-1.986,1.987-5.206,0-7.192
	c-1.984-1.985-5.205-1.985-7.19,0L158.468,90.64l-37.307-37.306c-1.985-1.985-5.205-1.985-7.191,0L98.688,68.615
	c-1.986,1.986-1.986,5.206,0,7.191c1.986,1.986,5.205,1.986,7.191,0l11.686-11.686l8.786,8.786L85.41,113.638z"/>
<line fill="none" stroke="#444444" stroke-width="4" stroke-linecap="round" stroke-miterlimit="10" x1="107.948" y1="53.502" x2="65.132" y2="53.502"/>
<line fill="none" stroke="#444444" stroke-width="4" stroke-linecap="round" stroke-miterlimit="10" x1="88.332" y1="71.19" x2="41.165" y2="71.19"/>
<line fill="none" stroke="#444444" stroke-width="4" stroke-linecap="round" stroke-miterlimit="10" x1="100.209" y1="88.877" x2="30.055" y2="88.877"/>
<line fill="none" stroke="#444444" stroke-width="4" stroke-linecap="round" stroke-miterlimit="10" x1="60.266" y1="106.564" x2="28.964" y2="106.564"/>
<line fill="none" stroke="#444444" stroke-width="4" stroke-linecap="round" stroke-miterlimit="10" x1="75.668" y1="124.252" x2="34.976" y2="124.252"/>
<line fill="none" stroke="#444444" stroke-width="4" stroke-linecap="round" stroke-miterlimit="10" x1="100.209" y1="146.361" x2="60.266" y2="146.361"/>
</svg>
