<?xml version="1.0" encoding="utf-8"?>
<!-- Generator: Adobe Illustrator 16.0.0, SVG Export Plug-In . SVG Version: 6.00 Build 0)  -->
<!DOCTYPE svg PUBLIC "-//W3C//DTD SVG 1.1//EN" "http://www.w3.org/Graphics/SVG/1.1/DTD/svg11.dtd">
<svg version="1.1" id="Layer_1" xmlns="http://www.w3.org/2000/svg" xmlns:xlink="http://www.w3.org/1999/xlink" x="0px" y="0px"
	 width="141.983px" height="141.998px" viewBox="0 0 141.983 141.998" enable-background="new 0 0 141.983 141.998"
	 xml:space="preserve">
<g>
	<path fill="#FFFFFF" d="M95.742,54.749c0.39-3.422-2.104-6.579-4.574-8.706c-6.759-5.822-20.659-2.357-25.477,4.785
		c-6.097,9.043-4.313,21.042,3.155,28.789c9.303,9.649,21.145,10.914,33.809,10.405c7.936-0.318,20.563-3.394,26.36-8.799
		c7.904-7.368,11.477-19.628,11.477-30.204c0-24.197-18.338-43.812-40.958-43.812c-3.96,0-7.785,0.613-11.407,1.735
		C81.6,4.243,73.742,1.499,65.284,1.499c-12.365,0-23.441,5.869-30.951,15.135C15.601,20.663,1.492,38.358,1.492,59.582
		c0,8.643,2.349,16.693,6.388,23.482C7.441,85.633,7.2,88.274,7.2,90.979c0,24.196,18.337,43.812,40.958,43.812
		c3.229,0,6.365-0.413,9.379-1.168c6.359,4.347,13.91,6.876,22.017,6.876c17.526,0,32.474-11.779,38.322-28.337
		c10.242-7.964,16.908-20.873,16.908-35.455c0-1.064-0.049-2.116-0.119-3.162c0.049-0.086,0.098-0.172,0.145-0.258"/>
	<path fill="#525251" d="M95.742,54.749c0.073-1.292-0.21-2.554-0.733-3.712c-0.564-1.142-1.326-2.166-2.176-3.107
		c-0.895-0.927-1.801-1.75-2.895-2.447c-0.524-0.374-1.105-0.567-1.647-0.861c-0.583-0.213-1.181-0.41-1.776-0.585
		c-4.893-1.135-10.149-0.057-14.492,2.301c-2.164,1.198-4.133,2.786-5.491,4.758c-1.392,2.095-2.329,4.318-2.892,6.725
		c-1.109,4.777-0.437,9.883,1.652,14.266c1.041,2.195,2.427,4.219,4.084,5.977c0.195,0.203,0.431,0.481,0.592,0.626l0.705,0.654
		c0.469,0.425,0.941,0.907,1.408,1.251l1.395,1.124l1.498,1.051c4.051,2.717,8.741,4.444,13.657,5.17
		c4.903,0.761,9.991,0.791,15.024,0.521c4.92-0.353,9.918-1.425,14.612-3.046c2.344-0.825,4.629-1.816,6.699-3.067l0.771-0.473
		l0.727-0.519c0.504-0.328,0.922-0.729,1.373-1.1c0.039-0.031,0.152-0.129,0.129-0.104l0.17-0.171l0.34-0.34l0.678-0.682
		c0.453-0.455,0.787-0.9,1.189-1.348c3.094-3.746,5.277-8.307,6.688-13.051c0.711-2.379,1.219-4.824,1.539-7.291
		c0.309-2.453,0.492-4.99,0.365-7.406l-0.09-1.92c-0.041-0.635-0.029-1.301-0.145-1.889l-0.523-3.623l-0.871-3.618
		c-0.326-1.195-0.783-2.352-1.166-3.53c-1.75-4.638-4.281-8.978-7.488-12.745c-3.205-3.767-7.086-6.957-11.428-9.301
		c-4.338-2.349-9.131-3.836-14.036-4.332l-3.637-0.198l-1.922,0.074l-0.961,0.037l-0.899,0.105l-1.798,0.208l-1.814,0.347
		l-0.908,0.174l-0.893,0.24l-1.785,0.482l-0.688,0.186L87.25,10.16c-1.018-0.645-1.979-1.381-3.037-1.956
		c-1.048-0.594-2.09-1.199-3.197-1.674c-0.549-0.244-1.08-0.534-1.645-0.74l-1.689-0.634c-0.557-0.229-1.133-0.398-1.713-0.558
		l-1.732-0.501c-1.178-0.232-2.348-0.53-3.539-0.684c-1.194-0.132-2.383-0.336-3.588-0.339L65.307,3l-1.83,0.053
		c-0.642,0.002-1.188,0.094-1.787,0.135c-0.584,0.039-1.176,0.119-1.771,0.216c-1.193,0.152-2.367,0.418-3.539,0.686l-1.74,0.472
		l-1.711,0.567c-1.127,0.416-2.254,0.843-3.336,1.371c-1.1,0.488-2.153,1.077-3.197,1.674c-0.512,0.316-1.033,0.619-1.539,0.945
		l-1.491,1.021c-0.966,0.721-1.929,1.447-2.831,2.249c-0.466,0.383-0.906,0.795-1.34,1.215c-0.437,0.416-0.881,0.824-1.287,1.272
		c-0.848,0.859-1.627,1.782-2.408,2.703l-0.314,0.37L34.649,18.1c-1.599,0.454-3.24,0.771-4.78,1.413
		c-1.587,0.51-3.073,1.267-4.579,1.974c-0.741,0.378-1.442,0.831-2.166,1.242c-0.358,0.213-0.723,0.414-1.075,0.636l-1.019,0.725
		c-0.669,0.496-1.382,0.934-2.017,1.475l-1.909,1.617c-0.646,0.528-1.192,1.166-1.794,1.743l-0.884,0.886
		c-0.291,0.299-0.543,0.633-0.817,0.948c-0.534,0.642-1.084,1.271-1.607,1.921l-1.45,2.043c-0.51,0.664-0.906,1.403-1.337,2.118
		c-0.407,0.729-0.898,1.413-1.233,2.182l-1.099,2.254C6.52,42.028,6.261,42.827,5.943,43.6c-0.671,1.536-1.039,3.177-1.548,4.771
		l-0.522,2.455l-0.259,1.228L3.459,53.3l-0.311,2.492l-0.103,2.511l-0.053,1.256l0.041,1.244c0.048,0.85,0.017,1.764,0.131,2.559
		l0.257,2.458l0.423,2.476c0.353,1.633,0.715,3.271,1.253,4.855l0.375,1.198l0.449,1.171c0.313,0.775,0.575,1.572,0.954,2.319
		c0.364,0.752,0.686,1.526,1.083,2.262l1.209,2.197l0.26,0.472l-0.07,0.548l-0.324,2.521L8.87,87.101l-0.054,1.269l-0.112,2.537
		l0.115,2.549c0.015,1.79,0.313,3.405,0.543,5.056c0.084,0.825,0.288,1.647,0.495,2.471l0.592,2.469
		c0.249,0.809,0.542,1.604,0.811,2.405c0.284,0.797,0.51,1.616,0.893,2.374c0.701,1.539,1.339,3.11,2.237,4.549
		c0.431,0.727,0.805,1.489,1.28,2.188l1.454,2.077c0.248,0.342,0.469,0.704,0.739,1.029l0.821,0.964l1.643,1.93l1.816,1.764
		l0.907,0.884c0.321,0.273,0.657,0.528,0.984,0.794l1.975,1.581c0.688,0.485,1.409,0.925,2.111,1.39
		c1.372,0.99,2.937,1.643,4.415,2.447c0.755,0.371,1.56,0.629,2.337,0.951c0.787,0.295,1.553,0.655,2.377,0.838l2.432,0.67
		c0.402,0.129,0.816,0.203,1.232,0.262l1.245,0.202c0.833,0.109,1.653,0.33,2.495,0.352l2.521,0.136
		c0.403,0.013,0.876,0.07,1.224,0.046l1.312-0.041c0.899-0.004,1.68-0.123,2.508-0.19c0.817-0.062,1.658-0.244,2.486-0.358
		c0.828-0.147,1.646-0.353,2.47-0.524l0.653-0.136l0.559,0.353c1.258,0.795,2.501,1.619,3.836,2.283l0.983,0.526l1.019,0.454
		c0.686,0.287,1.344,0.644,2.055,0.868l2.098,0.753l2.148,0.595c0.71,0.226,1.453,0.307,2.178,0.469l1.094,0.216l1.106,0.131
		c0.739,0.069,1.473,0.21,2.217,0.224l2.228,0.087l0.14,0.006l0.034,0.002h0.018c-0.021,0.001,0.074,0-0.045,0.002l0.072-0.003
		l0.289-0.012l0.58-0.024l1.158-0.049l1.158-0.049l1.084-0.141c0.723-0.104,1.441-0.16,2.168-0.297l2.18-0.462
		c0.734-0.124,1.428-0.41,2.144-0.606c0.712-0.214,1.426-0.419,2.108-0.718l2.07-0.824l2.006-0.971
		c0.687-0.292,1.311-0.701,1.963-1.061c0.645-0.37,1.312-0.708,1.918-1.145l1.863-1.241l1.766-1.38
		c0.606-0.441,1.141-0.967,1.697-1.468c0.547-0.512,1.132-0.985,1.629-1.549l1.549-1.635c0.49-0.569,0.955-1.16,1.434-1.739
		c0.494-0.569,0.928-1.185,1.354-1.806c0.42-0.624,0.895-1.215,1.273-1.867l1.164-1.941c0.395-0.645,0.695-1.34,1.049-2.008
		c0.73-1.329,1.23-2.762,1.838-4.15l0.117-0.271l0.186-0.149c0.693-0.562,1.41-1.097,2.09-1.679
		c0.656-0.606,1.357-1.167,1.979-1.812c0.629-0.639,1.285-1.252,1.863-1.938c0.604-0.665,1.199-1.337,1.742-2.054l0.834-1.058
		l0.777-1.103c0.535-0.724,1.002-1.494,1.477-2.26c0.498-0.752,0.895-1.562,1.338-2.349c0.447-0.785,0.793-1.62,1.195-2.429
		c0.379-0.819,0.693-1.667,1.045-2.501l0.902-2.56l0.744-2.615c0.193-0.885,0.414-1.767,0.586-2.658
		c0.141-0.896,0.318-1.789,0.43-2.691c0.09-0.904,0.221-1.808,0.273-2.716c0.035-0.908,0.123-1.82,0.113-2.729l-0.039-2.739v-0.004
		l0.15-0.255l-0.139,0.262l0.002-0.004l0.164,2.735c0.051,0.917,0.006,1.829,0.014,2.747c-0.012,0.915-0.104,1.828-0.15,2.744
		c-0.07,0.914-0.207,1.821-0.309,2.734c-0.133,0.908-0.314,1.81-0.471,2.717l-0.633,2.687c-0.268,0.881-0.514,1.77-0.801,2.646
		c-0.324,0.862-0.613,1.741-0.969,2.593c-0.377,0.841-0.701,1.711-1.125,2.531c-0.422,0.822-0.799,1.67-1.279,2.462
		c-0.457,0.805-0.906,1.615-1.428,2.382l-0.758,1.167l-0.818,1.125c-0.533,0.762-1.121,1.479-1.717,2.192
		c-0.574,0.733-1.229,1.396-1.854,2.083c-0.621,0.695-1.326,1.307-1.986,1.965c-0.684,0.634-1.408,1.222-2.111,1.835l0.303-0.42
		c-0.572,1.468-1.041,2.984-1.748,4.401c-0.34,0.713-0.629,1.454-1.016,2.145l-1.143,2.084c-0.373,0.7-0.844,1.341-1.262,2.016
		c-0.424,0.671-0.857,1.337-1.354,1.958c-0.48,0.632-0.949,1.274-1.445,1.897l-1.572,1.795c-0.508,0.617-1.105,1.147-1.667,1.714
		c-0.572,0.556-1.123,1.137-1.749,1.634l-1.831,1.548l-1.945,1.408c-0.637,0.49-1.332,0.891-2.018,1.308
		c-0.693,0.402-1.359,0.855-2.092,1.189l-2.166,1.054c-0.742,0.308-1.497,0.585-2.246,0.876c-0.741,0.312-1.516,0.529-2.287,0.753
		c-0.776,0.207-1.531,0.497-2.324,0.633l-2.358,0.499c-0.794,0.147-1.618,0.22-2.427,0.33l-1.219,0.149l-1.158,0.049l-1.159,0.049
		l-0.579,0.024l-0.29,0.012l-0.072,0.004l-0.138-0.002l-0.151-0.006l-2.407-0.093c-0.804-0.018-1.598-0.164-2.396-0.241
		l-1.197-0.144l-1.183-0.231c-0.784-0.173-1.587-0.268-2.354-0.508l-2.322-0.644l-2.268-0.812c-0.767-0.247-1.479-0.626-2.218-0.938
		l-1.099-0.491l-1.062-0.566c-1.438-0.719-2.777-1.601-4.131-2.461l1.211,0.217c-0.889,0.188-1.771,0.407-2.665,0.566
		c-0.905,0.128-1.78,0.316-2.71,0.391c-0.914,0.078-1.871,0.203-2.724,0.204l-1.312,0.042c-0.527,0.027-0.928-0.033-1.398-0.046
		l-2.723-0.147c-0.91-0.028-1.799-0.258-2.699-0.378l-1.346-0.221c-0.45-0.065-0.897-0.147-1.332-0.284l-2.63-0.723
		c-0.89-0.203-1.718-0.585-2.568-0.904c-0.84-0.346-1.708-0.631-2.522-1.029c-1.598-0.86-3.281-1.577-4.761-2.636
		c-0.756-0.501-1.531-0.977-2.271-1.499l-2.125-1.698c-0.352-0.286-0.712-0.562-1.056-0.856l-0.976-0.946l-1.948-1.896l-1.764-2.065
		l-0.878-1.036c-0.289-0.349-0.527-0.734-0.793-1.101l-1.555-2.226c-0.507-0.749-0.912-1.562-1.371-2.34
		c-0.956-1.542-1.645-3.218-2.391-4.865c-0.405-0.812-0.652-1.685-0.955-2.535c-0.287-0.857-0.598-1.707-0.863-2.57l-0.635-2.636
		c-0.218-0.876-0.434-1.753-0.533-2.672c-0.258-1.815-0.564-3.655-0.576-5.375l-0.119-2.695l0.117-2.708l0.061-1.354l0.172-1.343
		l0.348-2.685l0.189,1.019l-1.294-2.349c-0.424-0.787-0.77-1.612-1.158-2.418c-0.403-0.799-0.686-1.648-1.02-2.478l-0.479-1.251
		l-0.401-1.279c-0.572-1.693-0.962-3.441-1.336-5.186L0.45,66.23l-0.281-2.703c-0.12-0.922-0.084-1.746-0.133-2.623l-0.043-1.348
		l0.054-1.338l0.112-2.674l0.33-2.658l0.167-1.328l0.274-1.312l0.559-2.62c0.538-1.703,0.939-3.452,1.651-5.096
		c0.338-0.827,0.619-1.679,1.006-2.484l1.174-2.411c0.362-0.82,0.882-1.555,1.318-2.334c0.462-0.765,0.889-1.553,1.432-2.266
		l1.555-2.188c0.559-0.698,1.147-1.374,1.721-2.061c0.294-0.337,0.566-0.694,0.877-1.016l0.947-0.952
		c0.646-0.62,1.235-1.3,1.927-1.87l2.051-1.738c0.684-0.579,1.448-1.056,2.169-1.587l1.098-0.777
		c0.379-0.239,0.771-0.458,1.157-0.688c0.779-0.444,1.537-0.929,2.335-1.337c1.623-0.768,3.229-1.577,4.942-2.133
		c1.665-0.686,3.436-1.041,5.167-1.523l-0.85,0.522c0.835-0.989,1.672-1.977,2.583-2.899c0.436-0.479,0.911-0.919,1.381-1.365
		c0.465-0.451,0.938-0.893,1.439-1.305c0.969-0.86,2.004-1.643,3.043-2.417l1.605-1.099c0.544-0.352,1.105-0.679,1.658-1.019
		c1.124-0.645,2.261-1.277,3.447-1.805c1.168-0.568,2.384-1.033,3.602-1.48l1.851-0.613l1.882-0.51
		c1.266-0.291,2.535-0.576,3.826-0.742c0.639-0.103,1.285-0.191,1.95-0.237c0.648-0.046,1.344-0.143,1.954-0.144L65.309,0
		l1.947,0.078c1.303,0.008,2.588,0.221,3.879,0.368c1.288,0.167,2.553,0.484,3.826,0.74l1.873,0.54
		c0.627,0.174,1.25,0.357,1.852,0.603l1.824,0.686c0.609,0.225,1.184,0.534,1.775,0.798c1.195,0.515,2.319,1.164,3.447,1.806
		c1.141,0.623,2.178,1.408,3.27,2.107l-1.319-0.216l1.927-0.521l0.965-0.257l0.98-0.19l1.965-0.374l2.023-0.233l1.01-0.112
		l0.961-0.037l1.922-0.074l4.047,0.21c5.303,0.535,10.489,2.145,15.165,4.678c4.682,2.528,8.852,5.958,12.287,9.997
		c3.439,4.038,6.146,8.682,8.014,13.638c0.414,1.258,0.896,2.495,1.246,3.771l0.928,3.862l0.572,3.991
		c0.121,0.677,0.105,1.3,0.146,1.944l0.092,1.922c0.135,2.707-0.061,5.308-0.389,7.939c-0.342,2.617-0.879,5.211-1.637,7.748
		c-1.512,5.064-3.822,9.955-7.271,14.135c-0.451,0.508-0.904,1.079-1.357,1.532l-0.678,0.681l-0.34,0.341l-0.17,0.171
		c-0.141,0.133-0.154,0.134-0.236,0.208c-0.535,0.446-1.055,0.928-1.625,1.305l-0.842,0.597l-0.867,0.532
		c-2.322,1.401-4.771,2.456-7.26,3.334c-4.998,1.717-10.119,2.824-15.429,3.21c-5.199,0.275-10.429,0.256-15.671-0.554
		c-5.218-0.8-10.423-2.58-14.907-5.579l-1.631-1.187c-0.53-0.426-1.048-0.883-1.569-1.325c-0.549-0.445-0.951-0.904-1.417-1.357
		l-0.679-0.682c-0.301-0.301-0.465-0.527-0.703-0.794c-1.781-2.044-3.237-4.363-4.296-6.845c-2.127-4.953-2.636-10.607-1.216-15.79
		c0.689-2.564,1.896-5.09,3.436-7.202c1.648-2.199,3.859-3.812,6.213-5.002c2.364-1.185,4.912-1.955,7.512-2.3
		c2.598-0.34,5.278-0.253,7.806,0.498c0.622,0.214,1.237,0.448,1.843,0.705c0.57,0.337,1.208,0.606,1.71,1.002
		c1.042,0.733,2.007,1.681,2.844,2.645c0.823,1.004,1.552,2.086,2.069,3.276C95.654,52.17,95.877,53.472,95.742,54.749z"/>
</g>
</svg>
