<?xml version="1.0" encoding="utf-8"?>
<!-- Generator: Adobe Illustrator 16.0.0, SVG Export Plug-In . SVG Version: 6.00 Build 0)  -->
<!DOCTYPE svg PUBLIC "-//W3C//DTD SVG 1.1//EN" "http://www.w3.org/Graphics/SVG/1.1/DTD/svg11.dtd">
<svg version="1.1" id="Layer_1" xmlns="http://www.w3.org/2000/svg" xmlns:xlink="http://www.w3.org/1999/xlink" x="0px" y="0px"
	 width="317.084px" height="338.526px" viewBox="142.458 148.737 317.084 338.526"
	 enable-background="new 142.458 148.737 317.084 338.526" xml:space="preserve">
<path fill="none" stroke="#3F3F3F" stroke-width="4" stroke-linecap="round" stroke-linejoin="round" stroke-miterlimit="10" d="
	M255.106,285.167c0.621,3.658,1.577,7.448,2.741,11.325c6.425,21.389,21.781,34.365,21.781,34.365
	c10.315,7.692,2.993,21.551-1.897,26.137c-4.892,4.58-29.328,14.742-32.104,19.404s0.709,22.062,0.709,22.062 M389.037,355.598
	c0,0-6.68-16.441-11.565-18.803c-4.885-2.361-30.876,2.627-37.482,1.497c-6.607-1.131-20.354-8.661-15.984-20.765
	c0,0,5.663-19.291-0.762-40.679c-1.225-4.073-2.585-7.941-4.182-11.475 M255.106,285.167l7.165-12.961l-4.118,0.193l7.58-8.367
	l-1.111-5.717c0,0,5.979,5.125,7.605,0.112c1.626-5.013,5.876-0.721,5.876-0.721l13.183-7.092l9.579,0.603l5.574,9.289l5.523,3.909
	l0.573-5.916l7.847,10.016l-2.676-11.918c0,0,3.094-9.979-0.865-11.573c-3.959-1.594-2.426,1.773-2.426,1.773l-6.74-7.373
	l-7.711-3.079l-4.133,2.46l-11.575-0.873c0,0,1.1-5.029-2.156-3.703s-11.588,4.873-11.588,4.873l-8.442,8.975l-5.954,1.614
	l-0.545-4.709l-3.205,11.926l-1.145,11.83L255.106,285.167z"/>
<path fill="none" stroke="#3F3F3F" stroke-width="4" stroke-linecap="round" stroke-linejoin="round" stroke-miterlimit="10" d="
	M418.972,361.396l-194.419,58.398L170.757,240.7l194.419-58.399L418.972,361.396z M378.143,150.737l-233.685,70.194l79.399,264.332
	l233.685-70.192L378.143,150.737z"/>
<path fill="none" stroke="#3F3F3F" stroke-width="4" stroke-linecap="round" stroke-linejoin="round" stroke-miterlimit="10" d="
	M396.308,211.21l16.367,0.173l-0.555,52.469 M432.889,332.994l1.564-147.882l-46.131-0.488 M308.636,459.797l122.897,1.301
	l0.406-38.338 M188.509,367.583l-0.962,90.933l28.367,0.301 M269.51,183.368l-79.043-0.836l-0.261,24.657"/>
<path fill="none" stroke="#3F3F3F" stroke-width="4" stroke-linecap="round" stroke-linejoin="round" stroke-miterlimit="10" d="
	M190.419,187.022l-43.551,7.195l4.091,24.759 M339.147,162.45l-123.181,20.351 M392.598,184.671l-4.992-30.227l-7.953,1.314
	 M190.539,458.548l1.318,7.979l25.125-4.15 M159.624,271.419l28.103,170.104"/>
<path fill="none" stroke="#3F3F3F" stroke-width="4" stroke-linecap="round" stroke-linejoin="round" stroke-miterlimit="10" d="
	M289.657,285.385c-0.529,0.418-1.896-1.274-1.347,1.36c1.346,5.56-0.06,11.568-5.098,14.51c-2.31,1.347-2.573,1.696-5.02,2.278
	c-2.447,0.581-5.478,1.268-8.459,0.578c-2.981-0.688-4.75-2.469-5.372-3.516c-0.623-1.046-2.505-5.259-2.774-5.642
	c-0.268-0.381-1.937-0.804-1.937-0.804l-0.638-2.122c0,0,1.089-0.481,2.008-1.528c0.918-1.048,2.392-3.218,4.617-4.227
	c2.193-0.994,6.694-2.254,6.694-2.254s5.592-1.821,8.169-1.725c1.053,0.04,2.327-0.108,3.694,0.165
	c0.339,0.068,2.226,1.521,2.831,1.625c0.745,0.129,1.488-0.062,2.383-0.313c0.208-0.058,0.247-0.068,0.247-0.068
	s0.038-0.013,0.246-0.082c0.888-0.285,1.607-0.532,2.159-1.052c0.449-0.419,1.221-2.672,1.468-2.917
	c0.989-0.982,2.136-1.56,2.992-2.173c2.095-1.499,7.766-3.062,7.766-3.062s4.451-1.429,6.828-1.807
	c2.414-0.385,4.839,0.614,6.184,0.982c1.341,0.369,2.517,0.169,2.517,0.169l0.638,2.122c0,0-1.562-0.588-1.173,1.739
	c-0.014,0.468,0.736,5.02,0.795,6.236c0.057,1.217-0.44,3.678-2.546,5.894c-3.271,3.434-8.262,4.788-12.824,5.043
	c-2.658,0.147-3.407-0.055-5.669-0.917c-2.264-0.861-6.269-7.52-6.581-8.381c-0.782-2.623-1.201-0.335-1.875-0.392L289.657,285.385z
	 M261.586,294.956l-1.274-4.241 M319.277,277.625l-1.273-4.242 M294,444c1-11,3-23-1-33c4,5,8,6,12,8c0-3,2-8,1-12c8,5,15,17,20,25
	 M333,412c27,6,6-25-4-6c-8,15,15,30,25,17"/>
</svg>
