<?xml version="1.0" encoding="utf-8"?>
<!-- Generator: Adobe Illustrator 16.0.0, SVG Export Plug-In . SVG Version: 6.00 Build 0)  -->
<!DOCTYPE svg PUBLIC "-//W3C//DTD SVG 1.1//EN" "http://www.w3.org/Graphics/SVG/1.1/DTD/svg11.dtd">
<svg version="1.1" id="Layer_1" xmlns="http://www.w3.org/2000/svg" xmlns:xlink="http://www.w3.org/1999/xlink" x="0px" y="0px"
	 width="500px" height="500px" viewBox="0 0 500 500" enable-background="new 0 0 500 500" xml:space="preserve">
<path fill="none" stroke="#5E686D" stroke-width="5" stroke-linecap="round" stroke-linejoin="round" stroke-miterlimit="10" d="
	M166.228,168.82c-1.145,9.205-1.58,18.968-1.58,29.088c0,55.833,27.435,97.947,27.435,97.947
	c19.165,25.834-8.333,53.75-23.34,61.209c-15.008,7.449-80.823,14.211-90.823,23.375c-10,9.166-14.17,53.337-14.17,53.337"/>
<path fill="none" stroke="#5E686D" stroke-width="5" stroke-linecap="round" stroke-linejoin="round" stroke-miterlimit="10" d="
	M436.25,433.775c0,0-4.17-44.17-14.17-53.336c-10-9.164-75.815-15.918-90.822-23.375c-15.008-7.459-42.506-35.375-23.34-61.209
	c0,0,27.435-42.115,27.435-97.948c0-10.632-0.473-20.872-1.758-30.482"/>
<path fill="none" stroke="#5E686D" stroke-width="5" stroke-linejoin="round" stroke-miterlimit="10" d="M248.8,194.192
	c-1.57,0.62-3.625-4.415-4.205,2.288c-0.778,14.28-8.465,27.655-22.643,31.075c-6.5,1.562-7.383,2.212-13.658,1.845
	c-6.277-0.367-14.027-0.905-20.67-4.697c-6.645-3.79-9.598-9.325-10.335-12.28c-0.74-2.952-2.215-14.395-2.585-15.502
	c-0.368-1.105-4.06-3.32-4.06-3.32v-5.538c0,0,2.953-0.37,5.905-2.215c2.953-1.848,8.042-5.985,14.095-6.8
	c5.965-0.802,17.647-0.583,17.647-0.583s14.7-0.337,20.8,1.745c2.495,0.853,5.65,1.415,8.728,3.053
	c0.765,0.407,4.235,5.242,5.608,5.927c1.692,0.845,3.607,0.922,5.932,0.965c0.54,0.01,0.64,0.015,0.64,0.015s0.1-0.005,0.647-0.02
	c2.332-0.045,4.229-0.117,5.924-0.965c1.379-0.683,4.847-5.52,5.613-5.928c3.072-1.64,6.234-2.2,8.728-3.052
	c6.096-2.083,20.795-1.745,20.795-1.745s11.686-0.22,17.647,0.583c6.058,0.815,11.146,4.953,14.101,6.8
	c2.947,1.848,5.902,2.215,5.902,2.215v5.537c0,0-3.312-2.53-4.059,3.32c-0.367,1.11-1.845,12.55-2.582,15.502
	c-0.74,2.955-3.698,8.49-10.335,12.28c-10.303,5.87-23.223,5.523-34.33,2.853c-6.473-1.56-8.119-2.583-12.914-6.275
	c-4.804-3.69-9.604-22.512-9.729-24.8c0.014-6.843-2.636-1.667-4.205-2.288L248.8,194.192z M174.705,196.92v-11.072 M325.3,196.915
	v-11.073"/>
<path fill="none" stroke="#5E686D" stroke-width="5" stroke-linejoin="round" stroke-miterlimit="10" d="M166.23,168.82
	l26.478-25.88l-10-2.5l24.167-14.583l1.45-14.487c0,0,10.63,16.57,18.13,5.737s14.587,2.5,14.587,2.5l36.665-7.5l22.503,8.333
	l6.665,26.25l10.415,13.333l5.628-13.752l11.585,29.625l2.162-30.46c0,0,14.585-21.667,6.253-28.333
	c-8.333-6.665-7.083,2.5-7.083,2.5L325,97.103l-16.25-12.917l-11.665,2.917L270,76.688c0,0,6.25-11.25-2.5-10.417
	s-31.25,3.333-31.25,3.333L209.583,85.02l-15.417-0.417l2.083-11.667l-16.25,26.25l-11.25,27.5L166.23,168.82z"/>
</svg>
