<?xml version="1.0" encoding="utf-8"?>
<!-- Generator: Adobe Illustrator 16.0.0, SVG Export Plug-In . SVG Version: 6.00 Build 0)  -->
<!DOCTYPE svg PUBLIC "-//W3C//DTD SVG 1.1//EN" "http://www.w3.org/Graphics/SVG/1.1/DTD/svg11.dtd">
<svg version="1.1" id="Layer_1" xmlns="http://www.w3.org/2000/svg" xmlns:xlink="http://www.w3.org/1999/xlink" x="0px" y="0px"
	 width="116.17px" height="288.221px" viewBox="0 0 116.17 288.221" enable-background="new 0 0 116.17 288.221"
	 xml:space="preserve">
<path fill="none" stroke="#3D3D3D" stroke-width="2" stroke-linejoin="round" stroke-miterlimit="10" d="M94.878,191.854
	c2.375-10.518,4.191-22.123,5.331-34.488c0.056-0.011,0.116-0.021,0.173-0.031l-0.17,0.001c0.067-0.734,0.127-1.478,0.189-2.217
	c0.01,0,0.018,0.005,0.026,0.005c0.276,0,0.5-0.223,0.5-0.5c0-0.255-0.194-0.459-0.442-0.488c0.716-8.759,1.1-17.873,1.1-27.24
	c0-13.737-1.82-26.938-4.71-39.253c0.352-0.067,0.719-0.126,1.065-0.195l-1.109,0.006c-4.46-18.93-11.448-35.759-18.272-49.187
	c-0.001,0-0.001,0-0.001,0c0.67-0.137,1.341-0.273,2.002-0.422C69.319,15.08,58.085,1,58.085,1S46.85,15.079,35.61,37.844
	c0.661,0.149,1.331,0.285,2.001,0.421C30.733,51.798,23.69,68.786,19.235,87.897l-1.101,0.006c0.346,0.063,0.709,0.117,1.058,0.178
	c-0.37,1.593-0.723,3.2-1.055,4.822h-0.003c0.001,0,0.002,0,0.003,0c-2.209,10.788-3.552,22.191-3.552,33.991
	c0,9.537,0.398,18.811,1.14,27.715c-0.268,0.009-0.484,0.227-0.484,0.497c0,0.276,0.224,0.5,0.5,0.5
	c0.024,0,0.044-0.011,0.068-0.014c0.064,0.743,0.128,1.486,0.197,2.224l-0.313,0.002c0.104,0.019,0.214,0.035,0.318,0.054
	c1.143,12.175,2.938,23.608,5.281,33.981c-9.358,11.65-26.608,37.532-17.916,61.309c11.666,31.912,19.364,26.426,19.364,26.426
	s0.969-30.164,5.969-40.883c2.079-4.457,4.203-5.937,5.977-6.149c1.445,4.154,3.012,7.943,4.691,11.292
	c0,0,8.163,2.463,19.122,2.463c10.96,0,19.122-2.463,19.122-2.463c1.655-3.303,3.203-7.033,4.631-11.119
	c-2.518-0.817-4.498,1.114-4.961,1.619c0.749-0.82,5.57-5.498,10.167,4.357c5,10.719,5.97,40.883,5.97,40.883
	s7.698,5.486,19.364-26.426C121.485,229.386,104.236,203.504,94.878,191.854z M38.793,234.258c-0.039-0.04-0.083-0.084-0.132-0.133
	C38.711,234.174,38.755,234.218,38.793,234.258z M38.66,234.125c-0.57-0.555-1.857-1.594-3.503-1.596
	C36.806,232.532,38.092,233.569,38.66,234.125z M35.136,232.529c-0.145,0.001-0.292,0.009-0.441,0.026
	C34.845,232.538,34.992,232.53,35.136,232.529z M38.962,234.443c0.012,0.014,0.019,0.022,0.019,0.022S38.974,234.457,38.962,234.443
	z M38.804,234.27c0.035,0.036,0.065,0.068,0.089,0.096C38.869,234.338,38.839,234.306,38.804,234.27z M38.902,234.375
	c0.023,0.025,0.041,0.045,0.053,0.06C38.943,234.42,38.925,234.401,38.902,234.375z M77.188,234.465c0,0,0.009-0.011,0.022-0.026
	C77.197,234.455,77.188,234.465,77.188,234.465 M77.281,234.36c-0.027,0.029-0.049,0.055-0.063,0.071
	C77.232,234.415,77.254,234.39,77.281,234.36z"/>
</svg>
