<?xml version="1.0" encoding="utf-8"?>
<!-- Generator: Adobe Illustrator 16.0.0, SVG Export Plug-In . SVG Version: 6.00 Build 0)  -->
<!DOCTYPE svg PUBLIC "-//W3C//DTD SVG 1.1//EN" "http://www.w3.org/Graphics/SVG/1.1/DTD/svg11.dtd">
<svg version="1.1" id="Layer_1" xmlns="http://www.w3.org/2000/svg" xmlns:xlink="http://www.w3.org/1999/xlink" x="0px" y="0px"
	 width="44.537px" height="138.912px" viewBox="0 0 44.537 138.912" enable-background="new 0 0 44.537 138.912"
	 xml:space="preserve">
<path fill="#71670D" d="M22.145,3.463L3.022,1C-2.361,18.462,3.475,130.505,14.93,137.865c0.589,0.564,6.268-4.131,7.047-4.131
	c0.097,0,0.194-0.014,0.292-0.021c0.097,0.008,0.194,0.021,0.291,0.021c0.779,0,6.458,4.695,7.047,4.131
	C41.062,130.507,46.898,18.462,41.515,1L22.393,3.463H22.145z"/>
<path fill="#A3A05E" d="M22.193,3.657L10.612,2.166c-3.261,10.575,3.302,76.939,10.24,81.396c0.356,0.342,0.768,0.527,1.239,0.527
	c0.059,0,0.117-0.01,0.177-0.014c0.059,0.004,0.118,0.014,0.176,0.014c0.473,0,0.884-0.186,1.24-0.527
	c6.938-4.455,13.501-70.821,10.24-81.396L22.344,3.657H22.193z"/>
<path fill="#92C8CC" d="M22.254,3.746L16.464,3c-1.63,5.287,1.651,40.772,5.12,43c0.178,0.171,0.384,0.264,0.619,0.264
	c0.029,0,0.059-0.005,0.089-0.007c0.029,0.002,0.059,0.007,0.088,0.007c0.236,0,0.441-0.093,0.62-0.264
	c3.469-2.228,6.75-37.713,5.12-43l-5.791,0.746H22.254z"/>
<linearGradient id="SVGID_1_" gradientUnits="userSpaceOnUse" x1="-98.9463" y1="421.605" x2="-98.9463" y2="421.605" gradientTransform="matrix(-1 0 0 1 -76.6543 -341)">
	<stop  offset="0.2672" style="stop-color:#F8A91C"/>
	<stop  offset="0.396" style="stop-color:#FFCC0C"/>
</linearGradient>
<path fill="url(#SVGID_1_)" d="M22.292,80.605"/>
<linearGradient id="SVGID_2_" gradientUnits="userSpaceOnUse" x1="-100.4707" y1="421.605" x2="-100.4707" y2="421.605" gradientTransform="matrix(-1 0 0 1 -76.6543 -341)">
	<stop  offset="0.2672" style="stop-color:#F8A91C"/>
	<stop  offset="0.396" style="stop-color:#FFCC0C"/>
</linearGradient>
<path fill="url(#SVGID_2_)" d="M23.816,80.605"/>
</svg>
