<?xml version="1.0" encoding="utf-8"?>
<!-- Generator: Adobe Illustrator 16.0.0, SVG Export Plug-In . SVG Version: 6.00 Build 0)  -->
<!DOCTYPE svg PUBLIC "-//W3C//DTD SVG 1.1//EN" "http://www.w3.org/Graphics/SVG/1.1/DTD/svg11.dtd">
<svg version="1.1" id="Layer_1" xmlns="http://www.w3.org/2000/svg" xmlns:xlink="http://www.w3.org/1999/xlink" x="0px" y="0px"
	 width="200px" height="200px" viewBox="99.225 235.426 200 200" enable-background="new 99.225 235.426 200 200"
	 xml:space="preserve">
<g id="ZNqXV1.tif">
	<g>
		<path fill="#444444" d="M199.446,267.82c0.073,0,0.146,0,0.221,0c0.188,0.098,0.368,0.218,0.566,0.289
			c12.308,4.399,24.616,8.797,36.927,13.19c8.137,2.904,16.275,5.803,24.415,8.7c0.525,0.187,1.018,0.282,0.913,1.088
			c-0.429,3.31-0.791,6.628-1.179,9.943c-0.559,4.772-1.124,9.543-1.674,14.316c-0.551,4.773-1.078,9.55-1.629,14.322
			c-0.552,4.773-1.128,9.544-1.678,14.316c-0.55,4.773-1.074,9.55-1.622,14.323c-0.557,4.846-1.148,9.688-1.674,14.537
			c-0.074,0.68-0.333,1.027-0.903,1.343c-17.274,9.552-34.541,19.115-51.797,28.698c-0.631,0.351-1.08,0.332-1.702-0.014
			c-17.236-9.57-34.481-19.123-51.741-28.651c-0.722-0.398-0.937-0.903-1.016-1.646c-0.371-3.505-0.771-7.007-1.177-10.509
			c-0.849-7.331-1.714-14.66-2.56-21.991c-0.846-7.332-1.672-14.666-2.514-21.997c-0.784-6.821-1.566-13.643-2.371-20.462
			c-0.262-2.216-0.593-4.425-0.892-6.638c0-0.221,0-0.441,0-0.661c0.35-0.1,0.706-0.18,1.047-0.302
			c16.893-6.021,33.786-12.04,50.675-18.07C191.878,270.591,195.659,269.197,199.446,267.82z M238.779,371.23
			c-13.102-29.48-26.153-58.851-39.338-88.517c-13.239,29.691-26.334,59.056-39.503,88.587c0.613,0,1.01,0,1.407,0
			c4.042,0,8.085-0.035,12.127,0.025c0.959,0.015,1.402-0.262,1.757-1.168c2.312-5.909,4.704-11.787,7.036-17.689
			c0.281-0.709,0.61-1.004,1.424-1.002c10.474,0.029,20.947,0.025,31.421-0.002c0.756-0.002,1.078,0.25,1.35,0.938
			c2.375,6.005,4.806,11.986,7.178,17.991c0.276,0.7,0.614,0.926,1.357,0.92c4.226-0.037,8.452-0.018,12.679-0.021
			C237.99,371.292,238.306,371.257,238.779,371.23z"/>
		<path fill-rule="evenodd" clip-rule="evenodd" fill="#FFFFFF" d="M136.361,290.98c0.299,2.213,0.63,4.422,0.892,6.638
			c0.805,6.819,1.587,13.641,2.371,20.462c0.842,7.331,1.668,14.665,2.514,21.997c0.846,7.331,1.711,14.66,2.56,21.991
			c0.405,3.502,0.806,7.004,1.177,10.509c0.079,0.742,0.294,1.247,1.016,1.646c17.259,9.528,34.504,19.081,51.741,28.651
			c0.622,0.346,1.071,0.364,1.702,0.014c17.256-9.583,34.522-19.146,51.797-28.698c0.57-0.315,0.829-0.663,0.903-1.343
			c0.525-4.849,1.117-9.691,1.674-14.537c0.548-4.773,1.072-9.55,1.622-14.323c0.55-4.772,1.126-9.543,1.678-14.316
			c0.551-4.772,1.078-9.549,1.629-14.322c0.55-4.773,1.115-9.544,1.674-14.316c0.388-3.315,0.75-6.634,1.179-9.943
			c0.104-0.806-0.388-0.901-0.913-1.088c-8.14-2.897-16.278-5.796-24.415-8.7c-12.311-4.394-24.619-8.791-36.927-13.19
			c-0.198-0.071-0.378-0.191-0.566-0.289c21.027,0,42.056,0,63.084,0c0,45.218,0,90.437,0,135.654c-42.13,0-84.26,0-126.39,0
			C136.361,365.976,136.361,328.478,136.361,290.98z"/>
		<path fill-rule="evenodd" clip-rule="evenodd" fill="#FFFFFF" d="M199.446,267.82c-3.787,1.377-7.567,2.771-11.362,4.127
			c-16.89,6.03-33.782,12.05-50.675,18.07c-0.342,0.122-0.698,0.202-1.047,0.302c0-7.5,0-15,0-22.499
			C157.389,267.82,178.417,267.82,199.446,267.82z"/>
		<path fill-rule="evenodd" clip-rule="evenodd" fill="#444444" d="M210.892,339.199c-7.687,0-15.206,0-22.884,0
			c3.794-9.131,7.548-18.165,11.438-27.528C203.315,320.976,207.074,330.015,210.892,339.199z"/>
	</g>
</g>
</svg>
