<?xml version="1.0" encoding="utf-8"?>
<!-- Generator: Adobe Illustrator 16.0.0, SVG Export Plug-In . SVG Version: 6.00 Build 0)  -->
<!DOCTYPE svg PUBLIC "-//W3C//DTD SVG 1.1//EN" "http://www.w3.org/Graphics/SVG/1.1/DTD/svg11.dtd">
<svg version="1.1" id="Layer_1" xmlns="http://www.w3.org/2000/svg" xmlns:xlink="http://www.w3.org/1999/xlink" x="0px" y="0px"
	 width="200px" height="200px" viewBox="50.5 125.5 200 200" enable-background="new 50.5 125.5 200 200" xml:space="preserve">
<g id="rMUh8w.tif">
	<g>
		<path fill="#444444" d="M191.806,163.338c2.779,1.125,5.283,2.145,7.79,3.15c4.498,1.8,9.024,3.535,13.474,5.448
			c0.769,0.331,1.727,1.409,1.732,2.147c0.104,10.073,0.056,20.149,0.038,30.223c0,0.141-0.098,0.28-0.267,0.73
			c-1.92-0.825-3.833-1.638-5.737-2.47c-5.204-2.272-10.39-4.583-15.613-6.81c-1.46-0.624-2.083-1.576-2.057-3.139
			c0.168-9.313,0.301-18.628,0.452-27.942C191.624,164.381,191.698,164.091,191.806,163.338z"/>
		<path fill="#444444" d="M82.781,250.817c-3.916-1.75-7.485-3.364-11.072-4.942c-3.393-1.489-6.846-2.857-10.177-4.474
			c-0.836-0.405-1.866-1.562-1.863-2.372c0.036-9.531,0.249-19.062,0.427-28.592c0.005-0.284,0.156-0.565,0.271-0.962
			c0.405,0.055,0.788,0.033,1.111,0.16c6.608,2.613,13.206,5.261,19.823,7.853c1.209,0.473,1.768,1.133,1.761,2.508
			c-0.048,9.687-0.023,19.373-0.034,29.059C83.027,249.484,82.912,249.916,82.781,250.817z"/>
		<path fill="#444444" d="M136.759,249.549c-2.156-0.938-3.859-1.679-5.562-2.422c-5.335-2.328-10.655-4.681-16.004-6.977
			c-1.245-0.534-1.893-1.225-1.856-2.704c0.215-9.373,0.344-18.749,0.51-28.122c0.006-0.361,0.107-0.722,0.222-1.46
			c2.299,0.929,4.431,1.803,6.572,2.652c4.918,1.948,9.866,3.824,14.736,5.888c0.733,0.313,1.579,1.451,1.59,2.221
			c0.112,8.307,0.087,16.612,0.058,24.92C137.02,245.393,136.867,247.239,136.759,249.549z"/>
		<path fill="#444444" d="M87.802,255.433c3.063,1.138,6.108,2.214,9.107,3.406c3.935,1.562,7.862,3.152,11.718,4.895
			c0.787,0.353,1.772,1.419,1.78,2.167c0.112,9.837,0.067,19.672,0.047,29.51c0,0.285-0.144,0.571-0.296,1.143
			c-1.105-0.402-2.153-0.726-3.152-1.159c-6.029-2.631-12.07-5.236-18.045-7.99c-0.836-0.386-1.88-1.548-1.876-2.344
			c0.03-9.607,0.244-19.213,0.419-28.817C87.506,256.038,87.646,255.84,87.802,255.433z"/>
		<path fill="#444444" d="M115.691,293.887c0-10.129-0.015-19.663,0.037-29.198c0.003-0.562,0.423-1.453,0.869-1.631
			c6.663-2.643,13.358-5.188,20.344-7.87c0.08,1.021,0.169,1.663,0.171,2.304c0.01,8.481-0.033,16.96,0.039,25.44
			c0.013,1.668-0.443,2.576-2.083,3.217c-5.287,2.061-10.497,4.313-15.748,6.469C118.242,293.061,117.117,293.392,115.691,293.887z"
			/>
		<path fill="#444444" d="M87.972,247.504c0-0.996,0-1.954,0-2.912c0-8.402,0.048-16.806-0.039-25.206
			c-0.019-1.723,0.549-2.581,2.148-3.159c5.905-2.135,11.764-4.39,17.644-6.585c0.402-0.149,0.836-0.206,1.45-0.348
			c0.092,0.729,0.228,1.3,0.228,1.868c0.014,8.705,0.047,17.411-0.052,26.114c-0.009,0.837-0.667,2.129-1.357,2.424
			c-6.329,2.701-12.731,5.229-19.117,7.794C88.688,247.569,88.445,247.504,87.972,247.504z"/>
		<path fill="#444444" d="M163.482,207.797c0,3.188,0,5.898,0,8.607c0,6.432-0.045,12.863,0.03,19.293
			c0.02,1.572-0.391,2.466-1.949,3.073c-6.058,2.358-12.059,4.858-18.088,7.292c-0.33,0.137-0.713,0.15-1.314,0.27
			c-0.04-0.857-0.107-1.577-0.107-2.297c-0.008-8.552,0.062-17.1-0.052-25.648c-0.027-2.041,0.709-2.863,2.583-3.518
			c5.423-1.891,10.757-4.038,16.129-6.078C161.472,208.501,162.24,208.24,163.482,207.797z"/>
		<path fill="#444444" d="M220.318,201.792c-0.066-0.744-0.159-1.33-0.162-1.916c-0.008-8.708,0.026-17.418-0.031-26.126
			c-0.01-1.574,0.432-2.454,2.008-3.034c5.75-2.115,11.443-4.387,17.165-6.584c0.543-0.208,1.123-0.314,1.863-0.516
			c0.055,0.866,0.132,1.528,0.132,2.19c0.011,8.481-0.029,16.963,0.038,25.446c0.014,1.674-0.499,2.588-2.118,3.214
			c-5.785,2.242-11.511,4.634-17.267,6.948C221.481,201.603,220.958,201.649,220.318,201.792z"/>
		<path fill="#444444" d="M141.43,164.173c3.74,1.58,7.331,3.112,10.94,4.615c2.581,1.079,5.222,2.029,7.738,3.237
			c0.694,0.331,1.5,1.38,1.486,2.086c-0.167,8.617-0.474,17.23-0.755,25.843c-0.006,0.214-0.109,0.429-0.159,0.617
			c-0.168,0.086-0.32,0.232-0.427,0.205c-5.963-1.652-11.938-3.279-17.871-5.036c-0.599-0.177-1.38-1.122-1.385-1.715
			c-0.071-9.604-0.031-19.212-0.006-28.818C140.995,165.004,141.159,164.797,141.43,164.173z"/>
		<path fill="#444444" d="M186.618,166.151c0.044,0.922,0.106,1.645,0.107,2.364c0.007,8.393-0.041,16.784,0.039,25.177
			c0.018,1.744-0.463,2.767-2.129,3.48c-5.465,2.345-10.872,4.831-16.512,7.359c-0.079-0.787-0.183-1.354-0.183-1.918
			c-0.011-8.845,0.034-17.692-0.045-26.535c-0.017-1.706,0.56-2.6,2.112-3.233c4.97-2.018,9.893-4.155,14.84-6.227
			C185.315,166.422,185.831,166.354,186.618,166.151z"/>
		<path fill="#444444" d="M127.1,252.872c-5.005,1.897-10.01,3.806-15.028,5.676c-0.463,0.172-1.095,0.293-1.516,0.114
			c-4.434-1.868-8.839-3.802-13.914-6.005c3.814-1.6,7.139-2.659,10.124-4.329c3.798-2.12,7.202-2.134,11-0.007
			c2.941,1.65,6.226,2.688,9.357,4C127.116,252.506,127.107,252.689,127.1,252.872z"/>
		<path fill="#444444" d="M148.153,161.023c5.222-2.269,9.715-4.25,14.235-6.161c0.653-0.275,1.57-0.511,2.161-0.267
			c4.726,1.945,9.402,4.009,14.087,6.605c-1.154,0.451-2.3,0.925-3.467,1.348c-2.203,0.801-4.537,1.331-6.599,2.401
			c-4.129,2.14-7.965,1.874-11.975-0.342C154.122,163.237,151.374,162.367,148.153,161.023z"/>
		<path fill="#444444" d="M231.28,161.314c-5.094,1.838-10.188,3.685-15.288,5.502c-0.326,0.115-0.773,0.116-1.09-0.014
			c-4.454-1.819-8.896-3.668-13.982-5.778c5.421-2.335,10.236-4.423,15.069-6.466c0.375-0.157,0.936-0.144,1.314,0.018
			c4.697,1.992,9.377,4.028,14.059,6.052C231.335,160.857,231.308,161.086,231.28,161.314z"/>
		<path fill="#444444" d="M123.735,205.105c4.622-2.023,9.239-4.064,13.88-6.048c0.51-0.217,1.254-0.325,1.732-0.121
			c4.759,2.024,9.484,4.125,14.796,6.461c-5.759,2.065-10.913,3.924-16.079,5.753c-0.331,0.117-0.79,0.131-1.111,0
			c-4.448-1.799-8.881-3.636-13.316-5.459C123.671,205.495,123.701,205.3,123.735,205.105z"/>
		<path fill="#444444" d="M100.064,206.545c-5.432,1.996-10.458,3.866-15.504,5.67c-0.591,0.208-1.393,0.269-1.951,0.041
			c-4.399-1.794-8.759-3.677-13.5-5.688c5.195-2.244,10.078-4.37,14.984-6.439c0.425-0.179,1.077-0.109,1.519,0.083
			C90.319,202.242,95.005,204.318,100.064,206.545z"/>
	</g>
</g>
</svg>
