<?xml version="1.0" encoding="utf-8"?>
<!-- Generator: Adobe Illustrator 16.0.0, SVG Export Plug-In . SVG Version: 6.00 Build 0)  -->
<!DOCTYPE svg PUBLIC "-//W3C//DTD SVG 1.1//EN" "http://www.w3.org/Graphics/SVG/1.1/DTD/svg11.dtd">
<svg version="1.1" id="Layer_1" xmlns="http://www.w3.org/2000/svg" xmlns:xlink="http://www.w3.org/1999/xlink" x="0px" y="0px"
	 width="200px" height="200px" viewBox="99.225 235.426 200 200" enable-background="new 99.225 235.426 200 200"
	 xml:space="preserve">
<g>
	<g>
		<polygon fill="#3D3D3B" points="228.963,266.901 220.263,266.901 229.311,276.721 229.311,281.397 210.67,281.397 210.67,275.924 
			219.722,275.924 210.67,266.105 210.67,261.422 228.963,261.422 		"/>
		<polygon fill="#3D3D3B" points="206.978,266.901 198.275,266.901 207.326,276.721 207.326,281.397 188.682,281.397 
			188.682,275.924 197.732,275.924 188.682,266.105 188.682,261.422 206.978,261.422 		"/>
		<polygon fill="#3D3D3B" points="185.204,267.125 175.814,267.125 175.814,275.698 185.204,275.698 185.204,281.397 
			169.139,281.397 169.139,261.422 185.204,261.422 		"/>
	</g>
	<polygon fill="#3D3D3B" points="232.142,311.477 199.272,311.477 199.226,311.477 199.226,324.601 217.793,324.601 
		216.593,338.043 199.226,338.043 199.226,351.168 215.433,351.168 213.898,368.192 199.258,372.147 199.258,385.803 
		226.169,378.346 226.366,376.125 228.65,350.614 228.65,350.614 231.824,314.999 	"/>
	<path fill="#3D3D3B" d="M146.799,290.514l9.543,107.029l42.817,11.888l42.942-11.904l9.549-107.013H146.799z M233.922,390.715
		l-34.695,9.616v-14.528l-26.872-7.458l-1.838-20.611h6.073h7.104l0.933,10.472l14.601,3.938v-47.543h-31.621h-0.041l-0.264-2.948
		l-0.599-6.654l-0.314-3.522h32.839v-12.209h42.857L233.922,390.715z M183.617,338.047h15.609v8.152v4.939v0.032h-14.393h-0.041
		l-0.264-2.951l-0.599-6.654L183.617,338.047z"/>
</g>
</svg>
