<?xml version="1.0" encoding="utf-8"?>
<!-- Generator: Adobe Illustrator 16.0.0, SVG Export Plug-In . SVG Version: 6.00 Build 0)  -->
<!DOCTYPE svg PUBLIC "-//W3C//DTD SVG 1.1//EN" "http://www.w3.org/Graphics/SVG/1.1/DTD/svg11.dtd">
<svg version="1.1" id="Layer_1" xmlns="http://www.w3.org/2000/svg" xmlns:xlink="http://www.w3.org/1999/xlink" x="0px" y="0px"
	 width="200px" height="200px" viewBox="99.225 235.426 200 200" enable-background="new 99.225 235.426 200 200"
	 xml:space="preserve" stroke-width="3" stroke="#444444">
<g>
	<path fill="#444444" d="M147.601,347.571v0.976h-23.313v-34.823h23.119v0.976h-22.143v15.217h20.825v0.977h-20.825v16.679H147.601z
		"/>
	<path fill="#444444" d="M167.548,323.478l-9.17,12.096l10.046,12.973h-1.219l-9.462-12.241l-9.411,12.241h-1.172l9.999-12.973
		l-9.12-12.096h1.268l8.437,11.363l8.632-11.363H167.548z"/>
	<path fill="#444444" d="M170.375,357.13v-33.652h0.976v7.023h0.099c0.324-1.105,0.795-2.122,1.414-3.048
		c0.616-0.928,1.349-1.732,2.193-2.415c0.846-0.683,1.812-1.21,2.902-1.584c1.09-0.375,2.269-0.562,3.536-0.562
		c1.659,0,3.146,0.325,4.463,0.975c1.317,0.651,2.438,1.561,3.366,2.731c0.926,1.171,1.632,2.554,2.12,4.146
		c0.488,1.594,0.731,3.334,0.731,5.219c0,1.756-0.235,3.431-0.706,5.024c-0.473,1.593-1.155,2.992-2.049,4.194
		c-0.896,1.202-2.009,2.153-3.342,2.854c-1.333,0.698-2.861,1.048-4.584,1.048c-2.666,0-4.861-0.691-6.585-2.072
		c-1.723-1.382-2.876-3.211-3.461-5.487h-0.099v15.606H170.375z M185.91,347.059c1.22-0.731,2.219-1.675,3-2.828
		c0.779-1.154,1.356-2.454,1.73-3.902c0.374-1.446,0.562-2.902,0.562-4.365c0-1.626-0.204-3.162-0.609-4.608
		c-0.407-1.447-1.009-2.731-1.806-3.854s-1.804-2.007-3.023-2.658c-1.22-0.65-2.642-0.976-4.268-0.976
		c-1.594,0-3.023,0.325-4.291,0.976c-1.27,0.651-2.334,1.529-3.195,2.634c-0.861,1.105-1.52,2.391-1.975,3.853
		c-0.456,1.464-0.684,3.008-0.684,4.634c0,3.935,0.927,6.95,2.78,9.047c1.854,2.098,4.309,3.146,7.364,3.146
		C183.218,348.157,184.69,347.791,185.91,347.059z"/>
	<path fill="#444444" d="M196.566,348.546v-25.068h0.976v6.194h0.098c0.227-0.943,0.585-1.829,1.073-2.658
		c0.486-0.83,1.137-1.553,1.95-2.171c0.812-0.617,1.781-1.105,2.902-1.462c1.121-0.359,2.431-0.521,3.926-0.488v0.975
		c-1.724-0.097-3.212,0.139-4.462,0.708c-1.252,0.568-2.284,1.35-3.097,2.34c-0.814,0.993-1.415,2.14-1.806,3.439
		c-0.39,1.301-0.585,2.634-0.585,4v14.191H196.566z"/>
	<path fill="#444444" d="M209.32,340.915c0.373,1.446,0.951,2.707,1.73,3.779c0.78,1.073,1.789,1.919,3.023,2.535
		c1.236,0.619,2.748,0.928,4.536,0.928c2.634,0,4.821-0.69,6.56-2.073c1.74-1.382,2.82-3.454,3.245-6.219h0.975
		c-0.359,2.927-1.512,5.195-3.464,6.805c-1.95,1.609-4.356,2.414-7.218,2.414c-1.95,0.032-3.617-0.276-4.998-0.927
		c-1.383-0.65-2.513-1.568-3.39-2.757c-0.878-1.185-1.53-2.583-1.951-4.194c-0.424-1.608-0.635-3.34-0.635-5.193
		c0-2.08,0.31-3.934,0.927-5.561c0.617-1.624,1.431-2.998,2.438-4.121c1.008-1.121,2.179-1.975,3.512-2.56s2.698-0.878,4.097-0.878
		c1.951,0,3.634,0.374,5.048,1.121c1.414,0.748,2.568,1.74,3.463,2.975c0.894,1.236,1.544,2.65,1.95,4.244
		c0.407,1.594,0.577,3.251,0.514,4.975H208.71C208.742,337.899,208.946,339.467,209.32,340.915z M228.073,330.867
		c-0.424-1.382-1.05-2.593-1.879-3.633c-0.828-1.04-1.861-1.862-3.097-2.464c-1.236-0.601-2.666-0.902-4.292-0.902
		c-1.365,0-2.642,0.262-3.828,0.781c-1.188,0.521-2.229,1.276-3.122,2.267c-0.895,0.993-1.618,2.188-2.17,3.586
		c-0.554,1.397-0.878,2.976-0.975,4.731h19.995C228.706,333.705,228.494,332.25,228.073,330.867z"/>
	<path fill="#444444" d="M249.337,327.672c-0.392-0.878-0.943-1.602-1.659-2.171c-0.716-0.567-1.568-0.982-2.561-1.243
		c-0.991-0.26-2.089-0.391-3.291-0.391c-1.756,0-3.139,0.236-4.146,0.708c-1.009,0.472-1.755,1.009-2.243,1.608
		c-0.488,0.603-0.797,1.196-0.927,1.781c-0.131,0.585-0.194,0.991-0.194,1.219c0,1.236,0.251,2.188,0.755,2.854
		c0.504,0.667,1.179,1.179,2.025,1.536c0.877,0.358,1.828,0.667,2.852,0.926c1.024,0.262,2.22,0.57,3.585,0.928
		c0.976,0.261,1.942,0.528,2.902,0.805c0.958,0.276,1.82,0.658,2.584,1.146c0.765,0.487,1.382,1.105,1.854,1.854
		c0.471,0.748,0.707,1.723,0.707,2.925c0,1.27-0.268,2.342-0.806,3.22c-0.536,0.878-1.235,1.594-2.097,2.146
		c-0.861,0.554-1.837,0.951-2.926,1.195c-1.09,0.244-2.17,0.366-3.243,0.366c-3.351,0-5.878-0.731-7.584-2.195
		c-1.707-1.463-2.562-3.771-2.562-6.925h0.976c0,2.828,0.788,4.9,2.365,6.218c1.577,1.316,3.846,1.976,6.805,1.976
		c0.909,0,1.845-0.105,2.804-0.317c0.959-0.211,1.829-0.553,2.61-1.023c0.779-0.471,1.422-1.081,1.926-1.829
		c0.503-0.748,0.756-1.659,0.756-2.731c0-1.105-0.253-2-0.756-2.682c-0.504-0.684-1.154-1.244-1.951-1.685
		c-0.797-0.438-1.715-0.787-2.755-1.048c-1.042-0.26-2.098-0.519-3.172-0.78c-1.202-0.292-2.259-0.568-3.17-0.828
		c-0.91-0.261-1.723-0.554-2.438-0.878c-1.04-0.456-1.804-1.09-2.292-1.902c-0.487-0.812-0.731-1.902-0.731-3.269
		c0-0.683,0.146-1.396,0.439-2.146c0.292-0.748,0.78-1.431,1.463-2.049c0.684-0.617,1.561-1.122,2.634-1.512
		c1.072-0.391,2.391-0.585,3.951-0.585c2.796,0,5.007,0.635,6.633,1.902c1.625,1.268,2.438,3.301,2.438,6.097h-0.976
		C249.922,329.623,249.727,328.55,249.337,327.672z"/>
	<path fill="#444444" d="M271.917,327.672c-0.391-0.878-0.942-1.602-1.658-2.171c-0.716-0.567-1.568-0.982-2.561-1.243
		c-0.991-0.26-2.089-0.391-3.292-0.391c-1.755,0-3.138,0.236-4.146,0.708c-1.009,0.472-1.756,1.009-2.243,1.608
		c-0.488,0.603-0.797,1.196-0.927,1.781c-0.131,0.585-0.195,0.991-0.195,1.219c0,1.236,0.252,2.188,0.755,2.854
		c0.504,0.667,1.179,1.179,2.025,1.536c0.878,0.358,1.829,0.667,2.853,0.926c1.024,0.262,2.22,0.57,3.584,0.928
		c0.977,0.261,1.943,0.528,2.903,0.805c0.958,0.276,1.82,0.658,2.584,1.146c0.764,0.487,1.382,1.105,1.854,1.854
		s0.708,1.723,0.708,2.925c0,1.27-0.269,2.342-0.806,3.22s-1.235,1.594-2.098,2.146c-0.86,0.554-1.837,0.951-2.925,1.195
		c-1.09,0.244-2.171,0.366-3.243,0.366c-3.351,0-5.878-0.731-7.584-2.195c-1.708-1.463-2.562-3.771-2.562-6.925h0.976
		c0,2.828,0.787,4.9,2.365,6.218c1.576,1.316,3.845,1.976,6.805,1.976c0.909,0,1.845-0.105,2.804-0.317
		c0.959-0.211,1.829-0.553,2.609-1.023s1.423-1.081,1.926-1.829c0.504-0.748,0.757-1.659,0.757-2.731c0-1.105-0.253-2-0.757-2.682
		c-0.503-0.684-1.153-1.244-1.95-1.685c-0.797-0.438-1.715-0.787-2.756-1.048c-1.041-0.26-2.097-0.519-3.171-0.78
		c-1.202-0.292-2.259-0.568-3.17-0.828c-0.91-0.261-1.723-0.554-2.438-0.878c-1.04-0.456-1.804-1.09-2.292-1.902
		s-0.731-1.902-0.731-3.269c0-0.683,0.146-1.396,0.439-2.146c0.292-0.748,0.78-1.431,1.463-2.049
		c0.683-0.617,1.561-1.122,2.634-1.512c1.072-0.391,2.39-0.585,3.95-0.585c2.796,0,5.007,0.635,6.634,1.902
		c1.624,1.268,2.438,3.301,2.438,6.097h-0.977C272.502,329.623,272.308,328.55,271.917,327.672z"/>
</g>
</svg>
