<?xml version="1.0" encoding="utf-8"?>
<!-- Generator: Adobe Illustrator 16.0.0, SVG Export Plug-In . SVG Version: 6.00 Build 0)  -->
<!DOCTYPE svg PUBLIC "-//W3C//DTD SVG 1.1//EN" "http://www.w3.org/Graphics/SVG/1.1/DTD/svg11.dtd">
<svg version="1.1" id="Layer_1" xmlns="http://www.w3.org/2000/svg" xmlns:xlink="http://www.w3.org/1999/xlink" x="0px" y="0px"
	 width="200px" height="200px" viewBox="99.225 235.426 200 200" enable-background="new 99.225 235.426 200 200"
	 xml:space="preserve">
<path fill="#444444" d="M225.933,372.512c-1.152-0.339-2.309-0.893-3.438-1.646c-0.99-0.659-1.75-1.765-2.257-3.284l-18.955-57.036
	c-2.2-6.604-4.415-11.019-6.768-13.493c-2.446-2.571-5.653-3.875-9.534-3.875c-3.096,0-6.041,0.379-8.753,1.126
	c-0.577,0.159-0.978,0.685-0.978,1.283v9.648c0,0.735,0.596,1.332,1.331,1.332h2.78c0.512,0,0.979-0.293,1.2-0.754l2.039-4.233
	c0.773-0.269,1.533-0.404,2.266-0.404c3.152,0,6.129,4.076,8.609,11.793l2.394,7.342l-24.191,53.612
	c-0.078,0.173-0.117,0.359-0.117,0.548v1.873c0,0.735,0.596,1.332,1.331,1.332h10.727c0.535,0,1.02-0.321,1.228-0.815l16.344-38.797
	l11.972,38.674c0.173,0.558,0.688,0.938,1.272,0.938h11.124c0.735,0,1.331-0.597,1.331-1.332v-2.554
	C226.889,373.199,226.5,372.678,225.933,372.512z"/>
</svg>
