<?xml version="1.0" encoding="utf-8"?>
<!-- Generator: Adobe Illustrator 16.0.0, SVG Export Plug-In . SVG Version: 6.00 Build 0)  -->
<!DOCTYPE svg PUBLIC "-//W3C//DTD SVG 1.1//EN" "http://www.w3.org/Graphics/SVG/1.1/DTD/svg11.dtd">
<svg version="1.1" id="Layer_1" xmlns="http://www.w3.org/2000/svg" xmlns:xlink="http://www.w3.org/1999/xlink" x="0px" y="0px"
	 width="200px" height="200px" viewBox="99.225 235.426 200 200" enable-background="new 99.225 235.426 200 200"
	 xml:space="preserve">
<g id="hsP39i.tif">
	<g>
		<path fill="#444444" d="M266.544,334.789c0,0.744,0,1.488,0,2.233c-1.153,1.867-2.002,4.037-3.507,5.556
			c-16.372,16.521-32.788,32.999-49.337,49.342c-3.981,3.932-7.173,8.909-12.88,10.826c-0.745,0-1.489,0-2.233,0
			c-1.575-0.84-3.38-1.42-4.677-2.572c-3.014-2.678-5.793-5.621-8.648-8.475c-13.941-13.932-27.938-27.809-41.774-41.842
			c-3.941-3.997-8.849-7.239-10.944-12.835c0-0.958,0-1.915,0-2.872c1.162-1.806,2.054-3.877,3.529-5.374
			c11.005-11.166,22.125-22.22,33.213-33.305c1.937-1.937,3.892-3.854,5.86-5.804c0.471,0.417,0.803,0.681,1.1,0.978
			c4.246,4.249,8.467,8.524,12.75,12.735c0.829,0.814,1.004,1.55,0.741,2.667c-1.069,4.536,0.663,8.854,4.603,11.3
			c1.064,0.66,1.396,1.349,1.392,2.54c-0.039,10.687-0.059,21.373,0.013,32.06c0.012,1.784-0.354,2.958-1.979,4.021
			c-3.749,2.452-5.232,7.19-3.912,11.399c1.384,4.414,5.458,7.384,10.1,7.362c4.509-0.021,8.446-2.998,9.858-7.454
			c1.319-4.16-0.259-8.828-3.946-11.394c-0.936-0.65-1.309-1.366-1.306-2.499c0.034-10.687,0.018-21.374,0.025-32.061
			c0.001-0.547,0.092-1.094,0.164-1.895c0.523,0.44,0.815,0.651,1.067,0.902c3.688,3.678,7.348,7.387,11.077,11.023
			c0.832,0.812,0.995,1.545,0.725,2.653c-1.11,4.548,0.947,9.241,4.917,11.456c4.233,2.362,8.974,1.737,12.483-1.646
			c3.219-3.103,4.044-8.036,2.015-12.039c-2.13-4.2-6.705-6.506-11.301-5.559c-1.105,0.228-1.807-0.061-2.533-0.793
			c-4.04-4.074-8.072-8.156-12.174-12.168c-0.935-0.914-1.209-1.733-0.961-3.05c1.312-6.983-5.093-13.274-12.075-11.877
			c-1.146,0.229-1.867-0.033-2.64-0.825c-2.858-2.928-5.773-5.801-8.66-8.701c-1.748-1.756-3.482-3.524-5.556-5.623
			c1.46-1.298,2.752-2.477,4.077-3.618c4.22-3.638,7.2-8.735,12.739-10.819c0.957,0,1.914,0,2.872,0
			c1.886,1.231,4.048,2.184,5.615,3.736c16.863,16.718,33.678,33.487,50.393,50.353
			C260.439,326.477,264.981,329.449,266.544,334.789z"/>
	</g>
</g>
</svg>
