<?xml version="1.0" encoding="utf-8"?>
<!-- Generator: Adobe Illustrator 16.0.0, SVG Export Plug-In . SVG Version: 6.00 Build 0)  -->
<!DOCTYPE svg PUBLIC "-//W3C//DTD SVG 1.1//EN" "http://www.w3.org/Graphics/SVG/1.1/DTD/svg11.dtd">
<svg version="1.1" id="Layer_1" xmlns="http://www.w3.org/2000/svg" xmlns:xlink="http://www.w3.org/1999/xlink" x="0px" y="0px"
	 width="200px" height="200px" viewBox="99.225 235.426 200 200" enable-background="new 99.225 235.426 200 200"
	 xml:space="preserve">
<g id="X3Un1V.tif">
	<g>
		<path fill-rule="evenodd" clip-rule="evenodd" fill="#444444" d="M156.063,293.042c4.348-2.715,9.326-3.022,14.201-3.604
			c10.407-1.243,20.864-1.399,31.329-1.087c1.452,0.043,2.09-0.405,2.431-1.813c1.068-4.42,2.23-8.817,3.427-13.204
			c0.211-0.773,0.623-1.581,1.168-2.161c6.127-6.519,12.301-12.992,18.452-19.488c0.719-0.76,1.52-1.701,2.547-0.88
			c1.226,0.98,2.242,2.24,3.219,3.481c0.11,0.14-0.567,0.999-0.978,1.434c-5.671,6.021-11.38,12.005-17.018,18.057
			c-0.687,0.736-1.196,1.761-1.467,2.74c-0.942,3.407-1.747,6.853-2.593,10.286c-0.131,0.531-0.205,1.076-0.336,1.775
			c2.955,0.29,5.746,0.471,8.508,0.86c3.332,0.47,6.647,1.075,9.952,1.712c0.978,0.188,1.943,0.593,2.829,1.059
			c1.343,0.707,1.384,1.796-0.031,2.296c-2.474,0.874-5.02,1.678-7.602,2.089c-14.009,2.229-28.136,2.218-42.243,1.624
			c-6.6-0.277-13.179-1.315-19.729-2.272c-2.086-0.306-4.048-1.462-6.066-2.229C156.063,293.493,156.063,293.267,156.063,293.042z
			 M205.36,296.611c1.344-0.271,2.613-0.461,3.835-0.815c0.35-0.102,0.562-0.676,0.838-1.033c-0.461-0.041-0.921-0.111-1.382-0.119
			c-2.181-0.035-4.362-0.059-6.543-0.074c-0.418-0.003-0.838,0.052-1.257,0.079c0.211,0.381,0.347,1.013,0.644,1.101
			C202.767,296.125,204.086,296.342,205.36,296.611z"/>
		<path fill-rule="evenodd" clip-rule="evenodd" fill="#444444" d="M227.002,346.722c-0.417,3.798-0.76,7.09-1.142,10.376
			c-0.74,6.361-1.553,12.715-2.215,19.084c-0.147,1.409-0.754,2.229-1.983,2.553c-4.442,1.169-8.857,2.523-13.368,3.325
			c-7.509,1.332-15.117,1.396-22.707,0.695c-6.049-0.56-12.036-1.491-17.785-3.601c-1.833-0.672-2.86-1.508-3.02-3.793
			c-0.532-7.621-1.427-15.216-2.176-22.822c-0.021-0.214,0.025-0.435,0.052-0.816c4.736,1.209,7.521-1.994,10.848-4.834
			c-0.187,0.773-0.288,1.263-0.423,1.742c-0.442,1.567-0.939,3.12-1.332,4.699c-0.308,1.24-0.77,2.838,0.854,3.299
			c1.498,0.426,2.062-1.114,2.438-2.268c1.894-5.82,3.728-11.659,5.552-17.501c0.232-0.744,0.333-1.539,0.411-2.319
			c0.103-1.03-0.154-2.162-1.283-2.188c-0.747-0.017-1.838,0.646-2.201,1.314c-0.742,1.363-1.02,2.968-1.624,4.417
			c-1.685,4.043-4.622,7.013-8.341,9.197c-1.517,0.891-2.834,0.136-2.906-1.69c-0.071-1.776-0.006-3.626,0.415-5.341
			c1.234-5.031,3.546-9.582,6.784-13.634c0.731-0.916,1.587-1.763,2.499-2.5c2.56-2.068,4.32-1.724,6.03,1.081
			c0.029,0.048,0.057,0.098,0.09,0.143c0.673,0.906,1.089,2.307,2.667,1.657c1.134-0.466,1.464-2.296,0.771-3.75
			c-1.762-3.693-6.06-5.461-9.651-3.525c-2.271,1.224-4.357,2.991-6.139,4.882c-3.153,3.347-5.079,7.505-7.021,11.772
			c-1.427-13.123-2.854-26.245-4.249-39.084c25.141,4.695,50.195,4.643,75.458,0.059c-0.115,1.442-0.214,3.214-0.402,4.975
			c-1.104,10.336-2.23,20.67-3.348,31.005c-0.235,2.179-0.46,4.359-0.696,6.538c-0.143,1.313-0.525,2.436-1.709,3.29
			c-1.685,1.216-3.211,2.647-4.85,3.931c-0.538,0.422-1.213,0.669-1.826,0.995c-0.117-0.117-0.234-0.234-0.353-0.351
			c0.347-0.506,0.683-1.019,1.041-1.516c1.51-2.092,3.108-4.125,4.508-6.288c0.822-1.272,1.122-2.778-0.116-4.051
			c-1.239-1.273-2.856-1.465-4.37-0.783c-1.559,0.701-2.956,1.761-4.519,2.721c-0.02-0.241,0.047-0.595-0.089-0.835
			c-0.28-0.497-0.595-1.199-1.032-1.32c-0.449-0.124-1.29,0.19-1.56,0.585c-0.654,0.961-1.268,2.031-1.551,3.146
			c-0.458,1.798-1.464,3.123-2.854,4.235c-1.317,1.053-2.613,2.136-3.986,3.109c-0.533,0.377-1.252,0.491-1.887,0.725
			c-0.123-0.12-0.246-0.24-0.369-0.361c0.309-0.987,0.548-2.003,0.937-2.958c2.539-6.247,5.103-12.484,7.678-18.717
			c0.875-2.118,0.782-3.202-0.406-3.68c-1.253-0.503-2.394,0.285-3.166,2.257c-2.769,7.062-5.438,14.164-8.364,21.16
			c-0.451,1.08-1.954,1.86-3.136,2.446c-0.888,0.44-1.357-0.322-1.087-1.23c0.526-1.772,1.096-3.535,1.71-5.279
			c0.448-1.271,1.203-2.471,1.421-3.769c0.125-0.747-0.319-1.983-0.915-2.367c-0.968-0.623-1.777,0.211-2.211,1.165
			c-0.929,2.043-1.639,4.213-2.787,6.12c-0.993,1.65-2.389,3.091-3.773,4.453c-0.456,0.448-1.437,0.362-2.177,0.521
			c-0.068-0.678-0.363-1.433-0.163-2.019c0.687-2.012,1.533-3.969,2.35-5.934c0.28-0.673,0.847-1.283,0.931-1.965
			c0.087-0.715-0.048-1.951-0.444-2.121c-0.665-0.284-2.095-0.201-2.369,0.243c-2.555,4.129-4.615,8.521-4.913,13.444
			c-0.116,1.916,1.548,2.982,3.646,2.836c2.25-0.156,4.06-1.212,5.568-2.841c0.291-0.314,0.588-0.623,0.961-1.019
			c0.016,3.764,1.221,5.334,6.839,2.053c2.452,2.745,4.396,2.466,9.57-1.608c-1.23,2.675-2.314,4.96-3.335,7.274
			c-0.61,1.386-1.286,2.779-1.607,4.24c-0.154,0.699,0.266,2.058,0.749,2.234c0.693,0.254,1.88-0.062,2.491-0.572
			c0.673-0.561,1-1.589,1.361-2.462c1.634-3.944,2.996-8.021,4.913-11.819c1.292-2.558,3.236-4.824,5.115-7.027
			c0.682-0.799,2.021-1.037,3.061-1.531c0.157,0.199,0.314,0.399,0.472,0.599c-0.447,0.726-0.843,1.489-1.352,2.168
			c-1.384,1.844-2.859,3.619-4.212,5.485c-0.771,1.063-1.394,2.293-0.517,3.588c0.915,1.353,2.394,1.595,3.769,1.137
			c1.675-0.558,3.28-1.388,4.813-2.277C224.8,348.724,225.667,347.815,227.002,346.722z"/>
		<path fill-rule="evenodd" clip-rule="evenodd" fill="#444444" d="M167.274,381.437c18.142,5.181,35.954,5.207,54.028-0.039
			c-1.098,1.939-2.227,3.715-3.125,5.6c-0.613,1.283-1.195,2.7-1.291,4.092c-0.477,6.895-0.781,13.801-1.159,20.702
			c-0.07,1.29,0.001,2.638-0.367,3.844c-0.259,0.848-1.011,1.883-1.788,2.172c-2.508,0.934-5.086,1.839-7.716,2.257
			c-8.843,1.403-17.681,1.314-26.436-0.793c-0.869-0.21-1.714-0.531-2.561-0.83c-2.105-0.741-3.131-2.002-3.25-4.469
			c-0.38-7.853-1.061-15.69-1.683-23.529c-0.063-0.802-0.407-1.631-0.802-2.348C169.939,385.934,168.662,383.821,167.274,381.437z"
			/>
		<path fill-rule="evenodd" clip-rule="evenodd" fill="#444444" d="M205.36,296.611c-1.273-0.269-2.593-0.485-3.865-0.862
			c-0.297-0.088-0.433-0.72-0.644-1.101c0.419-0.027,0.839-0.082,1.257-0.079c2.181,0.016,4.362,0.039,6.543,0.074
			c0.461,0.008,0.921,0.078,1.382,0.119c-0.275,0.357-0.488,0.932-0.838,1.033C207.973,296.15,206.704,296.34,205.36,296.611z"/>
	</g>
</g>
</svg>
