<?xml version="1.0" encoding="utf-8"?>
<!-- Generator: Adobe Illustrator 16.0.0, SVG Export Plug-In . SVG Version: 6.00 Build 0)  -->
<!DOCTYPE svg PUBLIC "-//W3C//DTD SVG 1.1//EN" "http://www.w3.org/Graphics/SVG/1.1/DTD/svg11.dtd">
<svg version="1.1" id="Layer_1" xmlns="http://www.w3.org/2000/svg" xmlns:xlink="http://www.w3.org/1999/xlink" x="0px" y="0px"
	 width="200px" height="200px" viewBox="99.225 235.426 200 200" enable-background="new 99.225 235.426 200 200"
	 xml:space="preserve">
<g>
	<g>
		<polygon fill="#3C3C3B" points="181.855,338.958 199.225,338.958 199.225,325.516 180.656,325.516 		"/>
		<path fill="#3C3C3B" d="M146.799,290.512l9.542,107.027l42.819,11.887l42.938-11.904l9.552-107.01H146.799z M233.92,390.708
			l-34.695,9.618v-13.621l-0.061,0.017l-26.889-7.464l-1.839-20.611h6.073h7.104l0.935,10.469l14.619,3.948l0.058-0.017v-20.964
			H169.85l-3.226-36.172l-0.314-3.522h32.869h0.046v-13.126h42.859L233.92,390.708z"/>
	</g>
	<g>
		<path fill="#3C3C3B" d="M156.554,261.426h6.671v6.591h6.103v-6.591h6.671v19.958h-6.671v-6.683h-6.102v6.683h-6.672V261.426
			L156.554,261.426z"/>
		<path fill="#3C3C3B" d="M184.77,268.045h-5.873v-6.619h18.42v6.619h-5.876v13.34h-6.67L184.77,268.045L184.77,268.045z"/>
		<path fill="#3C3C3B" d="M200.24,261.426h6.956l4.278,7.013l4.275-7.013h6.958v19.958h-6.644v-9.892l-4.59,7.096h-0.114
			l-4.593-7.096v9.892h-6.527V261.426L200.24,261.426z"/>
		<path fill="#3C3C3B" d="M226.027,261.426h6.673v13.361h9.381v6.597h-16.055L226.027,261.426L226.027,261.426z"/>
	</g>
	<polygon fill="#3C3C3B" points="199.179,338.958 199.179,352.084 215.343,352.084 213.82,369.108 199.179,373.06 199.179,386.716 
		226.089,379.258 226.287,377.041 229.372,342.483 229.691,338.958 226.155,338.958 	"/>
	<polygon fill="#3C3C3B" points="199.179,312.389 199.179,320.542 199.179,325.485 199.179,325.516 230.843,325.516 
		230.843,325.516 230.886,325.516 231.149,322.566 231.748,315.912 232.061,312.389 	"/>
</g>
</svg>
