<?xml version="1.0" encoding="utf-8"?>
<!-- Generator: Adobe Illustrator 16.0.0, SVG Export Plug-In . SVG Version: 6.00 Build 0)  -->
<!DOCTYPE svg PUBLIC "-//W3C//DTD SVG 1.1//EN" "http://www.w3.org/Graphics/SVG/1.1/DTD/svg11.dtd">
<svg version="1.1" id="Layer_1" xmlns="http://www.w3.org/2000/svg" xmlns:xlink="http://www.w3.org/1999/xlink" x="0px" y="0px"
	 width="200px" height="200px" viewBox="99.225 235.426 200 200" enable-background="new 99.225 235.426 200 200"
	 xml:space="preserve">
<g id="k9x5T6.tif">
	<path fill-rule="evenodd" clip-rule="evenodd" fill="#444444" d="M256.971,347.807c3.64,0,6.592,0,10.611,0
		c-1.538,5.382-2.766,10.147-4.343,14.797c-0.304,0.904-1.965,1.92-2.999,1.92c-15.754-0.01-31.573,0.665-47.248-0.518
		c-21.081-1.592-29.11-11.443-27.407-32.576c1.249-15.468,5.712-29.943,17.339-41.236c12.28-11.93,36.27-15.046,51.136-6.604
		c10.024,5.695,16.002,18.539,13.39,31.259c-1.807,8.798-5.069,17.3-7.756,25.909C259.009,342.952,258.044,345.056,256.971,347.807z
		 M227.196,347.391c0.015-0.128,0.03-0.257,0.045-0.384c2.681,0,5.415,0.319,8.019-0.127c1.432-0.248,3.437-1.541,3.825-2.784
		c3.024-9.735,6.169-19.473,8.387-29.408c2.141-9.609-5.163-18.198-14.996-18.243c-8.628-0.04-15.793,3.343-19.946,11.193
		c-4.537,8.579-6.425,17.943-6.104,27.627c0.191,5.865,3.012,9.231,8.882,10.615C219.171,346.795,223.224,346.917,227.196,347.391z"
		/>
	<path fill-rule="evenodd" clip-rule="evenodd" fill="#444444" d="M130.388,392.027c1.738-6.592,3.175-12.053,4.59-17.432
		c10.324-1.237,12.991-3.513,15.37-13.571c3.005-12.712,5.834-25.468,8.767-38.198c0.37-1.607,0.904-3.179,1.386-4.851
		c5.92,0,11.584,0,18.182,0c-0.822,4.479-1.438,8.669-2.376,12.785c-3.245,14.203-6.347,28.446-9.983,42.551
		c-3.72,14.417-9.635,18.682-24.403,18.716C138.417,392.035,134.917,392.027,130.388,392.027z"/>
	<path fill-rule="evenodd" clip-rule="evenodd" fill="#444444" d="M183.737,297.033c-1.268,5.856-2.355,10.879-3.463,16.004
		c-6.397,0-12.399,0-19.077,0c1.169-4.902,2.142-9.573,3.491-14.135c0.254-0.851,1.991-1.742,3.077-1.783
		C172.756,296.927,177.759,297.033,183.737,297.033z"/>
</g>
</svg>
