<?xml version="1.0" encoding="utf-8"?>
<!-- Generator: Adobe Illustrator 16.0.0, SVG Export Plug-In . SVG Version: 6.00 Build 0)  -->
<!DOCTYPE svg PUBLIC "-//W3C//DTD SVG 1.1//EN" "http://www.w3.org/Graphics/SVG/1.1/DTD/svg11.dtd">
<svg version="1.1" id="Layer_1" xmlns="http://www.w3.org/2000/svg" xmlns:xlink="http://www.w3.org/1999/xlink" x="0px" y="0px"
	 width="200px" height="200px" viewBox="450.5 1025.5 200 200" enable-background="new 450.5 1025.5 200 200" xml:space="preserve">
<path fill="#444444" d="M450.5,1025.5v200.033h200.033V1025.5H450.5z M559.357,1181.516c0,19.47-11.413,28.332-28.064,28.332
	c-15.036,0-23.765-7.787-28.196-17.186h-0.001v-0.002c0.001,0.001,0.001,0.002,0.001,0.002l15.308-9.265
	c2.953,5.236,5.64,9.667,12.083,9.667c6.177,0,10.071-2.416,10.071-11.814v-63.915h18.799V1181.516z M603.807,1209.85
	c-17.455,0-28.735-8.325-34.239-19.201l15.306-8.862c4.029,6.58,9.266,11.414,18.53,11.414c7.79,0,12.757-3.895,12.757-9.266
	c0-6.445-5.103-8.728-13.696-12.486l-4.698-2.016c-13.562-5.772-22.56-13.023-22.56-28.331c0-14.099,10.742-24.842,27.526-24.842
	c11.951,0,20.545,4.163,26.721,15.04l-14.637,9.398c-3.223-5.772-6.713-8.056-12.084-8.056c-5.505,0-8.996,3.491-8.996,8.056
	c0,5.64,3.491,7.923,11.547,11.414l4.7,2.014c15.979,6.849,24.975,13.83,24.975,29.539
	C634.958,1200.585,621.665,1209.85,603.807,1209.85z"/>
</svg>
