<?xml version="1.0" encoding="utf-8"?>
<!-- Generator: Adobe Illustrator 16.0.0, SVG Export Plug-In . SVG Version: 6.00 Build 0)  -->
<!DOCTYPE svg PUBLIC "-//W3C//DTD SVG 1.1//EN" "http://www.w3.org/Graphics/SVG/1.1/DTD/svg11.dtd">
<svg version="1.1" id="Layer_1" xmlns="http://www.w3.org/2000/svg" xmlns:xlink="http://www.w3.org/1999/xlink" x="0px" y="0px"
	 width="200px" height="200px" viewBox="50.5 125.5 200 200" enable-background="new 50.5 125.5 200 200" xml:space="preserve">
<g>
	<path fill="#444444" d="M192.19,220.275c0-3.981-0.001-6.96,0.004-9.939c0-0.398-0.067-0.783-0.166-1.168
		c-0.155-0.59-0.547-0.959-1.102-1.148c-0.37-0.127-0.76-0.221-1.146-0.291c-0.635-0.113-1.276-0.198-1.915-0.294
		c-0.03-0.006-0.065-0.008-0.095-0.014c-0.093-0.024-0.136-0.095-0.109-0.179c0.065-0.195,0.13-0.392,0.221-0.573
		c0.142-0.282,0.305-0.554,0.466-0.828c0.085-0.146,0.213-0.227,0.391-0.216c0.63,0.036,1.266-0.056,1.895,0.08
		c0.104,0.021,0.22,0.011,0.331,0.011c2.17,0,4.342,0,6.511,0c1.802-0.155,3.607-0.062,5.41-0.089
		c0.332-0.005,0.668-0.025,0.998,0.013c0.549,0.06,1.101,0.085,1.647,0.154c0.707,0.092,1.403,0.229,2.089,0.412
		c1.43,0.379,2.781,0.95,4.017,1.776c0.513,0.344,0.997,0.722,1.438,1.158c0.702,0.69,1.385,1.396,1.92,2.227
		c0.729,1.137,1.296,2.348,1.659,3.658c0.187,0.672,0.313,1.354,0.424,2.037c0.079,0.467,0.096,0.943,0.114,1.415
		c0.02,0.459,0.004,0.919,0.003,1.379c0,0.586-0.095,1.163-0.157,1.742c-0.06,0.55-0.17,1.092-0.299,1.628
		c-0.189,0.784-0.453,1.545-0.77,2.289c-0.455,1.072-1.076,2.041-1.799,2.946c-0.596,0.742-1.281,1.395-2.036,1.979
		c-0.801,0.623-1.637,1.189-2.534,1.661c-1.199,0.628-2.465,1.067-3.777,1.382c-0.739,0.177-1.483,0.297-2.233,0.399
		c-0.849,0.113-1.697,0.189-2.552,0.183c-0.221-0.002-0.44,0.029-0.659,0.054c-0.488,0.048-0.982,0.054-1.47-0.007
		c-0.19-0.025-0.374-0.047-0.563-0.047c-2.157-0.007-4.312-0.012-6.465-0.019c-0.206,0-0.409,0.002-0.613-0.053
		c-0.136-0.036-0.284-0.023-0.426-0.024c-0.617-0.004-1.236-0.005-1.854-0.007c-0.11,0-0.222-0.001-0.332-0.008
		c-0.113-0.007-0.165-0.079-0.174-0.187c-0.002-0.032-0.002-0.064-0.004-0.096c-0.016-0.442,0.152-0.835,0.348-1.217
		c0.144-0.282,0.427-0.371,0.72-0.386c0.255-0.015,0.501-0.057,0.749-0.096c0.304-0.051,0.575-0.167,0.85-0.288
		c0.478-0.208,0.749-0.579,0.84-1.076c0.061-0.322,0.104-0.651,0.123-0.984C192.298,226.175,192.14,222.723,192.19,220.275z
		 M199.658,207.717L199.658,207.717c-0.33,0-0.666,0-0.998,0c-0.332-0.002-0.66,0.024-0.989,0.093
		c-0.617,0.127-0.9,0.442-0.911,1.079c-0.012,0.551-0.007,1.107-0.013,1.66c-0.002,0.144,0.013,0.291-0.024,0.427
		c-0.054,0.202-0.052,0.407-0.052,0.612c-0.002,1.521-0.014,3.042-0.004,4.562c0.021,4.021-0.068,8.044,0.085,12.064
		c0.015,0.362,0.009,0.723,0.087,1.084c0.182,0.815,0.577,1.443,1.357,1.83c0.956,0.47,1.976,0.648,3.018,0.732
		c0.409,0.032,0.824,0.005,1.238,0.016c0.759,0.019,1.513-0.044,2.26-0.199c0.953-0.202,1.852-0.549,2.671-1.072
		c0.857-0.546,1.633-1.186,2.28-1.979c0.801-0.98,1.417-2.054,1.848-3.241c0.495-1.378,0.732-2.811,0.819-4.261
		c0.071-1.199,0.051-2.401-0.154-3.598c-0.12-0.699-0.26-1.394-0.471-2.074c-0.262-0.848-0.617-1.659-1.079-2.419
		c-0.397-0.646-0.847-1.258-1.374-1.81c-0.463-0.48-0.968-0.909-1.504-1.304c-1.019-0.744-2.143-1.287-3.357-1.621
		c-0.654-0.182-1.312-0.337-1.993-0.415c-0.657-0.073-1.312-0.177-1.979-0.169C200.165,207.72,199.912,207.717,199.658,207.717z"/>
	<path fill="#444444" d="M230.542,234.141c-0.46,0-0.92,0.003-1.38,0c-0.329-0.003-0.658-0.006-0.992-0.06
		c-0.322-0.052-0.662-0.021-0.994-0.023c-0.618-0.003-1.238-0.005-1.854-0.012c-0.317-0.003-0.633,0.019-0.945-0.064
		c-0.119-0.031-0.253-0.013-0.38-0.013c-1.091-0.003-2.185-0.003-3.277-0.006c-0.466-0.004-0.528-0.095-0.411-0.538
		c0.098-0.37,0.255-0.715,0.434-1.049c0.07-0.133,0.154-0.224,0.322-0.238c0.251-0.023,0.497-0.079,0.751-0.089
		c0.235-0.01,0.474-0.055,0.701-0.11c0.275-0.065,0.547-0.158,0.819-0.236c0.473-0.135,0.766-0.441,0.859-0.916
		c0.062-0.309,0.116-0.619,0.144-0.936c0.166-1.928,0.076-3.861,0.09-5.789c0.019-2.617,0.003-5.23,0.005-7.845
		c0-0.235-0.011-0.474,0.058-0.707c0.034-0.118,0.019-0.252,0.019-0.377c0.002-1.522,0.008-3.041-0.004-4.562
		c-0.002-0.458-0.028-0.917-0.097-1.369c-0.103-0.711-0.521-1.183-1.218-1.359c-0.411-0.104-0.838-0.148-1.26-0.213
		c-0.468-0.07-0.937-0.13-1.404-0.2c-0.156-0.022-0.194-0.07-0.2-0.214c-0.004-0.145-0.013-0.289,0.052-0.422
		c0.152-0.313,0.306-0.627,0.468-0.934c0.089-0.167,0.233-0.251,0.431-0.234c0.314,0.026,0.632-0.018,0.946,0.062
		c0.163,0.044,0.347,0.029,0.52,0.029c2.613,0.001,5.228,0.001,7.842,0.001c0.332,0,0.666-0.001,0.998-0.005
		c0.283-0.003,0.567,0.023,0.848-0.062c0.089-0.029,0.19-0.015,0.284-0.017c0.204-0.001,0.416,0.012,0.618-0.002
		c0.728-0.047,1.456,0.042,2.178,0.11c1.342,0.127,2.642,0.454,3.841,1.117c1.191,0.661,2.074,1.598,2.601,2.855
		c0.19,0.451,0.305,0.931,0.353,1.422c0.031,0.314,0.085,0.621,0.091,0.942c0.02,1.231-0.361,2.337-1.054,3.336
		c-0.559,0.802-1.285,1.433-2.129,1.925c-0.313,0.185-0.618,0.387-0.968,0.502c-0.035,0.012-0.081,0.07-0.079,0.104
		c0.003,0.034,0.049,0.083,0.089,0.098c0.085,0.039,0.177,0.07,0.269,0.09c0.452,0.098,0.877,0.264,1.301,0.436
		c0.812,0.325,1.585,0.735,2.265,1.285c1.11,0.895,1.925,2.011,2.263,3.422c0.072,0.304,0.155,0.612,0.139,0.936
		c-0.006,0.109,0.024,0.219,0.037,0.328c0.014,0.126,0.045,0.251,0.039,0.375c-0.065,1.255-0.222,2.489-0.84,3.612
		c-0.499,0.909-1.116,1.712-1.918,2.387c-0.772,0.649-1.606,1.181-2.501,1.627c-1.192,0.596-2.449,1.009-3.77,1.24
		c-0.559,0.099-1.12,0.201-1.684,0.245c-0.565,0.041-1.131,0.117-1.701,0.119c-0.54,0.001-1.077,0-1.614,0
		C230.542,234.146,230.542,234.144,230.542,234.141z M233.487,231.865c0,0.005,0,0.008,0,0.013c0.079,0,0.157,0,0.237-0.001
		c0.364-0.006,0.733,0.025,1.091-0.027c0.769-0.115,1.509-0.33,2.202-0.707c0.679-0.371,1.239-0.857,1.687-1.489
		c0.609-0.863,0.921-1.838,1.009-2.873c0.089-1.026,0.009-2.045-0.346-3.039c-0.355-0.995-0.989-1.762-1.795-2.396
		c-0.729-0.572-1.585-0.918-2.476-1.162c-0.548-0.148-1.102-0.262-1.672-0.317c-0.313-0.03-0.627-0.085-0.942-0.069
		c-0.337,0.014-0.656-0.096-0.99-0.089c-0.523,0.013-1.048,0.014-1.567,0c-0.275-0.008-0.532,0.069-0.799,0.102
		c-0.152,0.017-0.219,0.105-0.234,0.255c-0.011,0.095-0.005,0.19-0.009,0.286c-0.004,0.235,0.015,0.477-0.026,0.711
		c-0.033,0.188-0.049,0.375-0.049,0.562c0,1.251,0,2.505,0,3.754c0,0.129-0.019,0.261,0.014,0.378
		c0.08,0.282,0.06,0.565,0.062,0.851c0.006,0.662,0.02,1.331,0.012,1.994c-0.008,0.717,0.174,1.38,0.552,1.984
		c0.281,0.449,0.646,0.805,1.181,0.973c0.593,0.188,1.202,0.257,1.816,0.305C232.787,231.888,233.139,231.865,233.487,231.865z
		 M228.901,213.049c-0.007,0-0.013,0-0.021,0c0,1.346,0,2.688,0.002,4.034c0,0.096,0,0.189,0.01,0.286
		c0.012,0.123,0.08,0.218,0.202,0.229c0.269,0.022,0.524,0.101,0.798,0.1c1.044-0.005,2.091-0.003,3.135,0.009
		c0.619,0.008,1.229-0.086,1.828-0.213c0.908-0.188,1.61-0.697,2.148-1.45c0.544-0.762,0.739-1.639,0.811-2.539
		c0.065-0.84-0.067-1.669-0.357-2.468c-0.24-0.668-0.619-1.25-1.146-1.716c-0.651-0.57-1.415-0.945-2.256-1.165
		c-0.827-0.215-1.66-0.369-2.522-0.35c-0.569,0.013-1.138,0.008-1.709,0.012c-0.093,0.001-0.19,0.001-0.284,0.01
		c-0.185,0.02-0.322,0.106-0.413,0.276c-0.152,0.286-0.228,0.584-0.227,0.909C228.905,210.355,228.901,211.701,228.901,213.049z"/>
	<path fill="#444444" d="M90.817,232.568c0.065,0.462-0.047,0.906-0.163,1.35c-0.032,0.133-0.124,0.172-0.249,0.168
		c-0.506-0.021-1.012-0.026-1.518-0.065c-0.649-0.054-1.298-0.062-1.946-0.064c-1.045-0.006-2.092-0.003-3.136,0.016
		c-0.649,0.012-1.297,0.053-1.944,0.083c-0.079,0.002-0.159,0.008-0.238,0.008c-0.241-0.002-0.265-0.02-0.283-0.273
		c-0.026-0.348-0.052-0.694-0.013-1.045c0.018-0.153,0.091-0.218,0.232-0.248c0.356-0.079,0.71-0.158,1.063-0.246
		c0.154-0.036,0.306-0.088,0.453-0.144c0.494-0.178,0.777-0.532,0.834-1.054c0.038-0.328,0.065-0.663,0.078-0.993
		c0.018-0.412,0.017-0.824,0.019-1.237c0.008-1.218,0.03-2.438,0.017-3.658c-0.014-1.093,0.005-2.186-0.111-3.273
		c-0.111-1.042-0.488-1.96-1.243-2.704c-0.56-0.547-1.238-0.864-2.002-1.015c-0.746-0.146-1.48-0.089-2.21,0.1
		c-0.96,0.253-1.832,0.688-2.644,1.254c-0.254,0.176-0.342,0.384-0.289,0.688c0.14,0.799,0.14,1.606,0.137,2.414
		c-0.005,2.169-0.013,4.341-0.017,6.512c-0.001,0.552,0.012,1.107,0.02,1.66c0.008,0.856,0.417,1.149,1.042,1.332
		c0.439,0.129,0.894,0.207,1.341,0.31c0.046,0.01,0.095,0.011,0.143,0.021c0.376,0.074,0.38,0.083,0.392,0.456
		c0.011,0.336-0.031,0.664-0.137,0.982c-0.035,0.114-0.108,0.182-0.244,0.179c-1.027-0.029-2.056-0.074-3.084-0.082
		c-0.902-0.008-1.804-0.028-2.707,0.021c-0.728,0.038-1.458,0.03-2.187,0.042c-0.299,0.006-0.6,0.021-0.899,0.022
		c-0.214,0.003-0.252-0.026-0.295-0.229c-0.08-0.359-0.083-0.722-0.011-1.082c0.028-0.147,0.104-0.249,0.277-0.275
		c0.452-0.074,0.904-0.159,1.352-0.254c0.188-0.036,0.369-0.093,0.547-0.161c0.333-0.125,0.545-0.367,0.65-0.707
		c0.057-0.183,0.076-0.369,0.093-0.559c0.08-0.884,0.088-1.772,0.11-2.656c0.021-0.965,0.038-1.933,0.033-2.896
		c-0.006-0.935-0.03-1.869-0.072-2.801c-0.037-0.896-0.233-1.755-0.652-2.555c-0.617-1.182-1.596-1.802-2.909-1.931
		c-0.909-0.085-1.766,0.098-2.603,0.424c-0.635,0.249-1.227,0.584-1.793,0.964c-0.392,0.263-0.574,0.621-0.594,1.077
		c-0.006,0.126-0.003,0.253-0.003,0.378c0,2.631-0.003,5.26,0.002,7.891c0.001,0.665,0.021,1.329,0.035,1.995
		c0.002,0.125,0.024,0.25,0.038,0.374c0.07,0.591,0.411,0.937,0.968,1.098c0.428,0.123,0.868,0.178,1.304,0.259
		c0.126,0.023,0.249,0.045,0.375,0.07c0.083,0.017,0.145,0.065,0.15,0.156c0.024,0.41,0.038,0.821-0.073,1.226
		c-0.046,0.167-0.087,0.199-0.273,0.193c-0.617-0.019-1.233-0.025-1.85-0.065c-1.187-0.079-2.375-0.08-3.562-0.059
		c-1.123,0.021-2.246,0.082-3.369,0.124c-0.062,0.004-0.127,0.004-0.189,0c-0.103-0.003-0.18-0.04-0.211-0.149
		c-0.117-0.405-0.117-0.813-0.023-1.223c0.028-0.125,0.105-0.179,0.229-0.202c0.436-0.084,0.87-0.164,1.304-0.261
		c0.201-0.042,0.399-0.102,0.591-0.172c0.399-0.144,0.649-0.427,0.771-0.837c0.07-0.247,0.085-0.498,0.104-0.75
		c0.058-0.821,0.066-1.646,0.08-2.466c0.028-1.695,0.068-3.389,0.051-5.084c-0.008-0.949-0.021-1.898-0.035-2.848
		c-0.001-0.096-0.011-0.193-0.019-0.285c-0.027-0.376-0.201-0.658-0.52-0.856c-0.433-0.27-0.889-0.485-1.363-0.666
		c-0.295-0.111-0.598-0.204-0.898-0.306c-0.168-0.055-0.33-0.114-0.465-0.228c-0.211-0.181-0.237-0.413-0.064-0.631
		c0.177-0.224,0.426-0.323,0.699-0.361c1.526-0.211,3.013-0.578,4.489-1.011c0.5-0.147,0.997-0.313,1.478-0.51
		c0.16-0.066,0.234-0.022,0.297,0.129c0.051,0.122,0.06,0.246,0.053,0.371c-0.015,0.318-0.035,0.632-0.054,0.95
		c-0.018,0.316-0.036,0.633-0.052,0.948c-0.003,0.047,0.002,0.096,0.011,0.143c0.041,0.199,0.261,0.318,0.439,0.222
		c0.138-0.072,0.26-0.172,0.387-0.268c0.939-0.708,1.934-1.32,3.01-1.801c0.622-0.277,1.258-0.517,1.931-0.64
		c1.686-0.306,3.172,0.092,4.434,1.268c0.349,0.324,0.653,0.689,0.919,1.084c0.082,0.118,0.154,0.24,0.238,0.354
		c0.181,0.249,0.292,0.262,0.549,0.069c0.884-0.672,1.811-1.279,2.797-1.791c0.816-0.426,1.655-0.798,2.566-0.974
		c2.173-0.42,4.739,0.322,6.031,2.84c0.453,0.886,0.715,1.823,0.848,2.803c0.162,1.183,0.116,2.37,0.108,3.556
		c0,0.096-0.013,0.191-0.013,0.285c-0.006,2.013-0.007,4.024-0.019,6.036c-0.003,0.321,0.108,0.585,0.305,0.824
		c0.127,0.148,0.284,0.244,0.465,0.317c0.587,0.251,1.212,0.358,1.833,0.474C90.474,232.468,90.647,232.48,90.817,232.568z"/>
	<path fill="#444444" d="M162.041,215.581c0.232,0.895,0.174,1.756-0.324,2.549c-0.327,0.52-0.859,0.729-1.441,0.817
		c-0.412,0.061-0.822,0.021-1.231-0.05c-0.077-0.013-0.151-0.035-0.229-0.048c-0.365-0.056-0.396-0.014-0.307,0.37
		c0.332,1.446,0.326,2.89-0.089,4.317c-0.346,1.191-1.035,2.159-1.983,2.952c-1.41,1.184-3.034,1.872-4.846,2.128
		c-0.376,0.055-0.756,0.09-1.134,0.102c-0.405,0.015-0.735,0.176-1.029,0.43c-0.501,0.433-0.52,1.123-0.056,1.596
		c0.231,0.231,0.518,0.364,0.822,0.456c0.397,0.119,0.807,0.156,1.217,0.186c1.374,0.104,2.746,0.192,4.121,0.317
		c0.974,0.088,1.956,0.186,2.905,0.453c1.812,0.513,2.929,1.705,3.311,3.544c0.226,1.079,0.057,2.145-0.319,3.173
		c-0.392,1.072-1.011,2.004-1.807,2.818c-1.796,1.83-3.979,2.949-6.476,3.458c-1.296,0.263-2.607,0.291-3.925,0.15
		c-0.871-0.095-1.721-0.27-2.529-0.608c-1.067-0.442-2.013-1.065-2.736-1.984c-0.599-0.762-0.994-1.61-1.132-2.576
		c-0.124-0.866,0.104-1.63,0.616-2.323c0.215-0.293,0.479-0.547,0.751-0.788c0.9-0.805,1.87-1.515,2.858-2.203
		c0.103-0.071,0.212-0.137,0.312-0.215c0.11-0.085,0.091-0.253-0.033-0.316c-0.114-0.057-0.232-0.098-0.35-0.151
		c-0.583-0.261-1.113-0.601-1.547-1.077c-0.414-0.452-0.705-0.967-0.806-1.584c-0.041-0.246,0.021-0.44,0.208-0.59
		c0.124-0.098,0.258-0.188,0.393-0.268c0.527-0.319,1.061-0.634,1.584-0.954c0.271-0.167,0.537-0.344,0.794-0.522
		c0.104-0.072,0.202-0.156,0.284-0.251c0.103-0.111,0.069-0.291-0.061-0.371c-0.081-0.05-0.173-0.078-0.259-0.115
		c-0.29-0.126-0.587-0.238-0.866-0.384c-1.644-0.853-2.616-2.211-2.973-4.011c-0.187-0.938-0.228-1.889-0.068-2.836
		c0.304-1.818,1.262-3.237,2.803-4.222c1.501-0.957,3.158-1.531,4.933-1.722c1.16-0.122,2.307,0.029,3.428,0.353
		c0.579,0.164,1.143,0.371,1.704,0.584c1.075,0.403,2.19,0.487,3.319,0.386c0.692-0.062,1.321-0.308,1.858-0.768
		C161.798,215.704,161.873,215.588,162.041,215.581z M152.504,243.059c0.619,0.008,1.233-0.046,1.843-0.161
		c0.781-0.149,1.528-0.403,2.205-0.838c1.102-0.704,1.797-1.686,1.942-2.998c0.145-1.324-0.305-2.395-1.471-3.112
		c-0.423-0.261-0.881-0.432-1.355-0.56c-1.122-0.304-2.271-0.42-3.426-0.483c-0.428-0.024-0.853-0.04-1.28-0.062
		c-1.046-0.046-2.015,0.164-2.835,0.859c-0.156,0.134-0.321,0.26-0.48,0.39c-0.333,0.273-0.615,0.594-0.856,0.951
		c-0.289,0.427-0.475,0.897-0.506,1.412c-0.057,0.923,0.199,1.756,0.788,2.475c0.66,0.806,1.511,1.337,2.486,1.677
		C150.514,242.941,151.503,243.051,152.504,243.059z M155.125,222.252c-0.016-0.988-0.151-1.953-0.562-2.862
		c-0.471-1.042-1.212-1.806-2.31-2.186c-0.544-0.191-1.104-0.284-1.677-0.251c-1.172,0.071-2.084,0.592-2.688,1.611
		c-0.304,0.511-0.467,1.068-0.568,1.649c-0.137,0.773-0.095,1.545,0.027,2.313c0.118,0.77,0.348,1.506,0.725,2.193
		c0.863,1.565,2.375,2.314,4.072,2.111c1.004-0.118,1.781-0.615,2.272-1.518c0.076-0.139,0.148-0.28,0.21-0.426
		C154.981,224.048,155.134,223.166,155.125,222.252z"/>
	<path fill="#444444" d="M124.131,225.09c0,0.508-0.004,1.015,0,1.522c0.005,0.855,0.01,1.709,0.026,2.565
		c0.01,0.554,0.038,1.107,0.059,1.66c0.001,0.031,0.005,0.063,0.008,0.097c0.066,0.75,0.311,1.04,1.04,1.209
		c0.492,0.116,0.993,0.207,1.501,0.223c0.302,0.011,0.355,0.101,0.381,0.374c0.042,0.431-0.014,0.853-0.153,1.263
		c-0.074,0.208-0.114,0.236-0.351,0.235c-0.205-0.002-0.413,0-0.616-0.025c-0.695-0.077-1.393-0.059-2.088-0.087
		c-0.538-0.023-1.076-0.043-1.613-0.032c-1.488,0.025-2.974,0.05-4.462,0.138c-0.54,0.03-0.532,0.025-0.619-0.52
		c-0.058-0.352-0.024-0.695,0.036-1.039c0.037-0.228,0.102-0.282,0.349-0.314c0.473-0.06,0.935-0.165,1.396-0.266
		c0.694-0.152,0.968-0.551,1.019-1.191c0.046-0.568,0.074-1.137,0.091-1.705c0.085-2.691,0.055-5.386,0.055-8.077
		c0-0.378-0.026-0.76-0.032-1.139c-0.002-0.38-0.168-0.662-0.494-0.858c-0.614-0.368-1.27-0.643-1.95-0.858
		c-0.166-0.053-0.331-0.108-0.489-0.179c-0.264-0.11-0.472-0.294-0.474-0.595c-0.003-0.317,0.196-0.52,0.468-0.662
		c0.155-0.083,0.322-0.128,0.495-0.151c1.775-0.256,3.507-0.691,5.21-1.248c0.27-0.09,0.531-0.206,0.797-0.306
		c0.138-0.052,0.195-0.032,0.276,0.089c0.144,0.218,0.195,0.46,0.172,0.722c-0.04,0.489-0.072,0.979-0.102,1.469
		c-0.01,0.158-0.01,0.318-0.005,0.475c0.001,0.064,0.023,0.123,0.088,0.154c0.075,0.033,0.126-0.018,0.172-0.052
		c0.149-0.117,0.292-0.243,0.438-0.362c1.124-0.891,2.327-1.646,3.674-2.149c0.763-0.284,1.543-0.459,2.368-0.423
		c1.68,0.074,3.045,0.764,4.122,2.049c0.666,0.796,1.036,1.731,1.271,2.729c0.261,1.102,0.318,2.223,0.319,3.35
		c0.003,1.535-0.008,3.075,0.003,4.609c0.008,1.029,0.048,2.059,0.067,3.088c0.004,0.18,0.039,0.344,0.108,0.505
		c0.092,0.214,0.237,0.357,0.461,0.449c0.632,0.266,1.295,0.408,1.968,0.518c0.078,0.012,0.159,0.014,0.233,0.028
		c0.166,0.031,0.232,0.085,0.251,0.243c0.052,0.476,0.038,0.949-0.132,1.405c-0.055,0.147-0.141,0.238-0.316,0.228
		c-0.239-0.017-0.477-0.004-0.713-0.028c-0.74-0.078-1.486-0.059-2.23-0.089c-0.504-0.02-1.011-0.042-1.518-0.03
		c-1.171,0.022-2.343,0.033-3.511,0.12c-0.347,0.025-0.695,0.018-1.044,0.025c-0.13,0.004-0.207-0.054-0.242-0.181
		c-0.126-0.465-0.137-0.937-0.05-1.411c0.029-0.176,0.143-0.268,0.329-0.282c0.41-0.03,0.815-0.097,1.218-0.195
		c0.153-0.036,0.303-0.085,0.454-0.134c0.373-0.116,0.573-0.384,0.632-0.757c0.042-0.266,0.085-0.536,0.088-0.803
		c0.006-2.154,0.02-4.308-0.005-6.464c-0.008-0.852-0.027-1.709-0.16-2.556c-0.312-1.963-1.744-2.975-3.232-3.203
		c-1.119-0.175-2.172,0.036-3.199,0.464c-0.396,0.167-0.756,0.392-1.112,0.632c-0.459,0.31-0.67,0.745-0.725,1.274
		c-0.021,0.204-0.021,0.411-0.021,0.616c-0.003,1.283-0.001,2.566-0.001,3.851C124.121,225.09,124.125,225.09,124.131,225.09z"/>
	<path fill="#444444" d="M104.003,215.197c1.18-0.019,2.3,0.16,3.378,0.566c2.427,0.919,4.069,2.611,4.972,5.036
		c0.354,0.956,0.53,1.949,0.588,2.971c0.081,1.437-0.073,2.847-0.52,4.212c-0.712,2.165-2.045,3.849-4.02,4.991
		c-1.285,0.742-2.68,1.207-4.146,1.443c-0.835,0.134-1.673,0.101-2.51,0.011c-0.948-0.101-1.872-0.314-2.754-0.687
		c-1.958-0.83-3.345-2.245-4.227-4.165c-0.474-1.029-0.749-2.111-0.89-3.237c-0.101-0.807-0.116-1.612-0.067-2.419
		c0.125-2.186,0.921-4.093,2.466-5.66c0.831-0.844,1.804-1.487,2.886-1.97c1.15-0.511,2.341-0.868,3.591-1.028
		C103.174,215.205,103.6,215.185,104.003,215.197z M108.889,225.845c-0.013-0.209-0.036-0.493-0.046-0.778
		c-0.029-0.777-0.143-1.542-0.32-2.298c-0.237-0.993-0.597-1.937-1.152-2.798c-1.009-1.557-2.386-2.553-4.258-2.792
		c-0.634-0.082-1.265-0.065-1.879,0.118c-1.134,0.342-1.972,1.055-2.545,2.078c-0.48,0.857-0.702,1.794-0.8,2.762
		c-0.087,0.837-0.091,1.672-0.024,2.51c0.067,0.825,0.197,1.635,0.416,2.429c0.355,1.283,0.904,2.47,1.801,3.467
		c1.318,1.459,2.945,2.142,4.926,1.9c0.673-0.084,1.28-0.34,1.828-0.738c0.747-0.543,1.204-1.285,1.507-2.14
		C108.763,228.385,108.837,227.153,108.889,225.845z"/>
	<path fill="#444444" d="M175.393,215.196c1.736-0.014,3.307,0.357,4.746,1.208c2.014,1.186,3.252,2.962,3.871,5.194
		c0.238,0.859,0.348,1.743,0.354,2.627c0.014,1.712-0.252,3.379-1.017,4.935c-0.865,1.757-2.159,3.111-3.908,4.01
		c-1.148,0.589-2.356,1.008-3.632,1.215c-0.689,0.111-1.383,0.141-2.081,0.089c-0.874-0.062-1.731-0.189-2.567-0.455
		c-2.406-0.767-4.093-2.337-5.089-4.646c-0.595-1.385-0.873-2.84-0.885-4.347c-0.007-0.811,0.021-1.612,0.183-2.409
		c0.428-2.127,1.521-3.836,3.219-5.163c0.844-0.659,1.793-1.124,2.792-1.5C172.694,215.461,174.048,215.169,175.393,215.196z
		 M169.209,223.647c-0.017,0.207,0.027,0.585,0.052,0.964c0.06,0.936,0.228,1.853,0.501,2.749c0.354,1.163,0.881,2.239,1.695,3.151
		c1.296,1.457,2.902,2.16,4.864,1.934c1.351-0.153,2.358-0.853,3.036-2.025c0.206-0.358,0.352-0.744,0.477-1.136
		c0.341-1.085,0.426-2.206,0.44-3.33c0.014-0.949-0.077-1.895-0.271-2.829c-0.243-1.156-0.635-2.255-1.296-3.243
		c-1.189-1.786-2.837-2.759-5.014-2.741c-1.062,0.008-1.973,0.405-2.746,1.122c-0.694,0.644-1.112,1.453-1.372,2.349
		C169.302,221.546,169.217,222.508,169.209,223.647z"/>
</g>
</svg>
