<?xml version="1.0" encoding="utf-8"?>
<!-- Generator: Adobe Illustrator 16.0.0, SVG Export Plug-In . SVG Version: 6.00 Build 0)  -->
<!DOCTYPE svg PUBLIC "-//W3C//DTD SVG 1.1//EN" "http://www.w3.org/Graphics/SVG/1.1/DTD/svg11.dtd">
<svg version="1.1" id="Layer_1" xmlns="http://www.w3.org/2000/svg" xmlns:xlink="http://www.w3.org/1999/xlink" x="0px" y="0px"
	 width="200px" height="200px" viewBox="50.5 125.5 200 200" enable-background="new 50.5 125.5 200 200" xml:space="preserve">
<g>
	<path fill="#444444" d="M146.032,207.38l-15.314-8.851c-0.961-0.548-2.249-0.548-3.218,0l-15.317,8.851
		c-0.993,0.574-1.606,1.644-1.606,2.795v17.677c0,1.146,0.613,2.216,1.606,2.795l4.015,2.312l11.303,6.531
		c0.489,0.28,1.047,0.427,1.606,0.427c0.567,0,1.125-0.145,1.612-0.427l15.315-8.844c0.992-0.581,1.609-1.647,1.609-2.795v-17.677
		C147.644,209.022,147.023,207.953,146.032,207.38z"/>
	<path fill="#444444" d="M103.585,209.367c0-0.702-0.37-1.353-0.98-1.701l-16.238-9.343c-0.277-0.163-0.583-0.252-0.894-0.263
		h-0.169c-0.311,0.012-0.619,0.1-0.897,0.263l-16.239,9.343c-0.606,0.349-0.983,0.999-0.983,1.701l0.038,25.167
		c0,0.354,0.18,0.678,0.488,0.85c0.301,0.18,0.674,0.18,0.974,0l9.652-5.527c0.607-0.36,0.981-1.004,0.981-1.696v-11.763
		c0-0.702,0.372-1.353,0.979-1.698l4.109-2.368c0.309-0.177,0.643-0.264,0.983-0.264c0.337,0,0.68,0.088,0.979,0.264l4.108,2.368
		c0.607,0.346,0.981,0.996,0.981,1.698v11.763c0,0.692,0.375,1.341,0.984,1.696l9.647,5.527c0.304,0.18,0.683,0.18,0.98,0
		c0.299-0.172,0.485-0.496,0.485-0.85L103.585,209.367z"/>
	<path fill="#444444" d="M181.724,174.708c-0.306-0.169-0.674-0.165-0.973,0.017c-0.304,0.177-0.486,0.495-0.486,0.845v24.921
		c0,0.242-0.128,0.47-0.342,0.596c-0.209,0.121-0.476,0.121-0.688,0l-4.064-2.344c-0.607-0.353-1.354-0.35-1.962,0l-16.244,9.377
		c-0.605,0.349-0.981,0.992-0.981,1.699v18.755c0,0.697,0.376,1.344,0.981,1.697l16.244,9.384c0.609,0.346,1.354,0.346,1.962,0
		l16.249-9.384c0.605-0.354,0.982-1,0.982-1.697V181.82c0-0.713-0.387-1.367-1.008-1.712L181.724,174.708z M180.217,222.408
		c0,0.177-0.091,0.339-0.244,0.429l-5.576,3.211c-0.154,0.091-0.337,0.091-0.493,0l-5.575-3.211
		c-0.154-0.09-0.243-0.252-0.243-0.429v-6.442c0-0.173,0.089-0.334,0.243-0.427l5.575-3.215c0.156-0.093,0.339-0.093,0.493,0
		l5.576,3.215c0.154,0.091,0.244,0.254,0.244,0.427V222.408z"/>
	<g>
		<path fill="#444444" d="M235.819,216.241c0.605-0.349,0.978-0.995,0.978-1.694v-4.546c0-0.694-0.372-1.346-0.978-1.695
			l-16.14-9.374c-0.605-0.352-1.356-0.352-1.968-0.004l-16.236,9.378c-0.607,0.349-0.982,1-0.982,1.697v18.754
			c0,0.702,0.378,1.353,0.988,1.7l16.139,9.199c0.596,0.338,1.327,0.342,1.923,0.012l9.763-5.429
			c0.312-0.172,0.503-0.496,0.503-0.848c0.003-0.358-0.184-0.685-0.492-0.861l-16.34-9.379c-0.308-0.174-0.494-0.496-0.494-0.85
			v-5.878c0-0.349,0.187-0.673,0.494-0.852l5.085-2.927c0.301-0.177,0.672-0.177,0.979,0l5.086,2.927
			c0.309,0.179,0.492,0.503,0.492,0.852v4.627c0,0.349,0.192,0.677,0.492,0.85c0.307,0.172,0.677,0.172,0.982-0.005L235.819,216.241
			z"/>
		<path fill="#444444" d="M218.455,215.365c0.118-0.067,0.261-0.067,0.38,0l3.113,1.796c0.118,0.074,0.191,0.194,0.191,0.331v3.595
			c0,0.136-0.073,0.258-0.191,0.328l-3.113,1.798c-0.119,0.066-0.262,0.066-0.38,0l-3.113-1.798c-0.118-0.07-0.188-0.19-0.188-0.328
			v-3.595c0-0.137,0.071-0.259,0.188-0.331L218.455,215.365z"/>
	</g>
</g>
<g>
	<path fill="#444444" d="M151.987,276.416c-0.555,0-1.107-0.143-1.594-0.423l-5.068-2.998c-0.754-0.426-0.386-0.575-0.138-0.664
		c1.011-0.35,1.215-0.431,2.294-1.043c0.109-0.061,0.262-0.04,0.375,0.034l3.896,2.306c0.14,0.079,0.339,0.079,0.469,0l15.184-8.763
		c0.141-0.08,0.233-0.24,0.233-0.408v-17.522c0-0.174-0.09-0.336-0.236-0.419l-15.176-8.758c-0.142-0.08-0.329-0.08-0.472,0
		l-15.173,8.762c-0.146,0.082-0.239,0.248-0.239,0.418v17.52c0,0.168,0.094,0.322,0.239,0.405l4.16,2.401
		c2.258,1.131,3.64-0.2,3.64-1.535v-17.298c0-0.248,0.195-0.438,0.44-0.438h1.924c0.24,0,0.439,0.19,0.439,0.438v17.298
		c0,3.012-1.64,4.738-4.497,4.738c-0.877,0-1.565,0-3.497-0.949l-3.979-2.292c-0.984-0.571-1.595-1.634-1.595-2.769v-17.522
		c0-1.14,0.61-2.2,1.595-2.771l15.183-8.773c0.961-0.542,2.238-0.542,3.191,0l15.18,8.773c0.985,0.567,1.598,1.631,1.598,2.771
		v17.522c0,1.137-0.614,2.192-1.598,2.769l-15.18,8.767C153.101,276.273,152.548,276.416,151.987,276.416"/>
	<path fill="#444444" d="M156.678,264.346c-6.643,0-8.035-3.047-8.035-5.607c0-0.239,0.194-0.437,0.439-0.437h1.959
		c0.221,0,0.403,0.159,0.437,0.374c0.297,1.999,1.185,3.005,5.197,3.005c3.196,0,4.561-0.725,4.561-2.418
		c0-0.979-0.385-1.707-5.358-2.192c-4.15-0.415-6.723-1.326-6.723-4.65c0-3.068,2.584-4.89,6.912-4.89
		c4.863,0,7.269,1.688,7.574,5.307c0.016,0.125-0.032,0.242-0.117,0.337c-0.08,0.089-0.196,0.146-0.32,0.146h-1.969
		c-0.204,0-0.387-0.147-0.427-0.35c-0.475-2.098-1.623-2.773-4.742-2.773c-3.494,0-3.896,1.217-3.896,2.128
		c0,1.106,0.479,1.427,5.193,2.052c4.667,0.618,6.884,1.493,6.884,4.771C164.248,262.452,161.489,264.346,156.678,264.346"/>
</g>
</svg>
