<?xml version="1.0" encoding="utf-8"?>
<!-- Generator: Adobe Illustrator 16.0.0, SVG Export Plug-In . SVG Version: 6.00 Build 0)  -->
<!DOCTYPE svg PUBLIC "-//W3C//DTD SVG 1.1//EN" "http://www.w3.org/Graphics/SVG/1.1/DTD/svg11.dtd">
<svg version="1.1" id="Layer_1" xmlns="http://www.w3.org/2000/svg" xmlns:xlink="http://www.w3.org/1999/xlink" x="0px" y="0px"
	 width="200px" height="200px" viewBox="99.225 235.426 200 200" enable-background="new 99.225 235.426 200 200"
	 xml:space="preserve">
<path fill="#444444" d="M128.978,355.302c0-15.692,0-31.384,0-47.09c47.013,0,94.026,0,141.04,0c0,15.706,0,31.398,0,47.09
	c-0.315-0.021-0.632-0.063-0.947-0.063c-22.822-0.003-45.646-0.003-68.468,0.001c-0.349,0-0.697,0.053-1.212,0.095
	c0,2.625,0,5.181,0,7.717c-10.455,0-20.736,0-31.19,0c0-2.633,0-5.188,0-7.815c-0.715,0-1.255,0-1.795,0
	c-11.888,0-23.776-0.001-35.664,0.003C130.153,355.239,129.565,355.28,128.978,355.302z M254.458,324.125c0,7.794,0,15.52,0,23.264
	c2.738,0,5.301,0,7.887,0c0-10.484,0-20.885,0-31.265c-15.746,0-31.378,0-47.044,0c0,10.465,0,20.833,0,31.238
	c5.217,0,10.353,0,15.614,0c0-7.803,0-15.496,0-23.199c2.636,0,5.145,0,7.777,0c0,7.798,0,15.491,0,23.188c2.723,0,5.318,0,8.037,0
	c0-7.814,0-15.508,0-23.227C249.333,324.125,251.809,324.125,254.458,324.125z M207.395,316.115c-10.522,0-20.886,0-31.271,0
	c0,13.113,0,26.14,0,39.166c5.302,0,10.494,0,15.858,0c0-2.638,0-5.192,0-7.861c5.231,0,10.291,0,15.413,0
	C207.395,336.933,207.395,326.571,207.395,316.115z M160.28,324.12c0,7.848,0,15.537,0,23.235c2.718,0,5.312,0,7.878,0
	c0-10.482,0-20.846,0-31.209c-10.49,0-20.886,0-31.257,0c0,10.481,0,20.845,0,31.206c5.229,0,10.363,0,15.616,0
	c0-7.811,0-15.5,0-23.232C155.113,324.12,157.588,324.12,160.28,324.12z"/>
<path fill-rule="evenodd" clip-rule="evenodd" fill="#444444" d="M199.353,339.375c-2.447,0-4.828,0-7.312,0
	c0-5.05,0-10.09,0-15.224c2.407,0,4.82,0,7.312,0C199.353,329.225,199.353,334.265,199.353,339.375z"/>
</svg>
