<?xml version="1.0" encoding="utf-8"?>
<!-- Generator: Adobe Illustrator 16.0.0, SVG Export Plug-In . SVG Version: 6.00 Build 0)  -->
<!DOCTYPE svg PUBLIC "-//W3C//DTD SVG 1.1//EN" "http://www.w3.org/Graphics/SVG/1.1/DTD/svg11.dtd">
<svg version="1.1" id="Layer_1" xmlns="http://www.w3.org/2000/svg" xmlns:xlink="http://www.w3.org/1999/xlink" x="0px" y="0px"
	 width="200px" height="200px" viewBox="99.225 235.426 200 200" enable-background="new 99.225 235.426 200 200"
	 xml:space="preserve">
<g>
	<path fill="#444444" d="M121.807,337.003c0-0.646,0-1.293,0-1.939c0.104-0.628,0.263-1.252,0.303-1.885
		c1.073-16.694,12.044-31.012,27.963-36.195c3.279-1.068,6.757-1.529,10.145-2.27c1.939,0,3.879,0,5.819,0
		c0.487,0.126,0.969,0.32,1.464,0.37c19.333,1.93,34.956,17.888,36.479,37.273c1.762,22.424-14.066,41.666-36.425,44.282
		c-20.787,2.432-40.239-11.524-44.583-32.039C122.441,342.098,122.188,339.538,121.807,337.003z"/>
	<path fill-rule="evenodd" clip-rule="evenodd" fill="#444444" d="M241.861,295.559c0,26.271,0,52.362,0,78.621
		c-11.098,0-22.108,0-33.264,0c0-26.168,0-52.311,0-78.621C219.643,295.559,230.653,295.559,241.861,295.559z"/>
	<path fill-rule="evenodd" clip-rule="evenodd" fill="#444444" d="M244.611,327.231c0-10.462,0-20.961,0-31.649
		c10.677,0,21.283,0,31.515,0C265.785,305.966,255.226,316.571,244.611,327.231z"/>
	<path fill-rule="evenodd" clip-rule="evenodd" fill="#444444" d="M267.525,352.759c-7.512,0-14.978,0-22.562,0
		c0-7.647,0-15.242,0-22.983c7.472,0,14.936,0,22.562,0C267.525,337.377,267.525,345.017,267.525,352.759z"/>
</g>
</svg>
