<?xml version="1.0" encoding="utf-8"?>
<!-- Generator: Adobe Illustrator 16.0.0, SVG Export Plug-In . SVG Version: 6.00 Build 0)  -->
<!DOCTYPE svg PUBLIC "-//W3C//DTD SVG 1.1//EN" "http://www.w3.org/Graphics/SVG/1.1/DTD/svg11.dtd">
<svg version="1.1" id="Layer_1" xmlns="http://www.w3.org/2000/svg" xmlns:xlink="http://www.w3.org/1999/xlink" x="0px" y="0px"
	 width="200px" height="200px" viewBox="99.225 235.426 200 200" enable-background="new 99.225 235.426 200 200"
	 xml:space="preserve">
<g>
	<path fill-rule="evenodd" clip-rule="evenodd" fill="#444444" d="M128.823,321.494c2.493,0,4.863,0,7.467,0c0,1.463,0,2.841,0,4.39
		c1.746-1.364,3.111-2.837,4.793-3.677c9.549-4.767,20.597,0.812,22.533,11.31c1.088,5.899,0.172,11.397-3.688,16.179
		c-5.784,7.163-17.79,7.114-22.527,0.613c-0.062-0.087-0.213-0.109-0.731-0.356c0,3.562,0,6.941,0,10.322c0,3.383,0,6.766,0,10.316
		c-2.643,0-5.179,0-7.846,0C128.823,354.288,128.823,338.001,128.823,321.494z M155.967,337.525
		c-0.09-0.677-0.177-1.597-0.338-2.504c-1.259-7.104-8.997-10.472-14.672-6.395c-4.861,3.492-6.019,11.026-2.422,15.817
		c2.099,2.798,4.853,4.373,8.401,4.039C152.355,347.972,155.94,343.639,155.967,337.525z"/>
	<path fill-rule="evenodd" clip-rule="evenodd" fill="#444444" d="M169.431,331.867c0.186-5.732,0.374-11.193,0.534-16.654
		c0.076-2.585,0.115-5.172,0.133-7.759c0.007-0.974,0.146-1.666,1.383-1.661c8.439,0.028,16.879,0.019,25.318,0.031
		c0.229,0,0.46,0.105,0.771,0.182c0,2.183,0,4.313,0,6.659c-0.671,0.038-1.319,0.106-1.969,0.107
		c-5.297,0.009-10.596,0.048-15.893-0.021c-1.509-0.021-2.043,0.441-2.042,1.997c0.004,2.871-0.222,5.742-0.347,8.471
		c2.87,0,5.497-0.109,8.111,0.021c6.78,0.338,12.319,4.706,13.863,10.801c2.797,11.041-4.68,20.896-16.037,21.284
		c-5.72,0.196-10.719-1.193-14.521-5.728c-0.43-0.514-0.813-1.065-1.346-1.768c1.892-1.802,3.738-3.561,5.729-5.458
		c1.561,3.32,3.853,5.442,7.337,6.124c5.25,1.027,10.017-2.014,10.985-7.065c1.12-5.839-1.947-10.65-7.371-11.705
		c-4.26-0.828-8.311,0.019-12.326,1.316C171.05,331.266,170.37,331.531,169.431,331.867z"/>
	<path fill-rule="evenodd" clip-rule="evenodd" fill="#444444" d="M242.788,349.773c1.696-1.61,3.294-3.126,4.511-4.281
		c2.672,1.225,4.983,2.657,7.496,3.3c1.559,0.398,3.499-0.181,5.128-0.733c1.338-0.455,1.954-1.783,1.848-3.309
		c-0.101-1.446-0.824-2.453-2.156-2.928c-1.789-0.638-3.618-1.165-5.429-1.745c-1.461-0.467-2.956-0.85-4.372-1.427
		c-7.365-3.006-6.343-11.637-2.052-15.144c5.333-4.357,16.193-3.891,21.097,0.91c0.215,0.21,0.39,0.462,0.757,0.902
		c-1.615,1.458-3.19,2.879-4.949,4.466c-0.507-0.417-0.987-0.837-1.492-1.226c-2.78-2.146-5.803-2.847-9.168-1.534
		c-1.431,0.558-2.156,1.612-2.148,3.117c0.007,1.468,0.823,2.442,2.177,2.885c1.863,0.61,3.765,1.104,5.639,1.688
		c1.404,0.438,2.838,0.83,4.176,1.429c3.44,1.541,5.721,3.916,5.724,8.012c0.003,4.453-1.704,7.854-5.933,9.479
		c-6.977,2.68-13.606,1.886-19.696-2.59c-0.197-0.145-0.381-0.314-0.548-0.493C243.23,350.372,243.093,350.167,242.788,349.773z"/>
	<path fill-rule="evenodd" clip-rule="evenodd" fill="#444444" d="M220.779,370.299c0.246-2.294,0.468-4.354,0.683-6.353
		c0.266-0.09,0.383-0.171,0.487-0.158c4.513,0.564,6.195-1.635,6.201-6.054c0.017-11.889,0.012-23.777,0.016-35.667
		c0-0.611,0-1.222,0-2.003c2.646,0,5.178,0,7.829,0c0.045,0.59,0.121,1.127,0.121,1.663c0.006,12.074,0.044,24.148-0.021,36.222
		c-0.02,3.479-0.499,6.946-3.123,9.578C229.574,370.934,225.373,371.102,220.779,370.299z"/>
	<path fill-rule="evenodd" clip-rule="evenodd" fill="#444444" d="M212.542,347.438c0-1.83,0-3.286,0-4.889c1.021,0,1.834,0,2.819,0
		c0.07,1.556,0.14,3.062,0.22,4.836c1.706-0.445,3.217-0.839,4.876-1.271c0.306,0.823,0.595,1.599,0.955,2.567
		c-1.615,0.585-3.076,1.115-4.83,1.75c1.027,1.56,1.921,2.916,2.868,4.353c-0.706,0.521-1.389,1.026-2.207,1.631
		c-1.072-1.334-2.093-2.604-3.279-4.08c-1.102,1.366-2.113,2.622-3.201,3.972c-0.749-0.566-1.375-1.039-2.178-1.646
		c0.937-1.358,1.849-2.681,2.892-4.193c-1.667-0.654-3.127-1.227-4.564-1.79c0.135-2.631,0.428-2.835,2.798-2.067
		C210.512,346.869,211.327,347.084,212.542,347.438z"/>
</g>
</svg>
