<?xml version="1.0" encoding="utf-8"?>
<!-- Generator: Adobe Illustrator 16.0.0, SVG Export Plug-In . SVG Version: 6.00 Build 0)  -->
<!DOCTYPE svg PUBLIC "-//W3C//DTD SVG 1.1//EN" "http://www.w3.org/Graphics/SVG/1.1/DTD/svg11.dtd">
<svg version="1.1" id="Layer_1" xmlns="http://www.w3.org/2000/svg" xmlns:xlink="http://www.w3.org/1999/xlink" x="0px" y="0px"
	 width="200px" height="200px" viewBox="0 0 200 200" enable-background="new 0 0 200 200" xml:space="preserve">
<g id="_x35_kcSKo.tif">
	<g>
		<path fill="#444444" d="M129.225,146.791c0.625-3.061,1.256-6.119,1.871-9.182c1.639-8.149,3.271-16.301,4.902-24.451
			c1.684-8.404,3.367-16.809,5.05-25.213c0.947-4.734,1.892-9.469,2.839-14.203c0.035-0.176,0.105-0.346,0.188-0.604
			c0.261,0,0.537,0,0.816,0c8.754,0,17.508-0.024,26.262,0.011c3.764,0.015,7.484,0.394,11.027,1.812
			c6,2.401,9.444,6.899,10.771,13.129c0.192,0.905,0.319,1.825,0.478,2.737c0,1.658,0,3.316,0,4.975
			c-0.051,0.225-0.131,0.446-0.148,0.673c-0.413,5.056-1.739,9.859-4.076,14.36c-2.775,5.347-6.641,9.731-11.811,12.877
			c-4.168,2.536-8.884,3.195-13.609,3.438c-5.062,0.259-10.145,0.146-15.217,0.197c-0.31,0.002-0.617,0-0.973,0
			c-0.068,0.278-0.14,0.521-0.189,0.768c-0.706,3.49-1.418,6.98-2.114,10.474c-0.545,2.731-1.071,5.468-1.604,8.202
			C138.863,146.791,134.044,146.791,129.225,146.791z M149.954,115.65c0.167,0.031,0.291,0.063,0.416,0.078
			c0.282,0.028,0.567,0.067,0.853,0.07c5.26,0.047,10.479-0.232,15.656-1.32c3.627-0.762,6.258-2.668,7.992-5.906
			c1.568-2.928,2.419-6.08,3.02-9.316c0.487-2.631,0.774-5.279,0.299-7.94c-0.401-2.245-1.444-4.069-3.758-4.802
			c-2.722-0.863-5.531-1.337-8.381-1.427c-3.076-0.096-6.156-0.024-9.234-0.068c-0.611-0.009-0.77,0.224-0.879,0.774
			c-1.414,7.114-2.857,14.222-4.289,21.332C151.079,109.956,150.521,112.789,149.954,115.65z"/>
		<path fill="#444444" d="M6.884,146.325c0.365-1.685,0.75-3.363,1.09-5.052c1.743-8.658,3.472-17.318,5.208-25.979
			c1.685-8.404,3.372-16.809,5.056-25.214c1.095-5.469,2.193-10.937,3.267-16.41c0.12-0.61,0.507-0.534,0.916-0.534
			c7.072,0,14.144-0.012,21.216,0.006c2.745,0.007,5.496-0.022,8.232,0.149c4.838,0.304,9.392,1.516,13.144,4.816
			c3.094,2.721,4.916,6.196,5.581,10.214c1.252,7.565-0.115,14.77-3.367,21.643c-2.723,5.756-6.78,10.363-12.196,13.74
			c-2.638,1.646-5.598,2.34-8.614,2.88c-6.554,1.174-13.17,0.638-19.762,0.763c-0.208,0.004-0.418,0.022-0.622-0.005
			c-0.649-0.087-0.91,0.128-1.048,0.834c-1.177,6.031-2.414,12.052-3.627,18.074c-0.035,0.174-0.013,0.358-0.017,0.539
			c-4.819,0-9.638,0-14.457,0C6.884,146.634,6.884,146.479,6.884,146.325z M27.56,115.689c0.439,0.039,0.847,0.104,1.256,0.107
			c5.261,0.047,10.484-0.224,15.662-1.318c3.62-0.766,6.263-2.648,8.001-5.895c1.293-2.415,2.109-4.991,2.689-7.646
			c0.669-3.068,1.172-6.159,0.687-9.311c-0.364-2.363-1.357-4.324-3.803-5.112c-2.669-0.861-5.433-1.322-8.227-1.421
			c-3.154-0.112-6.314-0.042-9.471-0.066c-0.45-0.003-0.667,0.085-0.769,0.604c-0.997,5.067-2.038,10.125-3.056,15.188
			C29.538,105.752,28.559,110.688,27.56,115.689z"/>
		<path fill="#444444" d="M101.088,53.52c-0.283,1.571-0.54,3.147-0.857,4.711c-0.999,4.933-2.021,9.86-3.061,14.918
			c0.36,0,0.658-0.002,0.955,0c4.688,0.039,9.381-0.029,14.062,0.148c4.351,0.164,8.56,1.028,12.344,3.39
			c2.914,1.819,4.271,4.527,4.691,7.824c0.489,3.843-0.256,7.571-1.016,11.302c-1.693,8.326-3.369,16.655-5.055,24.981
			c-0.404,2-0.832,3.995-1.213,5.999c-0.078,0.414-0.213,0.562-0.639,0.562c-4.56-0.016-9.119-0.014-13.68-0.018
			c-0.049,0-0.098-0.025-0.253-0.07c0.258-1.316,0.51-2.646,0.776-3.971c1.848-9.138,3.717-18.271,5.527-27.416
			c0.33-1.665,0.577-3.372,0.61-5.064c0.061-3.118-1.437-4.915-4.536-5.243c-2.822-0.299-5.68-0.294-8.521-0.364
			c-2.12-0.052-4.241-0.01-6.458-0.01c-2.807,13.997-5.624,28.039-8.444,42.103c-4.771,0-9.497,0-14.28,0
			c0.646-3.216,1.28-6.378,1.917-9.539c1.739-8.633,3.478-17.266,5.219-25.898c1.736-8.607,3.474-17.214,5.21-25.821
			c0.802-3.975,1.602-7.95,2.403-11.925c0.041-0.202,0.099-0.4,0.148-0.601C91.657,53.52,96.373,53.52,101.088,53.52z"/>
	</g>
</g>
</svg>
