<?xml version="1.0" encoding="utf-8"?>
<!-- Generator: Adobe Illustrator 16.0.0, SVG Export Plug-In . SVG Version: 6.00 Build 0)  -->
<!DOCTYPE svg PUBLIC "-//W3C//DTD SVG 1.1//EN" "http://www.w3.org/Graphics/SVG/1.1/DTD/svg11.dtd">
<svg version="1.1" id="Layer_1" xmlns="http://www.w3.org/2000/svg" xmlns:xlink="http://www.w3.org/1999/xlink" x="0px" y="0px"
	 width="200px" height="200px" viewBox="0 0 200 200" enable-background="new 0 0 200 200" xml:space="preserve">
<g id="_x35_kcSKo.tif">
	<g>
		<path fill="#FFFFFF" d="M129.225,146.791c-35.961,0-71.922,0-107.884,0c0.004-0.18-0.018-0.365,0.017-0.539
			c1.213-6.023,2.45-12.043,3.627-18.074c0.138-0.706,0.398-0.921,1.048-0.834c0.204,0.027,0.414,0.008,0.622,0.004
			c6.592-0.125,13.208,0.412,19.762-0.762c3.017-0.54,5.977-1.234,8.614-2.88c5.416-3.377,9.473-7.984,12.196-13.74
			c3.251-6.873,4.619-14.078,3.367-21.643c-0.665-4.018-2.487-7.493-5.581-10.214c-3.752-3.3-8.306-4.512-13.144-4.816
			c-2.737-0.171-5.488-0.142-8.232-0.149c-7.072-0.018-14.144-0.006-21.216-0.006c-0.408,0-0.796-0.077-0.916,0.534
			c-1.073,5.473-2.171,10.941-3.267,16.41c-1.684,8.405-3.371,16.81-5.056,25.214c-1.736,8.659-3.465,17.319-5.208,25.978
			c-0.34,1.688-0.726,3.368-1.09,5.052c0-30.922,0-61.843,0-92.806c26.686,0,53.372,0,80.058,0c-0.049,0.2-0.107,0.399-0.148,0.601
			c-0.802,3.975-1.602,7.95-2.403,11.925c-1.736,8.607-3.475,17.214-5.21,25.821c-1.741,8.633-3.48,17.266-5.219,25.899
			c-0.637,3.161-1.271,6.323-1.917,9.539c4.783,0,9.509,0,14.28,0c2.821-14.064,5.637-28.106,8.444-42.103
			c2.217,0,4.338-0.042,6.457,0.01c2.843,0.07,5.7,0.064,8.522,0.364c3.1,0.329,4.597,2.125,4.536,5.243
			c-0.033,1.692-0.28,3.399-0.61,5.064c-1.812,9.145-3.681,18.278-5.527,27.416c-0.268,1.325-0.52,2.653-0.777,3.97
			c0.156,0.045,0.204,0.071,0.253,0.071c4.56,0.004,9.12,0.002,13.68,0.017c0.426,0.001,0.56-0.148,0.639-0.562
			c0.38-2.004,0.808-3.999,1.212-5.999c1.686-8.326,3.361-16.655,5.055-24.981c0.76-3.731,1.505-7.458,1.015-11.302
			c-0.42-3.297-1.776-6.004-4.691-7.824c-3.784-2.362-7.993-3.226-12.343-3.39c-4.683-0.177-9.375-0.109-14.063-0.148
			c-0.297-0.002-0.595,0-0.955,0c1.04-5.058,2.062-9.986,3.061-14.918c0.317-1.564,0.573-3.141,0.857-4.711
			c30.78,0,61.56,0,92.339,0c0,12.437,0,24.873,0,37.309c-0.157-0.913-0.284-1.832-0.478-2.737
			c-1.325-6.23-4.771-10.728-10.77-13.129c-3.543-1.418-7.265-1.797-11.027-1.812c-8.754-0.035-17.509-0.011-26.263-0.011
			c-0.278,0-0.556,0-0.816,0c-0.081,0.258-0.151,0.428-0.187,0.604c-0.948,4.734-1.892,9.469-2.839,14.203
			c-1.683,8.405-3.366,16.809-5.05,25.213c-1.633,8.151-3.265,16.302-4.902,24.452C130.479,140.672,129.849,143.73,129.225,146.791z
			"/>
		<path fill-rule="evenodd" clip-rule="evenodd" d="M129.225,146.791c0.624-3.061,1.255-6.119,1.871-9.181
			c1.638-8.15,3.27-16.301,4.902-24.452c1.684-8.404,3.367-16.809,5.05-25.213c0.947-4.734,1.891-9.469,2.839-14.203
			c0.035-0.176,0.105-0.346,0.187-0.604c0.261,0,0.538,0,0.816,0c8.754,0,17.509-0.024,26.263,0.011
			c3.763,0.015,7.484,0.394,11.027,1.812c5.999,2.401,9.444,6.899,10.77,13.129c0.193,0.905,0.32,1.825,0.478,2.737
			c0,1.658,0,3.316,0,4.975c-0.051,0.225-0.131,0.446-0.149,0.673c-0.413,5.056-1.739,9.859-4.076,14.36
			c-2.775,5.346-6.641,9.731-11.811,12.877c-4.168,2.536-8.883,3.195-13.609,3.438c-5.062,0.259-10.144,0.147-15.217,0.197
			c-0.309,0.003-0.617,0-0.972,0c-0.069,0.279-0.14,0.521-0.189,0.768c-0.707,3.491-1.418,6.98-2.115,10.474
			c-0.545,2.732-1.071,5.468-1.605,8.202C138.863,146.791,134.044,146.791,129.225,146.791z M149.954,115.651
			c0.167,0.031,0.291,0.063,0.416,0.077c0.283,0.029,0.567,0.068,0.852,0.071c5.26,0.046,10.48-0.233,15.657-1.32
			c3.627-0.762,6.258-2.669,7.992-5.907c1.568-2.927,2.419-6.08,3.02-9.316c0.487-2.631,0.774-5.279,0.298-7.94
			c-0.401-2.245-1.444-4.069-3.757-4.802c-2.722-0.863-5.532-1.337-8.381-1.427c-3.076-0.096-6.156-0.024-9.234-0.068
			c-0.612-0.009-0.77,0.224-0.879,0.774c-1.415,7.114-2.858,14.222-4.289,21.332C151.079,109.956,150.522,112.789,149.954,115.651z"
			/>
		<path fill-rule="evenodd" clip-rule="evenodd" d="M6.884,146.325c0.365-1.684,0.75-3.363,1.09-5.052
			c1.743-8.658,3.472-17.318,5.208-25.978c1.685-8.404,3.372-16.809,5.056-25.214c1.095-5.469,2.193-10.937,3.267-16.41
			c0.12-0.61,0.507-0.534,0.916-0.534c7.072,0,14.144-0.012,21.216,0.006c2.745,0.007,5.496-0.022,8.232,0.149
			c4.838,0.304,9.392,1.516,13.144,4.816c3.094,2.721,4.916,6.196,5.581,10.214c1.252,7.565-0.115,14.77-3.367,21.643
			c-2.723,5.756-6.78,10.363-12.196,13.74c-2.638,1.646-5.598,2.34-8.614,2.88c-6.554,1.174-13.17,0.637-19.762,0.762
			c-0.208,0.004-0.418,0.023-0.622-0.004c-0.649-0.087-0.91,0.128-1.048,0.834c-1.177,6.031-2.414,12.051-3.627,18.074
			c-0.035,0.174-0.013,0.359-0.017,0.539c-4.819,0-9.638,0-14.457,0C6.884,146.634,6.884,146.479,6.884,146.325z M27.56,115.689
			c0.439,0.039,0.847,0.104,1.256,0.108c5.261,0.047,10.484-0.224,15.662-1.318c3.62-0.766,6.263-2.649,8.001-5.895
			c1.293-2.415,2.109-4.991,2.689-7.647c0.669-3.068,1.172-6.158,0.687-9.31c-0.364-2.363-1.357-4.324-3.803-5.112
			c-2.669-0.861-5.433-1.322-8.227-1.421c-3.154-0.112-6.314-0.042-9.471-0.066c-0.45-0.003-0.667,0.085-0.769,0.604
			c-0.997,5.067-2.038,10.125-3.056,15.188C29.538,105.752,28.559,110.688,27.56,115.689z"/>
		<path fill-rule="evenodd" clip-rule="evenodd" d="M101.088,53.52c-0.284,1.571-0.54,3.147-0.857,4.711
			c-0.999,4.933-2.021,9.86-3.061,14.918c0.36,0,0.658-0.002,0.955,0c4.688,0.039,9.381-0.029,14.063,0.148
			c4.35,0.164,8.559,1.028,12.343,3.39c2.915,1.819,4.271,4.527,4.691,7.824c0.49,3.843-0.255,7.571-1.015,11.302
			c-1.693,8.326-3.369,16.655-5.055,24.981c-0.404,2-0.832,3.995-1.212,5.999c-0.079,0.414-0.213,0.563-0.639,0.562
			c-4.56-0.015-9.12-0.013-13.68-0.017c-0.049,0-0.097-0.026-0.253-0.071c0.258-1.316,0.51-2.645,0.777-3.97
			c1.847-9.138,3.716-18.271,5.527-27.416c0.33-1.665,0.577-3.372,0.61-5.064c0.061-3.118-1.437-4.915-4.536-5.243
			c-2.822-0.299-5.68-0.294-8.522-0.364c-2.119-0.052-4.24-0.01-6.457-0.01c-2.807,13.997-5.624,28.039-8.444,42.103
			c-4.771,0-9.497,0-14.28,0c0.646-3.216,1.28-6.378,1.917-9.539c1.739-8.633,3.478-17.266,5.219-25.899
			c1.736-8.607,3.474-17.214,5.21-25.821c0.802-3.975,1.602-7.95,2.403-11.925c0.041-0.202,0.099-0.4,0.148-0.601
			C91.657,53.52,96.373,53.52,101.088,53.52z"/>
		<path fill-rule="evenodd" clip-rule="evenodd" fill="#FFFFFF" d="M143.683,146.791c0.534-2.734,1.061-5.47,1.605-8.202
			c0.697-3.493,1.408-6.982,2.115-10.474c0.05-0.246,0.12-0.488,0.189-0.768c0.354,0,0.663,0.003,0.972,0
			c5.073-0.05,10.154,0.062,15.217-0.197c4.727-0.242,9.441-0.901,13.609-3.438c5.17-3.146,9.035-7.531,11.811-12.877
			c2.337-4.501,3.663-9.304,4.076-14.36c0.019-0.227,0.099-0.449,0.149-0.673c0,16.996,0,33.992,0,50.988
			C176.846,146.791,160.264,146.791,143.683,146.791z"/>
	</g>
</g>
</svg>
