<?xml version="1.0" encoding="utf-8"?>
<!-- Generator: Adobe Illustrator 16.0.0, SVG Export Plug-In . SVG Version: 6.00 Build 0)  -->
<!DOCTYPE svg PUBLIC "-//W3C//DTD SVG 1.1//EN" "http://www.w3.org/Graphics/SVG/1.1/DTD/svg11.dtd">
<svg version="1.1" id="Layer_1" xmlns="http://www.w3.org/2000/svg" xmlns:xlink="http://www.w3.org/1999/xlink" x="0px" y="0px"
	 width="200px" height="200px" viewBox="99.225 235.426 200 200" enable-background="new 99.225 235.426 200 200"
	 xml:space="preserve">
<g>
	<path fill="#FEFDFD" d="M156.902,273.395c28.216,0,56.431,0,84.646,0c-0.216,0.218-0.391,0.544-0.651,0.639
		c-8.906,3.232-12.349,9.813-12.262,19.002c0.148,15.789-0.023,31.581-0.061,47.372c-4.287-4.036-8.576-8.073-12.863-12.111
		l0.015,0.02c-0.224-0.269-0.448-0.536-0.672-0.804c-3.115-2.516-5.88-5.825-9.416-7.381c-7.476-3.289-14.485-0.467-20.946,7.347
		c-0.229,0.278-0.459,0.557-0.688,0.835l0.021-0.031c-4.291,4.038-8.581,8.075-12.871,12.112
		c-0.045-15.503-0.104-31.006-0.132-46.509C171,282.004,167.875,277.442,156.902,273.395z"/>
	<path fill-rule="evenodd" clip-rule="evenodd" fill="#40B3C6" d="M228.575,340.408c0.037-15.791,0.209-31.583,0.061-47.372
		c-0.087-9.188,3.355-15.77,12.262-19.002c0.261-0.095,0.436-0.421,0.651-0.639c2.584,0,5.169,0,7.753,0
		c0.13,0.158,0.228,0.406,0.393,0.464c9.46,3.314,13.155,8.508,13.157,18.531c0.002,11.182,0.015,22.364-0.003,33.547
		c-0.026,17.415-0.074,34.831-0.112,52.246c-1.398-2.615-2.284-5.736-4.281-7.761c-9.76-9.896-19.817-19.498-29.769-29.204
		C228.649,340.948,228.612,340.678,228.575,340.408z M245.644,297.408c4.015,0.062,7.357-3.062,7.415-6.932
		c0.059-3.837-3.244-7.244-7.109-7.337c-3.829-0.091-7.348,3.242-7.426,7.035C238.442,294.079,241.659,297.346,245.644,297.408z"/>
	<path fill-rule="evenodd" clip-rule="evenodd" fill="#F49E01" d="M156.902,273.395c10.973,4.047,14.099,8.609,14.12,20.49
		c0.028,15.503,0.087,31.006,0.132,46.509c-0.04,0.237-0.08,0.473-0.12,0.71c-0.922,0.707-1.933,1.324-2.752,2.136
		c-7.775,7.707-15.455,15.513-23.3,23.148c-3.491,3.397-6.597,6.961-8.111,11.684c0-30.585,0-61.17,0-91.754
		c2.578-6.35,6.881-10.889,13.57-12.923C152.594,273.395,154.748,273.395,156.902,273.395z M154.06,297.428
		c3.992-0.061,7.163-3.304,7.079-7.242c-0.081-3.849-3.526-7.14-7.373-7.042c-3.876,0.098-7.195,3.528-7.095,7.333
		C146.774,294.401,150.057,297.489,154.06,297.428z"/>
	<path fill-rule="evenodd" clip-rule="evenodd" fill="#FEFDFD" d="M241.548,398.749c-27.785,0-55.569,0-83.354,0
		c4.651-2.028,8.647-4.895,11.617-9.074c9.923-9.854,19.846-19.708,29.768-29.562l0.271-0.016l0.271,0.006
		c9.797,9.744,19.594,19.487,29.39,29.231l0.098,0.11c0.323,0.293,0.647,0.586,0.97,0.88
		C233.295,394.357,237.287,396.728,241.548,398.749z"/>
	<path fill-rule="evenodd" clip-rule="evenodd" fill="#CB3221" d="M169.811,389.674c-2.97,4.18-6.966,7.046-11.617,9.074
		c-2.584,0-5.169,0-7.753,0c-6.765-1.954-11.153-6.404-13.57-12.924c0-2.584,0-5.169,0-7.753c1.514-4.723,4.62-8.286,8.111-11.684
		c7.845-7.636,15.524-15.441,23.3-23.148c0.819-0.812,1.83-1.429,2.753-2.136C170.576,357.293,172.489,373.542,169.811,389.674z
		 M160.847,381.79c0.017-3.973-2.854-6.93-6.782-6.983c-4.129-0.058-7.166,2.94-7.116,7.022c0.048,3.913,3.057,6.86,6.993,6.852
		C157.943,388.669,160.832,385.788,160.847,381.79z"/>
	<path fill-rule="evenodd" clip-rule="evenodd" fill="#253C88" d="M241.548,398.749c-4.262-2.021-8.253-4.392-10.97-8.424
		c-0.323-0.294-0.646-0.587-0.97-0.88c0,0-0.098-0.11-0.097-0.111c-0.29-2.28-0.821-4.56-0.832-6.842
		c-0.064-13.758-0.009-27.516,0.006-41.273c9.951,9.706,20.009,19.309,29.769,29.204c1.997,2.024,2.883,5.146,4.281,7.76
		c-0.096,2.544,0.178,5.169-0.357,7.618c-1.539,7.043-6.64,10.727-13.077,12.948C246.717,398.749,244.132,398.749,241.548,398.749z
		 M238.842,381.601c-0.053,4.104,2.927,7.158,6.973,7.146c3.905-0.012,6.887-2.962,6.945-6.874c0.062-4.112-2.883-7.1-6.992-7.091
		C241.819,374.792,238.894,377.672,238.842,381.601z"/>
	<path fill-rule="evenodd" clip-rule="evenodd" fill="#FBFCFD" d="M249.301,398.749c6.438-2.222,11.538-5.905,13.077-12.948
		c0.535-2.449,0.262-5.074,0.357-7.618c0.038-17.414,0.086-34.83,0.112-52.245c0.018-11.183,0.005-22.365,0.003-33.547
		c-0.002-10.023-3.697-15.217-13.157-18.531c-0.165-0.058-0.263-0.306-0.393-0.464c4.738,0,9.478,0,14.216,0
		c0,41.784,0,83.568,0,125.354C258.779,398.749,254.04,398.749,249.301,398.749z"/>
	<path fill-rule="evenodd" clip-rule="evenodd" fill="#FEFBF7" d="M150.441,273.395c-6.688,2.034-10.992,6.573-13.57,12.923
		c0-4.308,0-8.615,0-12.923C141.395,273.395,145.917,273.395,150.441,273.395z"/>
	<path fill-rule="evenodd" clip-rule="evenodd" fill="#FDFAF8" d="M136.871,385.825c2.417,6.52,6.805,10.97,13.57,12.924
		c-4.523,0-9.046,0-13.57,0C136.871,394.44,136.871,390.133,136.871,385.825z"/>
	<path fill-rule="evenodd" clip-rule="evenodd" fill="#664CA3" d="M228.686,341.218c-0.015,13.758-0.07,27.516-0.006,41.273
		c0.011,2.282,0.542,4.562,0.832,6.842c-9.797-9.743-19.594-19.486-29.39-29.23c4.032-4.133,8.052-8.278,12.101-12.394
		c3.077-3.128,4.758-6.908,4.681-11.244c-0.049-2.729-0.771-5.446-1.192-8.169c4.287,4.038,8.576,8.075,12.863,12.111
		C228.612,340.678,228.649,340.948,228.686,341.218z"/>
	<path fill-rule="evenodd" clip-rule="evenodd" fill="#D65038" d="M169.811,389.674c2.678-16.133,0.765-32.381,1.224-48.57
		c0.039-0.237,0.079-0.473,0.119-0.71c4.29-4.037,8.58-8.074,12.871-12.112c0.009,0.318,0.116,0.673,0.015,0.951
		c-3.395,9.206,0.014,16.163,7,22.168c3.073,2.641,5.706,5.792,8.539,8.712C189.657,369.966,179.734,379.821,169.811,389.674z"/>
	<path fill-rule="evenodd" clip-rule="evenodd" fill="#57172E" d="M199.579,360.113c-2.833-2.92-5.466-6.071-8.539-8.712
		c-6.986-6.005-10.395-12.962-7-22.168c0.102-0.278-0.006-0.633-0.015-0.951l-0.021,0.031c0.229-0.278,0.459-0.557,0.688-0.835
		c6.461-7.813,13.471-10.636,20.946-7.347c3.536,1.556,6.301,4.865,9.416,7.381c0.225,0.27,0.448,0.536,0.672,0.804l-0.015-0.02
		c0.421,2.723,1.144,5.439,1.192,8.169c0.077,4.336-1.604,8.116-4.681,11.244c-4.049,4.115-8.068,8.261-12.101,12.394
		c-0.001,0-0.272-0.006-0.272-0.006L199.579,360.113z M206.812,335.94c-0.04-3.84-3.105-6.946-6.893-6.981
		c-3.914-0.036-7.066,3.187-7.022,7.181c0.041,3.803,3.174,6.994,6.902,7.032C203.627,343.21,206.852,339.885,206.812,335.94z"/>
	<path fill-rule="evenodd" clip-rule="evenodd" fill="#664CA3" d="M215.726,328.316c-0.224-0.268-0.447-0.534-0.672-0.804
		C215.278,327.78,215.502,328.047,215.726,328.316z"/>
	<path fill-rule="evenodd" clip-rule="evenodd" fill="#D65038" d="M184.692,327.478c-0.229,0.278-0.459,0.557-0.688,0.835
		C184.233,328.035,184.462,327.756,184.692,327.478z"/>
	<path fill-rule="evenodd" clip-rule="evenodd" fill="#664CA3" d="M229.609,389.445c0.323,0.293,0.646,0.586,0.97,0.88
		C230.256,390.031,229.932,389.738,229.609,389.445z"/>
</g>
</svg>
