<?xml version="1.0" encoding="utf-8"?>
<!-- Generator: Adobe Illustrator 16.0.0, SVG Export Plug-In . SVG Version: 6.00 Build 0)  -->
<!DOCTYPE svg PUBLIC "-//W3C//DTD SVG 1.1//EN" "http://www.w3.org/Graphics/SVG/1.1/DTD/svg11.dtd">
<svg version="1.1" id="Layer_1" xmlns="http://www.w3.org/2000/svg" xmlns:xlink="http://www.w3.org/1999/xlink" x="0px" y="0px"
	 width="200px" height="200px" viewBox="99.225 235.426 200 200" enable-background="new 99.225 235.426 200 200"
	 xml:space="preserve">
<g id="ANYb3s.tif">
	<g>
		<path fill-rule="evenodd" clip-rule="evenodd" fill="#444444" d="M164,380.084c0.706-0.251,1.413-0.501,2.119-0.754
			c0.701-0.252,1.4-0.505,2.101-0.757c-0.021-0.083-0.042-0.167-0.063-0.25c-0.22,0.025-0.453,0.016-0.66,0.083
			c-1.053,0.345-2.116,0.668-3.143,1.082c-0.662,0.268-1.149,0.178-1.687-0.282c-2.484-2.125-4.85-4.376-6.872-6.943
			c-1.684-2.138-3.225-4.392-4.782-6.627c-0.197-0.283-0.238-0.798-0.141-1.146c0.714-2.534,1.512-5.046,2.212-7.584
			c0.205-0.743,0.07-1.58,0.278-2.321c0.812-2.89,1.7-5.756,2.557-8.633c0.704-2.366,1.401-4.735,2.104-7.103
			c0.044-0.148,0.102-0.291,0.177-0.503c0.201,0.137,0.351,0.239,0.502,0.342c0.057-0.074,0.113-0.123,0.104-0.141
			c-0.289-0.574,0.085-0.942,0.353-1.4c0.582-0.995,1.071-2.045,1.589-3.078c1.389-2.768,2.771-5.537,4.159-8.305
			c0.06-0.118,0.146-0.223,0.345-0.518c0.51,4.15,0.995,8.112,1.492,12.16c-2.084-0.128-4.08-0.25-6.076-0.372
			c-0.023,0.119-0.048,0.238-0.071,0.357c0.266,0.094,0.527,0.247,0.8,0.271c1.564,0.137,3.131,0.269,4.699,0.345
			c0.562,0.027,0.783,0.163,0.852,0.775c0.459,4.086,0.968,8.168,1.466,12.25c0.531,4.356,1.064,8.713,1.604,13.069
			c0.284,2.292,0.581,4.582,0.878,6.873c0.014,0.104,0.087,0.199,0.132,0.298c0.069,0.007,0.138,0.012,0.206,0.018
			c0.034-0.251,0.121-0.509,0.093-0.753c-0.266-2.39-0.541-4.776-0.831-7.162c-0.622-5.116-1.254-10.23-1.88-15.346
			c-0.348-2.845-0.691-5.689-1.037-8.534c-0.017-0.138-0.045-0.274-0.057-0.412c-0.069-0.869,0.03-0.972,0.897-0.903
			c2.67,0.211,5.34,0.433,8.011,0.624c0.291,0.021,0.59-0.169,0.891-0.195c0.52-0.046,1.044-0.045,1.566-0.053
			c0.224-0.004,0.448,0.021,0.706-0.132c-0.245-0.051-0.489-0.128-0.737-0.146c-3.504-0.244-7.009-0.48-10.514-0.717
			c-1.011-0.068-1-0.067-1.133-1.127c-0.495-3.988-0.999-7.976-1.525-12.168c0.282,0.275,0.453,0.427,0.607,0.593
			c3.722,4.024,7.438,8.053,11.17,12.067c0.259,0.278,0.634,0.451,0.954,0.673c-0.171-0.334-0.28-0.723-0.521-0.992
			c-1.498-1.669-3.028-3.309-4.543-4.961c-2.45-2.673-4.897-5.349-7.352-8.029c4.739-7.988,9.502-16.014,14.261-24.042
			c1.462-2.465,2.918-4.933,4.368-7.404c0.227-0.386,0.539-0.754,0.287-1.275c-0.06-0.121,0.056-0.359,0.145-0.514
			c1.321-2.304,2.652-4.603,3.912-6.784c1.899,0.943,3.748,1.86,5.597,2.778c1.861,0.924,3.723,1.845,5.581,2.771
			c1.879,0.936,3.736,1.915,5.637,2.806c1.846,0.866,3.568,2.041,5.583,2.509c0.043-0.095,0.086-0.188,0.129-0.283
			c-7.069-3.479-14.138-6.958-21.408-10.537c0.367-0.132,0.533-0.215,0.709-0.251c3.703-0.781,7.407-1.555,11.111-2.335
			c1.558-0.328,3.143-0.57,4.661-1.029c1.991-0.603,3.898-0.37,5.857,0.108c10.465,2.557,19.535,7.585,27.188,15.176
			c3.252,3.226,6.054,6.798,8.456,10.69c0.132,0.214,0.249,0.437,0.482,0.846c-8.631-2.794-17.087-5.531-25.545-8.271
			c-0.051,0.103-0.102,0.204-0.152,0.306c0.213,0.133,0.41,0.311,0.642,0.39c2.032,0.693,4.065,1.382,6.106,2.047
			c5.398,1.759,10.802,3.506,16.204,5.258c0.769,0.249,1.528,0.528,2.31,0.729c0.604,0.155,0.999,0.475,1.293,1.025
			c2.18,4.092,4.022,8.317,5.049,12.857c0.544,2.406,1.099,4.817,1.461,7.255c0.652,4.387,0.626,8.797,0.167,13.21
			c-0.657,6.329-2.331,12.373-5.041,18.124c-3.53,7.488-8.438,13.922-14.758,19.292c-3.526,2.996-7.322,5.569-11.476,7.59
			c-2.112,1.028-4.284,1.961-6.493,2.759c-4.064,1.468-8.259,2.411-12.566,2.889c-7.104,0.789-14.092,0.257-20.996-1.569
			c-7.495-1.982-14.268-5.405-20.387-10.148c-0.143-0.11-0.311-0.187-0.466-0.279C163.937,380.234,163.968,380.16,164,380.084z
			 M214.583,322.388c0.328-0.144,0.601-0.262,0.872-0.383c5.813-2.575,10.175-8.181,9.354-15.399
			c-0.416-3.668-1.929-6.729-5.005-8.89c-2.549-1.79-5.44-2.553-8.513-2.796c-4.669-0.368-9.164,0.342-13.522,2.026
			c-0.447,0.172-0.637,0.385-0.633,0.895c0.024,3.469,0.012,6.938,0.015,10.406c0.001,0.22,0.034,0.438,0.055,0.7
			c1.343,0,2.611-0.017,3.88,0.009c0.449,0.01,0.663-0.104,0.727-0.585c0.248-1.899,0.545-3.793,0.797-5.692
			c0.05-0.375,0.112-0.634,0.527-0.771c2.408-0.801,4.861-1.148,7.375-0.685c2.63,0.485,4.784,1.753,5.782,4.329
			c1.403,3.622,1.023,7.095-1.47,10.177c-1.72,2.126-4.076,3.313-6.647,4.048c-1.654,0.473-3.361,0.761-5.057,1.135
			c0,1.905,0,3.854,0,5.848c0.287,0,0.517-0.005,0.745,0c2.386,0.058,4.757,0.231,7.052,0.952c2.652,0.833,4.894,2.217,6.1,4.85
			c1.618,3.532,1.367,9.765-3.633,13.057c-2.2,1.448-4.648,2.122-7.237,2.35c-1.004,0.088-2.014,0.107-3.025,0.159
			c0,2.175,0,4.31,0,6.481c3.574-0.005,7.03-0.421,10.333-1.663c7.132-2.682,11.666-7.503,12.545-15.338
			c0.679-6.057-2.369-11.525-7.941-13.993C216.97,323.132,215.81,322.816,214.583,322.388z M186.619,327.861
			c0,13.307,0,26.673,0,39.94c-2.985,0.45-5.898,0.889-8.792,1.324c0,1.88,0,3.598,0,5.301c9.059,0,18.063,0,27.092,0
			c0-1.752,0-3.453,0-5.303c-2.957-0.441-5.892-0.88-8.918-1.332c0-15.546,0-31.137,0-46.655c-6.112,0-12.136,0-18.187,0
			c0,1.842,0,3.562,0,5.403C180.754,326.98,183.669,327.418,186.619,327.861z M172.713,376.671c0.067-0.271,0.131-0.49,0.178-0.713
			c1.652-7.814,3.303-15.629,4.955-23.442c0.372-1.763,0.822-3.512,1.097-5.289c0.267-1.729,1.049-3.373,0.631-5.234
			c-0.205-0.917,0.106-1.951,0.178-2.932c0.002-0.021-0.066-0.044-0.167-0.106c-0.054,0.18-0.115,0.339-0.149,0.503
			c-0.432,2.031-0.859,4.064-1.288,6.097c-1.807,8.582-3.614,17.164-5.414,25.748c-0.061,0.286-0.07,0.59-0.055,0.883
			c0.018,0.316,0.148,0.634,0.133,0.945C172.751,374.285,172.099,375.409,172.713,376.671z M208.637,375.964
			c0.003-0.097,0.006-0.192,0.01-0.288c-0.174-0.01-0.347-0.029-0.521-0.027c-5.318,0.074-10.637,0.146-15.955,0.229
			c-5.249,0.081-10.498,0.173-15.746,0.269c-0.271,0.005-0.54,0.083-0.812,0.129c-0.003,0.079-0.006,0.158-0.008,0.238
			c0.426,0.082,0.852,0.164,1.277,0.246c-0.006,0.088-0.013,0.176-0.019,0.263c-1.547,0-3.094,0-4.641,0
			c0.001,0.079,0.003,0.157,0.004,0.235c0.2,0.009,0.399,0.028,0.599,0.026c9.273-0.119,18.547-0.237,27.82-0.363
			c1.434-0.02,2.867-0.067,4.3-0.119c0.232-0.009,0.462-0.102,0.692-0.155c-0.006-0.081-0.013-0.161-0.019-0.242
			c-0.258-0.035-0.515-0.102-0.772-0.1c-2.821,0.021-5.641,0.054-8.462,0.075c-0.257,0.001-0.516-0.064-0.772-0.1
			c0.01-0.105,0.02-0.211,0.03-0.315C199.975,375.964,204.306,375.964,208.637,375.964z M229.268,323.679
			c-0.06,0.041-0.118,0.082-0.177,0.123c0,0.085-0.026,0.183,0.004,0.256c1.587,3.835,3.179,7.67,4.779,11.5
			c0.07,0.169,0.241,0.296,0.364,0.441c0.058-0.033,0.115-0.067,0.173-0.101c-0.044-0.189-0.063-0.389-0.137-0.566
			c-1.531-3.713-3.067-7.424-4.613-11.131C229.581,324.006,229.402,323.852,229.268,323.679z M202.38,367.637
			c-0.325-0.422-0.649-0.845-1.053-1.368C201.192,366.933,201.604,367.493,202.38,367.637z"/>
		<path fill-rule="evenodd" clip-rule="evenodd" fill="#444444" d="M189.097,283.08c-0.159,0.147-0.362,0.269-0.469,0.448
			c-4.557,7.667-9.104,15.341-13.654,23.013c-2.293,5.427-5.8,10.177-8.562,15.342c-0.151,0.283-0.327,0.553-0.514,0.866
			c-0.188-0.105-0.352-0.18-0.496-0.281c-5.503-3.824-11-7.657-16.513-11.466c-0.496-0.342-0.587-0.593-0.294-1.146
			c7.88-14.861,19.87-24.646,36.059-29.267c0.447-0.127,0.785-0.09,1.133,0.234c0.391,0.364,0.89,0.485,1.396,0.659
			c0.732,0.251,1.277,1.048,1.901,1.611L189.097,283.08z"/>
		<path fill-rule="evenodd" clip-rule="evenodd" fill="#444444" d="M149.97,363.981c-4.455-7.87-6.906-16.123-7.454-25.022
			c0.352-0.062,0.659-0.145,0.971-0.164c2.674-0.159,5.351-0.287,8.022-0.478c0.492-0.035,0.959-0.338,1.451-0.464
			c0.441-0.112,0.899-0.172,1.354-0.218c1.142-0.114,2.286-0.208,3.601-0.325C155.252,346.247,152.638,355.024,149.97,363.981z"/>
		<path fill-rule="evenodd" clip-rule="evenodd" fill="#444444" d="M165.065,322.867c-0.653,0.237-1.163,0.429-1.678,0.607
			c-3.802,1.314-7.607,2.617-11.402,3.951c-0.48,0.169-0.771,0.088-1.063-0.302c-0.525-0.704-1.077-1.388-1.63-2.069
			c-0.277-0.342-0.458-0.808-1.056-0.748c-0.134,0.014-0.315-0.244-0.442-0.403c-0.924-1.154-1.879-2.287-2.733-3.492
			c-0.224-0.315-0.282-0.911-0.153-1.288c0.862-2.527,1.795-5.029,2.748-7.658c0.387,0.237,0.598,0.354,0.796,0.49
			c1.752,1.205,3.379,2.681,5.282,3.559c3.183,1.47,5.732,3.842,8.713,5.576C163.313,321.593,164.112,322.214,165.065,322.867z"/>
		<path fill-rule="evenodd" clip-rule="evenodd" fill="#444444" d="M158.157,336.908c-1.312,0.1-2.389,0.196-3.468,0.259
			c-2.743,0.16-5.488,0.299-8.231,0.458c-1.06,0.062-2.12,0.133-3.176,0.244c-0.573,0.06-0.859-0.061-0.839-0.713
			c0.049-1.617,0.03-3.236,0.094-4.853c0.01-0.244,0.268-0.612,0.495-0.694c2.521-0.904,5.05-1.789,7.6-2.608
			c0.353-0.113,0.998,0.012,1.219,0.271C153.942,331.731,155.97,334.242,158.157,336.908z"/>
		<path fill-rule="evenodd" clip-rule="evenodd" fill="#444444" d="M158.583,336.824c-2.147-2.729-4.294-5.457-6.514-8.278
			c0.431-0.177,0.756-0.325,1.092-0.444c1.412-0.503,2.862-0.918,4.231-1.516c1.484-0.648,2.852-1.555,4.419-2.037
			c0.959-0.296,1.896-0.66,3.032-1.06c-0.197,0.422-0.303,0.665-0.421,0.901c-1.705,3.402-3.42,6.8-5.105,10.212
			c-0.156,0.316-0.111,0.729-0.191,1.088c-0.083,0.37-0.206,0.73-0.311,1.095C158.737,336.797,158.66,336.811,158.583,336.824z"/>
		<path fill-rule="evenodd" clip-rule="evenodd" fill="#444444" d="M189.084,283.093c0.144-0.093,0.286-0.186,0.52-0.337
			c-1.023-0.88-1.976-1.699-3.06-2.633c7.05-1.591,13.953-1.886,20.933-0.728c-0.693,0.155-1.385,0.315-2.078,0.465
			c-0.698,0.15-1.4,0.286-2.099,0.436c-4.218,0.898-8.432,1.808-12.652,2.689c-0.5,0.105-1.03,0.062-1.549,0.092
			C189.097,283.08,189.084,283.093,189.084,283.093z"/>
		<path fill-rule="evenodd" clip-rule="evenodd" fill="#444444" d="M144.493,320.474c2.018,2.558,3.921,4.973,5.9,7.482
			c-2.64,0.912-5.137,1.775-7.744,2.676C142.968,327.157,143.557,323.884,144.493,320.474z"/>
	</g>
</g>
</svg>
