<?xml version="1.0" encoding="utf-8"?>
<!-- Generator: Adobe Illustrator 16.0.0, SVG Export Plug-In . SVG Version: 6.00 Build 0)  -->
<!DOCTYPE svg PUBLIC "-//W3C//DTD SVG 1.1//EN" "http://www.w3.org/Graphics/SVG/1.1/DTD/svg11.dtd">
<svg version="1.1" id="Layer_1" xmlns="http://www.w3.org/2000/svg" xmlns:xlink="http://www.w3.org/1999/xlink" x="0px" y="0px"
	 width="200px" height="200px" viewBox="99.225 235.426 200 200" enable-background="new 99.225 235.426 200 200"
	 xml:space="preserve">
<g>
	<path fill="#444444" d="M151.004,348.68c-3.825,0-6.983-1.272-9.306-3.546v17.118h-9.807V319.43h9.694v3.212h0.113
		c2.102-2.328,5.427-4.041,9.306-4.041c8.31,0,14.129,6.703,14.129,15.013C165.133,341.922,159.314,348.68,151.004,348.68z
		 M148.069,326.963c-3.822,0-6.592,2.771-6.592,6.65c0,3.933,2.932,6.703,6.592,6.703c3.711,0,6.647-2.771,6.647-6.703
		C154.716,329.734,152.055,326.963,148.069,326.963z"/>
	<path fill="#444444" d="M181.219,347.85l-15.237-28.42h11.303l6.925,15.347l6.816-15.347h6.758l6.812,15.347l6.929-15.347h11.3
		l-15.233,28.42h-6.649l-6.536-14.684l-6.541,14.684H181.219z"/>
	<path fill="#444444" d="M237.426,318.601c3.825,0,6.982,1.271,9.307,3.544v-2.715h9.807v28.42h-9.695v-3.213h-0.111
		c-2.103,2.328-5.428,4.043-9.307,4.043c-8.31,0-14.129-6.704-14.129-15.013C223.297,325.358,229.117,318.601,237.426,318.601z
		 M240.363,340.317c3.821,0,6.595-2.771,6.595-6.649c0-3.934-2.936-6.704-6.595-6.704c-3.712,0-6.649,2.771-6.649,6.704
		C233.713,337.546,236.375,340.317,240.363,340.317z"/>
	<path fill="#444444" d="M276.559,342.364c0,3.492-2.824,6.316-6.37,6.316c-3.491,0-6.315-2.824-6.315-6.316
		c0-3.545,2.824-6.369,6.315-6.369C273.735,335.995,276.559,338.819,276.559,342.364z"/>
</g>
</svg>
