<?xml version="1.0" encoding="utf-8"?>
<!-- Generator: Adobe Illustrator 16.0.0, SVG Export Plug-In . SVG Version: 6.00 Build 0)  -->
<!DOCTYPE svg PUBLIC "-//W3C//DTD SVG 1.1//EN" "http://www.w3.org/Graphics/SVG/1.1/DTD/svg11.dtd">
<svg version="1.1" id="Layer_2" xmlns="http://www.w3.org/2000/svg" xmlns:xlink="http://www.w3.org/1999/xlink" x="0px" y="0px"
	 width="200px" height="200px" viewBox="250.5 325.5 200 200" enable-background="new 250.5 325.5 200 200" xml:space="preserve">
<circle fill="#444444" cx="350.5" cy="425.354" r="15.609"/>
<path fill="none" stroke="#444444" stroke-width="7.4674" stroke-miterlimit="10" d="M350.5,393.617
	c20.957,0,40.426,3.007,55.105,8.061c17.686,6.088,28.561,15.318,28.561,23.676c0,8.709-11.525,18.514-30.518,24.808
	c-14.36,4.757-33.255,7.24-53.148,7.24c-20.396,0-39.711-2.331-54.229-7.294c-18.372-6.279-29.438-16.211-29.438-24.754
	c0-8.29,10.383-17.448,27.82-23.527C309.388,396.689,329.338,393.617,350.5,393.617z"/>
<path fill="none" stroke="#444444" stroke-width="7.4674" stroke-miterlimit="10" d="M322.872,409.576
	c10.47-18.154,22.802-33.517,34.513-43.709c14.11-12.279,27.537-17.089,34.777-12.913c7.544,4.35,10.28,19.232,6.244,38.828
	c-3.053,14.816-10.341,32.425-20.279,49.659c-10.189,17.67-21.858,33.235-33.409,43.334c-14.618,12.776-28.75,17.401-36.151,13.134
	c-7.18-4.142-9.926-17.711-6.481-35.854C304.995,446.725,312.3,427.909,322.872,409.576z"/>
<path fill="none" stroke="#444444" stroke-width="7.4674" stroke-miterlimit="10" d="M322.898,441.487
	c-10.499-18.137-17.65-36.492-20.632-51.729c-3.592-18.357-1.053-32.394,6.181-36.579c7.537-4.364,21.797,0.697,36.758,13.982
	c11.312,10.043,22.928,25.151,32.896,42.368c10.218,17.652,17.878,35.536,20.856,50.587c3.771,19.046,0.719,33.598-6.675,37.878
	c-7.174,4.153-20.301-0.243-34.3-12.29C346.155,475.528,333.502,459.802,322.898,441.487z"/>
</svg>
