<?xml version="1.0" encoding="utf-8"?>
<!-- Generator: Adobe Illustrator 16.0.0, SVG Export Plug-In . SVG Version: 6.00 Build 0)  -->
<!DOCTYPE svg PUBLIC "-//W3C//DTD SVG 1.1//EN" "http://www.w3.org/Graphics/SVG/1.1/DTD/svg11.dtd">
<svg version="1.1" id="Layer_1" xmlns="http://www.w3.org/2000/svg" xmlns:xlink="http://www.w3.org/1999/xlink" x="0px" y="0px"
	 width="200px" height="200px" viewBox="0.5 50.5 200 200" enable-background="new 0.5 50.5 200 200" xml:space="preserve">
<g>
	<path fill="#444444" d="M130.166,179.465c5.677-0.588,9.98-5.48,9.786-11.353c-0.195-5.871-5.088-10.569-10.96-10.569h-0.39
		c-6.07,0.199-10.765,5.287-10.569,11.353c0.195,2.937,1.369,5.482,3.131,7.241c-6.655,13.114-16.831,22.705-32.098,30.729
		c-10.37,5.478-21.135,7.435-31.899,6.066c-8.807-1.174-15.657-5.088-19.964-11.548c-6.262-9.591-6.85-19.961-1.563-30.336
		c3.715-7.434,9.587-12.916,13.306-15.656c-0.784-2.543-1.958-6.851-2.542-9.98C18.025,165.96,20.96,193.75,29.569,206.865
		c6.46,9.785,19.571,15.853,34.054,15.853c3.915,0,7.829-0.391,11.743-1.369C100.42,216.456,119.402,201.579,130.166,179.465z"/>
	<path fill="#444444" d="M164.61,155.196c-14.873-17.419-36.791-27.011-61.844-27.011h-3.131c-1.763-3.521-5.481-5.871-9.591-5.871
		h-0.391c-6.065,0.199-10.764,5.286-10.569,11.354c0.196,5.871,5.089,10.569,10.96,10.569h0.394
		c4.305-0.195,8.023-2.936,9.587-6.655h3.524c14.873,0,28.967,4.305,41.688,12.722c9.785,6.46,16.83,14.873,20.745,25.052
		c3.325,8.219,3.131,16.243-0.394,23.092c-5.478,10.375-14.679,16.052-26.812,16.052c-7.829,0-15.267-2.351-19.182-4.113
		c-2.152,1.957-6.066,5.092-8.807,7.049c8.417,3.914,17.029,6.066,25.248,6.066c18.787,0,32.686-10.375,37.969-20.745
		C179.684,191.403,179.289,171.832,164.61,155.196z"/>
	<path fill="#444444" d="M65.191,182.791c0.194,5.871,5.087,10.569,10.958,10.569h0.391c6.069-0.194,10.764-5.282,10.569-11.353
		c-0.195-5.871-5.088-10.565-10.96-10.565h-0.389c-0.395,0-0.979,0-1.373,0.194c-8.023-13.311-11.35-27.793-10.176-43.451
		c0.784-11.742,4.698-21.918,11.549-30.335c5.672-7.239,16.635-10.764,24.07-10.959c20.745-0.39,29.552,25.443,30.141,35.816
		c2.545,0.585,6.85,1.957,9.785,2.937C137.409,93.937,117.838,77.5,99.047,77.5c-17.614,0-33.855,12.721-40.316,31.509
		c-9.002,25.049-3.13,49.123,7.829,68.105C65.58,178.487,64.996,180.639,65.191,182.791z"/>
</g>
</svg>
