<?xml version="1.0" encoding="utf-8"?>
<!-- Generator: Adobe Illustrator 16.0.0, SVG Export Plug-In . SVG Version: 6.00 Build 0)  -->
<!DOCTYPE svg PUBLIC "-//W3C//DTD SVG 1.1//EN" "http://www.w3.org/Graphics/SVG/1.1/DTD/svg11.dtd">
<svg version="1.1" id="Layer_1" xmlns="http://www.w3.org/2000/svg" xmlns:xlink="http://www.w3.org/1999/xlink" x="0px" y="0px"
	 width="200px" height="200px" viewBox="99.225 235.426 200 200" enable-background="new 99.225 235.426 200 200"
	 xml:space="preserve">
<g>
	<path fill="#444444" d="M133.226,332.104c3.04,0,4.949-1.344,4.949-4.598v-18.877c0-5.868,2.192-12.798,11.243-12.798h6.856v9.051
		h-2.827c-2.475,0-4.455,1.98-4.455,4.808v18.171c0,4.03-1.909,6.293-4.312,7.565c2.404,1.272,4.312,3.605,4.312,7.565v18.171
		c0,2.827,1.98,4.808,4.455,4.808h2.827v9.051h-6.856c-9.051,0-11.243-6.93-11.243-12.798v-18.877c0-3.254-1.909-4.597-4.949-4.597
		V332.104z"/>
	<path fill="#444444" d="M181.798,349.637c0,4.456-3.607,8.061-8.132,8.061c-4.454,0-8.06-3.604-8.06-8.061
		c0-4.523,3.605-8.13,8.06-8.13C178.191,341.507,181.798,345.114,181.798,349.637z"/>
	<path fill="#444444" d="M207.321,349.637c0,4.456-3.605,8.061-8.131,8.061c-4.454,0-8.061-3.604-8.061-8.061
		c0-4.523,3.606-8.13,8.061-8.13C203.715,341.507,207.321,345.114,207.321,349.637z"/>
	<path fill="#444444" d="M232.844,349.637c0,4.456-3.605,8.061-8.131,8.061c-4.453,0-8.061-3.604-8.061-8.061
		c0-4.523,3.607-8.13,8.061-8.13C229.239,341.507,232.844,345.114,232.844,349.637z"/>
	<path fill="#444444" d="M265.225,338.75c-3.04,0-4.949,1.343-4.949,4.597v18.877c0,5.868-2.191,12.798-11.242,12.798h-6.857v-9.051
		h2.827c2.475,0,4.454-1.98,4.454-4.808v-18.171c0-3.96,1.911-6.293,4.313-7.565c-2.402-1.272-4.313-3.535-4.313-7.565V309.69
		c0-2.827-1.979-4.808-4.454-4.808h-2.827v-9.051h6.857c9.051,0,11.242,6.93,11.242,12.798v18.877c0,3.254,1.909,4.598,4.949,4.598
		V338.75z"/>
</g>
</svg>
