<?xml version="1.0" encoding="utf-8"?>
<!-- Generator: Adobe Illustrator 16.0.0, SVG Export Plug-In . SVG Version: 6.00 Build 0)  -->
<!DOCTYPE svg PUBLIC "-//W3C//DTD SVG 1.1//EN" "http://www.w3.org/Graphics/SVG/1.1/DTD/svg11.dtd">
<svg version="1.1" id="Layer_1" xmlns="http://www.w3.org/2000/svg" xmlns:xlink="http://www.w3.org/1999/xlink" x="0px" y="0px"
	 width="200px" height="200px" viewBox="99.225 235.426 200 200" enable-background="new 99.225 235.426 200 200"
	 xml:space="preserve">
<g fill="#444444">
	<g>
		<path fill-rule="evenodd" clip-rule="evenodd" d="M169.049,374.642c-13.104-19.563-26.244-39.103-39.262-58.724
			c-1.46-2.201-2.885-3.766-5.692-3.349v45.711c2.413,0.28,2.846-0.919,2.833-3.126c-0.074-11.823,0.014-23.648,0.078-35.473
			c0.005-0.834,0.27-1.666,0.414-2.5c0.504,0.609,1.058,1.184,1.504,1.833c8.623,12.544,17.147,25.155,25.879,37.623
			c4.672,6.672,9.692,13.101,14.565,19.631c0.192,0.257,0.49,0.434,0.739,0.647c-0.058-0.311-0.048-0.654-0.186-0.923
			C169.678,375.519,169.348,375.088,169.049,374.642z"/>
		<path fill-rule="evenodd" clip-rule="evenodd" d="M189.634,355.68c-7.432-0.001-14.865-0.057-22.296,0.038
			c-1.825,0.022-2.484-0.416-2.434-2.354c0.133-5.101,0.137-10.21-0.001-15.31c-0.053-1.97,0.654-2.369,2.46-2.346
			c7.073,0.092,14.147,0.069,21.222-0.01c0.763-0.008,2.1-0.56,2.176-1.022c0.298-1.821-1.283-1.274-2.2-1.279
			c-7.163-0.044-14.328-0.064-21.49,0.003c-1.603,0.015-2.199-0.418-2.158-2.113c0.109-4.564,0.122-9.135-0.004-13.698
			c-0.052-1.856,0.452-2.451,2.371-2.424c7.699,0.106,15.401,0.075,23.102-0.01c0.724-0.008,1.439-0.753,2.159-1.155
			c-0.697-0.436-1.391-1.244-2.092-1.251c-8.685-0.087-17.372-0.01-26.057-0.096c-1.812-0.018-2.264,0.6-2.242,2.317
			c0.083,6.805,0.034,13.61,0.034,20.416c0,6.895,0.043,13.79-0.031,20.685c-0.018,1.64,0.501,2.156,2.143,2.136
			c6.446-0.079,12.895-0.032,19.342-0.032c2.597-0.001,5.197,0.067,7.787-0.065c0.512-0.026,0.984-0.831,1.475-1.276
			c-0.462-0.382-0.869-0.92-1.399-1.103C190.939,355.537,190.261,355.68,189.634,355.68z"/>
		<path fill-rule="evenodd" clip-rule="evenodd" d="M216.552,337.436c-1.493-1.967-1.511-3.238-0.066-5.282
			c7.954-11.254,15.727-22.637,23.541-33.989c0.317-0.462,0.434-1.062,0.644-1.597c-0.438,0.364-0.895,0.708-1.307,1.099
			c-0.258,0.243-0.452,0.555-0.668,0.84c-8.153,10.778-16.332,21.538-24.431,32.357c-1.094,1.46-1.591,1.669-2.732,0.02
			c-3.871-5.592-7.879-11.09-11.891-16.583c-0.566-0.774-1.443-1.321-1.932-1.757c-1.016,0.18-1.446,0.256-1.876,0.332
			c0.188,0.471,0.292,1.002,0.578,1.403c4.37,6.118,8.673,12.287,13.207,18.281c1.361,1.8,1.175,2.89-0.092,4.568
			c-4.742,6.288-9.328,12.694-13.943,19.076c-0.383,0.528-0.548,1.214-0.814,1.825c0.798,0.021,1.692,0.274,2.365-0.006
			c0.667-0.276,1.177-1.043,1.641-1.678c4.275-5.855,8.588-11.686,12.745-17.624c1.186-1.693,1.706-1.409,2.745,0.063
			c4.128,5.851,8.356,11.63,12.554,17.431c0.419,0.579,0.78,1.43,1.348,1.619c0.856,0.286,1.871,0.103,2.818,0.119
			c-0.283-0.615-0.475-1.296-0.862-1.836C225.634,349.866,221.207,343.565,216.552,337.436z"/>
		<path fill-rule="evenodd" clip-rule="evenodd" d="M265.745,312.753c-10.396-0.083-20.791-0.082-31.187-0.005
			c-0.599,0.005-1.191,0.812-1.787,1.246c0.619,0.404,1.229,1.14,1.858,1.157c3.85,0.109,7.709,0.161,11.557,0.013
			c1.978-0.077,2.64,0.449,2.596,2.52c-0.134,6.359-0.049,12.725-0.049,19.087c0,1.882,0,3.764,0,5.646
			c0.002,4.66-0.046,9.321,0.062,13.979c0.014,0.599,0.838,1.178,1.287,1.766c0.475-0.556,1.068-1.053,1.385-1.688
			c0.216-0.431,0.043-1.055,0.043-1.593c0-12.277,0.082-24.556-0.068-36.831c-0.031-2.493,0.747-2.999,3.015-2.891
			c3.755,0.18,7.526,0.095,11.288-0.002c0.583-0.016,1.149-0.691,1.724-1.062C266.894,313.627,266.323,312.757,265.745,312.753z"/>
	</g>
	<g>
		<path d="M265.584,353.815h1.225v1.277h-1.225V353.815z"/>
		<path d="M273.038,352.526c0,0.727-0.107,1.291-0.322,1.693c-0.399,0.734-1.158,1.102-2.276,1.102
			c-0.646,0-1.197-0.175-1.654-0.524c-0.458-0.35-0.687-0.972-0.687-1.866v-0.615h1.096v0.615c0,0.469,0.104,0.821,0.314,1.058
			c0.209,0.236,0.535,0.354,0.978,0.354c0.622,0,1.029-0.213,1.222-0.639c0.117-0.262,0.176-0.756,0.176-1.482v-5.736h1.154V352.526
			z"/>
		<path d="M275.569,352.315c0.026,0.488,0.138,0.885,0.333,1.189c0.372,0.57,1.029,0.855,1.97,0.855
			c0.422,0,0.806-0.062,1.151-0.188c0.67-0.242,1.005-0.676,1.005-1.301c0-0.469-0.142-0.803-0.426-1.002
			c-0.287-0.195-0.738-0.365-1.351-0.51l-1.13-0.264c-0.738-0.172-1.26-0.361-1.566-0.568c-0.53-0.359-0.795-0.896-0.795-1.611
			c0-0.773,0.261-1.408,0.781-1.904s1.258-0.744,2.212-0.744c0.878,0,1.624,0.218,2.238,0.653s0.921,1.132,0.921,2.089h-1.096
			c-0.057-0.461-0.176-0.814-0.359-1.061c-0.341-0.449-0.92-0.674-1.736-0.674c-0.659,0-1.133,0.145-1.421,0.434
			s-0.433,0.625-0.433,1.008c0,0.422,0.17,0.73,0.511,0.926c0.224,0.125,0.729,0.281,1.516,0.469l1.17,0.275
			c0.563,0.133,0.999,0.314,1.306,0.545c0.53,0.402,0.795,0.986,0.795,1.752c0,0.953-0.338,1.635-1.015,2.045
			c-0.676,0.41-1.462,0.615-2.356,0.615c-1.044,0-1.861-0.273-2.452-0.82c-0.591-0.543-0.88-1.279-0.868-2.209H275.569z"/>
	</g>
</g>
</svg>
