<?xml version="1.0" encoding="utf-8"?>
<!-- Generator: Adobe Illustrator 16.0.0, SVG Export Plug-In . SVG Version: 6.00 Build 0)  -->
<!DOCTYPE svg PUBLIC "-//W3C//DTD SVG 1.1//EN" "http://www.w3.org/Graphics/SVG/1.1/DTD/svg11.dtd">
<svg version="1.1" id="Layer_1" xmlns="http://www.w3.org/2000/svg" xmlns:xlink="http://www.w3.org/1999/xlink" x="0px" y="0px"
	 width="200px" height="200px" viewBox="99.225 235.426 200 200" enable-background="new 99.225 235.426 200 200"
	 xml:space="preserve">
<g>
	<path fill="#444444" d="M169.482,320.374l-3.218,6.436c0,0-3.327-1.775-6.322-1.775c-2.165,0-3.052,0.389-3.052,1.72
		c0,1.498,1.997,1.941,4.438,2.718c3.772,1.166,8.653,3.272,8.653,9.098c0,8.375-7.655,9.707-13.479,9.707
		c-6.878,0-10.983-3.827-10.983-3.827l3.994-6.712c0,0,3.883,3.272,7.046,3.272c1.386,0,3.05-0.166,3.05-2.053
		c0-2.052-3.106-2.218-6.323-3.883c-2.885-1.498-5.77-3.495-5.77-7.766c0-5.824,4.938-9.152,12.427-9.152
		C165.432,318.156,169.482,320.374,169.482,320.374z"/>
	<path fill="#444444" d="M189.668,334.464l6.934-15.477h11.649l-15.256,28.456h-6.655l-15.255-28.456h11.648L189.668,334.464z"/>
	<path fill="#444444" d="M217.897,350.495c1.055,1.721,3.438,3.661,7.71,3.661c2.719,0,6.934-1.608,6.934-6.657v-2.106
		c-2.107,2.329-5.436,2.884-9.318,2.884c-8.32,0-14.145-6.711-14.145-15.032s5.824-15.088,14.145-15.088
		c3.771,0,6.823,1.22,9.152,3.384h0.166v-2.552h9.818v29.232c0,9.542-7.044,14.478-16.752,14.478
		c-5.935,0-12.757-1.331-15.754-8.265L217.897,350.495z M226.162,339.9c3.827,0,6.602-2.774,6.602-6.656
		c0-3.939-2.94-6.712-6.602-6.712c-3.716,0-6.656,2.772-6.656,6.712C219.505,337.125,222.168,339.9,226.162,339.9z"/>
	<path fill="#444444" d="M262.932,341.952c0,3.495-2.829,6.324-6.379,6.324c-3.495,0-6.324-2.829-6.324-6.324
		c0-3.55,2.829-6.379,6.324-6.379C260.103,335.573,262.932,338.402,262.932,341.952z"/>
</g>
</svg>
