<?xml version="1.0" encoding="utf-8"?>
<!-- Generator: Adobe Illustrator 16.0.0, SVG Export Plug-In . SVG Version: 6.00 Build 0)  -->
<!DOCTYPE svg PUBLIC "-//W3C//DTD SVG 1.1//EN" "http://www.w3.org/Graphics/SVG/1.1/DTD/svg11.dtd">
<svg version="1.1" id="Layer_1" xmlns="http://www.w3.org/2000/svg" xmlns:xlink="http://www.w3.org/1999/xlink" x="0px" y="0px"
	 width="200px" height="200px" viewBox="862.865 541.707 200 200" enable-background="new 862.865 541.707 200 200"
	 xml:space="preserve">
<g>
	<g id="OpenGL">
		<g>
			<g>
				<path fill="#444444" d="M1009.989,656.526c-1.444,0.608-2.903,0.913-4.376,0.913c-2.325,0-4.413-0.404-6.271-1.213
					c-1.855-0.809-3.422-1.923-4.696-3.344c-1.275-1.42-2.253-3.087-2.933-5.003c-0.681-1.917-1.021-3.983-1.021-6.197
					c0-2.271,0.34-4.379,1.018-6.325c0.679-1.943,1.653-3.64,2.925-5.088c1.272-1.448,2.837-2.583,4.69-3.408
					c1.855-0.822,3.944-1.234,6.27-1.234c1.559,0,3.067,0.234,4.526,0.704s2.776,1.16,3.952,2.069
					c1.178,0.911,2.147,2.033,2.912,3.366c0.765,1.334,1.233,2.865,1.403,4.593h-6.376c-0.396-1.699-1.162-2.975-2.295-3.825
					c-1.134-0.851-2.508-1.274-4.123-1.274c-1.502,0-2.777,0.291-3.826,0.873c-1.047,0.582-1.897,1.363-2.55,2.342
					c-0.651,0.98-1.126,2.095-1.424,3.345c-0.297,1.249-0.445,2.54-0.445,3.874c0,1.278,0.149,2.521,0.447,3.727
					s0.773,2.292,1.426,3.258c0.65,0.966,1.503,1.737,2.553,2.319c1.049,0.584,2.325,0.874,3.831,0.874
					c2.212,0,3.921-0.558,5.127-1.674c1.205-1.117,1.907-2.735,2.107-4.854h-6.716v-4.994h12.732v16.41h-4.236l-0.679-3.441
					C1012.754,654.846,1011.435,655.917,1009.989,656.526z"/>
				<path fill="#444444" d="M1029.68,626.394v24.708h14.791v5.634h-21.449v-30.342H1029.68z"/>
			</g>
			<path fill="#444444" stroke="#FFFFFF" stroke-width="0.053" stroke-linecap="round" stroke-linejoin="round" d="M998.195,660.506
				c-10.186,6.196-25.441,9.723-42.463,9.723c-30.666,0-55.528-12.77-55.528-28.523c0-15.753,24.862-28.522,55.528-28.522
				c17.085,0,32.401,3.591,42.588,9.825c-11.118-10.444-31.053-17.785-53.847-17.787c-34.908-0.006-63.21,16.324-63.213,36.475
				c-0.003,20.149,28.294,36.489,63.202,36.495C967.166,678.195,987.049,670.879,998.195,660.506z"/>
		</g>
	</g>
	<g>
		<polygon fill="#444444" points="942.252,624.074 936.398,649.405 929.33,624.074 923.963,624.074 916.909,649.405 
			911.038,624.074 905.506,624.074 914.122,656.821 914.194,657.092 919.383,657.092 926.689,631.158 933.908,657.092 
			939.112,657.092 948.104,624.074 		"/>
		<path fill="#444444" d="M955.479,634.434c-6.642,0-10.606,4.569-10.606,12.224c0,6.704,3.896,11.038,9.924,11.038
			c3.428,0,4.907-0.788,6.023-1.526c2.879-1.899,3.867-5.106,3.985-6.08l0.046-0.371h-4.312l-0.024,0.306
			c-0.109,1.4-1.947,3.902-5.224,3.902c-4.683,0-5.798-3.385-5.872-6.366h15.678v-0.331
			C965.097,639.098,961.592,634.434,955.479,634.434z M949.424,644.038c0.165-3.129,2.645-5.713,5.562-5.713
			c3.473,0,5.329,1.87,5.668,5.713H949.424z"/>
		<path fill="#444444" d="M978.024,634.449c-2.453,0.039-4.461,0.971-5.978,2.773v-10.129h-4.295v30.003h4.088v-2.045
			c1,1.302,2.652,2.658,5.694,2.658c7.299,0,9.889-6.606,9.889-12.265C987.423,638.868,983.647,634.449,978.024,634.449z
			 M977.369,638.339c4.994,0,5.571,4.383,5.571,7.679c0,4.961-2.053,7.922-5.489,7.922c-2.569,0-5.569-1.796-5.569-6.86
			C971.882,641.199,973.676,638.339,977.369,638.339z"/>
	</g>
	<g id="Layer_4">
	</g>
</g>
</svg>
