<?xml version="1.0" encoding="utf-8"?>
<!-- Generator: Adobe Illustrator 16.0.0, SVG Export Plug-In . SVG Version: 6.00 Build 0)  -->
<!DOCTYPE svg PUBLIC "-//W3C//DTD SVG 1.1//EN" "http://www.w3.org/Graphics/SVG/1.1/DTD/svg11.dtd">
<svg version="1.1" id="Layer_1" xmlns="http://www.w3.org/2000/svg" xmlns:xlink="http://www.w3.org/1999/xlink" x="0px" y="0px"
	 width="200px" height="200px" viewBox="99.225 235.426 200 200" enable-background="new 99.225 235.426 200 200"
	 xml:space="preserve">
<path fill-rule="evenodd" clip-rule="evenodd" fill="#444444" d="M161.057,311.245c0.838-0.467,1.59-0.891,2.347-1.308
	c11.562-6.364,23.13-12.723,34.682-19.107c0.667-0.369,1.151-0.382,1.827-0.008c12.022,6.645,24.061,13.261,36.094,19.887
	c0.288,0.158,0.626,0.253,0.874,0.629c-2.646,1.527-5.282,3.049-7.916,4.57c-9.715,5.612-19.429,11.226-29.143,16.839
	c-0.461,0.267-0.831,0.482-1.441,0.129c-12.229-7.1-24.48-14.166-36.726-21.24C161.487,311.539,161.33,311.423,161.057,311.245z"/>
<path fill-rule="evenodd" clip-rule="evenodd" fill="#444444" d="M196.298,378.117c-3.792-2.085-7.408-4.071-11.022-6.06
	c-8.594-4.729-17.181-9.47-25.793-14.165c-0.825-0.45-1.089-0.95-1.086-1.87c0.03-12.916,0.021-25.834,0.021-38.751
	c0-0.356,0-0.712,0-1.068c0.431-0.04,0.653,0.196,0.904,0.341c12.075,6.969,24.147,13.945,36.228,20.907
	c0.512,0.295,0.767,0.59,0.766,1.234c-0.022,12.883-0.017,25.767-0.017,38.65C196.298,377.534,196.298,377.731,196.298,378.117z"/>
<path fill-rule="evenodd" clip-rule="evenodd" fill="#444444" d="M201.726,378.074c0-0.505,0-0.84,0-1.175
	c0-12.646,0.008-25.294-0.021-37.94c-0.002-0.819,0.268-1.235,0.963-1.636c11.939-6.867,23.862-13.765,35.789-20.653
	c1.085-0.627,1.091-0.622,1.091,0.595c0.001,13.017-0.001,26.034,0.007,39.051c0,0.592-0.042,1.026-0.686,1.379
	c-12.197,6.679-24.376,13.391-36.559,20.095C202.17,377.867,202.022,377.93,201.726,378.074z"/>
<path fill-rule="evenodd" clip-rule="evenodd" fill="#666666" d="M267.542,299.889c0,0.575,0,0.91,0,1.245c0,23.37,0,46.74,0,70.11
	c0,0.202-0.009,0.404,0.002,0.605c0.035,0.673-0.137,0.859-0.797,0.47c-2.4-1.416-4.828-2.786-7.241-4.181
	c-4.594-2.653-9.177-5.326-13.789-7.948c-0.635-0.361-0.776-0.775-0.775-1.44c0.015-14.964,0.015-29.928-0.001-44.892
	c-0.001-0.636,0.146-1.018,0.74-1.358c6.353-3.638,12.684-7.312,19.021-10.977C265.592,301.008,266.487,300.497,267.542,299.889z"/>
<path fill-rule="evenodd" clip-rule="evenodd" fill="#666666" d="M130.521,372.636c0-24.246,0-48.395,0-72.703
	c1.502,0.854,2.922,1.654,4.333,2.468c5.646,3.256,11.279,6.532,16.942,9.756c0.915,0.521,1.318,1.081,1.315,2.195
	c-0.043,14.734-0.036,29.468-0.01,44.201c0.002,0.851-0.262,1.349-0.992,1.768c-7.081,4.062-14.146,8.149-21.217,12.227
	C130.812,372.593,130.706,372.593,130.521,372.636z"/>
<path fill-rule="evenodd" clip-rule="evenodd" fill="#666666" d="M196.298,272.638c0,4.036-0.015,8.072,0.015,12.108
	c0.004,0.648-0.165,1.018-0.763,1.342c-4.399,2.388-8.774,4.82-13.159,7.234c-8.592,4.732-17.189,9.455-25.773,14.203
	c-0.746,0.413-1.311,0.479-2.113,0.009c-6.755-3.953-13.546-7.843-20.325-11.753c-0.286-0.165-0.741-0.265-0.744-0.607
	c-0.003-0.359,0.475-0.408,0.755-0.567c7.508-4.261,15.019-8.516,22.529-12.773c9.408-5.334,18.815-10.672,28.225-16.005
	c3.536-2.005,7.082-3.991,10.609-6.011c0.706-0.404,0.754-0.099,0.752,0.509C196.292,264.43,196.298,268.534,196.298,272.638z"/>
<path fill-rule="evenodd" clip-rule="evenodd" fill="#666666" d="M201.802,259.484c21.059,11.915,41.976,23.75,63.05,35.675
	c-1.769,1.036-3.379,1.991-5.001,2.926c-5.5,3.17-11.013,6.317-16.495,9.517c-0.649,0.379-1.118,0.373-1.745,0.025
	c-7.052-3.906-14.114-7.795-21.178-11.681c-5.003-2.752-10.013-5.494-15.02-8.239c-1.002-0.549-2.006-1.094-3.012-1.636
	c-0.441-0.238-0.68-0.53-0.679-1.102c0.022-8.273,0.015-16.547,0.018-24.82C201.741,259.985,201.77,259.822,201.802,259.484z"/>
<path fill-rule="evenodd" clip-rule="evenodd" fill="#666666" d="M196.298,397.751c0,4.204,0.003,8.409-0.007,12.614
	c-0.001,0.284,0.159,0.673-0.138,0.835c-0.288,0.157-0.543-0.163-0.798-0.308c-6.464-3.65-12.931-7.298-19.391-10.958
	c-6.78-3.841-13.551-7.701-20.333-11.541c-5.905-3.343-11.821-6.668-17.73-10.004c-0.79-0.445-1.552-0.943-2.361-1.352
	c-0.7-0.354-0.684-0.563-0.008-0.948c3.503-1.993,6.989-4.018,10.479-6.035c3.722-2.151,7.447-4.3,11.16-6.469
	c0.52-0.304,0.915-0.312,1.473-0.004c7.821,4.324,15.662,8.612,23.495,12.915c4.505,2.475,8.998,4.972,13.513,7.43
	c0.538,0.293,0.657,0.653,0.654,1.209C196.291,389.341,196.298,393.546,196.298,397.751z"/>
<path fill-rule="evenodd" clip-rule="evenodd" fill="#666666" d="M201.738,397.723c0-4.171,0.014-8.342-0.013-12.513
	c-0.005-0.648,0.174-1.021,0.77-1.346c6.604-3.606,13.191-7.244,19.782-10.875c5.679-3.128,11.358-6.254,17.03-9.395
	c0.514-0.285,0.908-0.349,1.473-0.021c7.232,4.199,14.483,8.368,21.736,12.532c0.547,0.313,0.757,0.494,0.046,0.895
	c-7.668,4.318-15.326,8.653-22.983,12.991c-9.411,5.33-18.816,10.67-28.228,16c-2.952,1.672-5.928,3.302-8.866,4.997
	c-0.685,0.396-0.756,0.205-0.754-0.451C201.746,406.266,201.738,401.995,201.738,397.723z"/>
</svg>
