<?xml version="1.0" encoding="utf-8"?>
<!-- Generator: Adobe Illustrator 16.0.0, SVG Export Plug-In . SVG Version: 6.00 Build 0)  -->
<!DOCTYPE svg PUBLIC "-//W3C//DTD SVG 1.1//EN" "http://www.w3.org/Graphics/SVG/1.1/DTD/svg11.dtd">
<svg version="1.1" id="Layer_1" xmlns="http://www.w3.org/2000/svg" xmlns:xlink="http://www.w3.org/1999/xlink" x="0px" y="0px"
	 width="50px" height="50px" viewBox="0 0 50 50" enable-background="new 0 0 50 50" xml:space="preserve">
<circle fill="none" stroke="#3D3D3D" stroke-miterlimit="10" cx="25" cy="25" r="20"/>
<g>
	<path fill="none" stroke="#3D3D3D" stroke-linejoin="round" d="M17.55,31.989h-3.11V18.342h3.11v5.442h4.4v-5.442h3.11v13.647
		h-3.11v-5.476h-4.4V31.989z"/>
	<path fill="none" stroke="#3D3D3D" stroke-linejoin="round" d="M30.294,19.996c0,0.96-0.778,1.737-1.737,1.737
		s-1.736-0.777-1.736-1.737c0-0.959,0.777-1.737,1.736-1.737S30.294,19.037,30.294,19.996z M27.052,31.989h2.927v-8.486h-2.927
		V31.989z"/>
	<path fill="none" stroke="#3D3D3D" stroke-linejoin="round" d="M35.838,30.352c0,1.043-0.844,1.885-1.902,1.885
		c-1.043,0-1.886-0.842-1.886-1.885c0-1.059,0.843-1.901,1.886-1.901C34.994,28.449,35.838,29.293,35.838,30.352z M32.479,17.763
		h2.929l-0.396,9.76h-2.135L32.479,17.763z"/>
</g>
</svg>
