<?xml version="1.0" encoding="utf-8"?>
<!-- Generator: Adobe Illustrator 16.0.0, SVG Export Plug-In . SVG Version: 6.00 Build 0)  -->
<!DOCTYPE svg PUBLIC "-//W3C//DTD SVG 1.1//EN" "http://www.w3.org/Graphics/SVG/1.1/DTD/svg11.dtd">
<svg version="1.1" id="Layer_1" xmlns="http://www.w3.org/2000/svg" xmlns:xlink="http://www.w3.org/1999/xlink" x="0px" y="0px"
	 width="50px" height="50px" viewBox="0 0 50 50" enable-background="new 0 0 50 50" xml:space="preserve">
<circle fill="none" stroke="#3D3D3D" stroke-miterlimit="10" cx="25" cy="25" r="20"/>
<path fill="none" stroke="#3D3D3D" stroke-linejoin="round" stroke-miterlimit="10" d="M24.085,31.458
	c0.927-0.617,1.889-1.354,2.855-2.195c0.006,0.003,0.011,0.007,0.016,0.009l-0.012-0.012c0.055-0.05,0.113-0.101,0.171-0.151
	c0.001,0.001,0.001,0.001,0.001,0.002c0.021,0.02,0.055,0.02,0.073-0.002c0.019-0.018,0.019-0.048,0.001-0.067
	c0.679-0.603,1.357-1.257,2.024-1.955c0.978-1.026,1.782-2.142,2.445-3.267c0.03,0.021,0.062,0.042,0.093,0.062l-0.084-0.078
	c1.016-1.732,1.692-3.486,2.142-4.974c-0.002-0.001-0.002-0.001-0.002-0.001c0.061,0.038,0.12,0.075,0.181,0.111
	c0.782-2.5,0.945-4.353,0.945-4.353s-1.841,0.251-4.303,1.15c0.04,0.059,0.079,0.117,0.121,0.174
	c-1.479,0.521-3.215,1.288-4.909,2.397l-0.082-0.078c0.021,0.029,0.045,0.059,0.066,0.088c-0.141,0.092-0.282,0.188-0.423,0.285l0,0
	l0,0c-0.933,0.648-1.845,1.403-2.686,2.285c-0.68,0.712-1.311,1.433-1.889,2.149c-0.021-0.017-0.053-0.016-0.072,0.003
	c-0.02,0.021-0.019,0.054,0.002,0.073c0.001,0.002,0.003,0.003,0.004,0.005c-0.048,0.06-0.096,0.121-0.142,0.178l-0.023-0.022
	c0.006,0.01,0.013,0.02,0.02,0.028c-0.782,0.989-1.463,1.972-2.027,2.914c-1.528,0.202-4.66,0.905-5.706,3.301
	c-1.401,3.214-0.436,3.353-0.436,3.353s2.221-2.183,3.358-2.628c0.473-0.184,0.737-0.145,0.883-0.033
	c-0.187,0.414-0.34,0.808-0.454,1.178c0,0,0.436,0.766,1.253,1.545c0.819,0.781,1.603,1.181,1.603,1.181
	c0.36-0.13,0.74-0.297,1.14-0.502c-0.131-0.24-0.417-0.235-0.488-0.231c0.115-0.009,0.808-0.015,0.449,1.049
	c-0.391,1.157-2.466,3.479-2.466,3.479s0.185,0.957,3.329-0.594C23.398,36.156,23.956,32.994,24.085,31.458z M16.878,30.628
	c-0.001-0.005-0.001-0.012,0-0.02C16.877,30.616,16.877,30.623,16.878,30.628z M16.878,30.608c-0.004-0.082-0.026-0.252-0.148-0.368
	C16.853,30.357,16.875,30.527,16.878,30.608z M16.728,30.237c-0.011-0.01-0.023-0.019-0.037-0.027
	C16.705,30.219,16.717,30.228,16.728,30.237z M16.877,30.653c-0.001,0.003,0,0.004,0,0.004S16.876,30.656,16.877,30.653z
	 M16.878,30.63c-0.001,0.006,0,0.009-0.001,0.015C16.878,30.639,16.877,30.636,16.878,30.63z M16.877,30.645
	c0,0.003,0,0.007,0,0.009C16.877,30.651,16.877,30.647,16.877,30.645z M19.729,33.38c0,0,0.002-0.002,0.003-0.002
	C19.73,33.38,19.729,33.38,19.729,33.38 M19.745,33.378c-0.005,0-0.009,0-0.009,0C19.736,33.378,19.739,33.378,19.745,33.378z"/>
</svg>
