<?xml version="1.0" encoding="utf-8"?>
<!-- Generator: Adobe Illustrator 16.0.0, SVG Export Plug-In . SVG Version: 6.00 Build 0)  -->
<!DOCTYPE svg PUBLIC "-//W3C//DTD SVG 1.1//EN" "http://www.w3.org/Graphics/SVG/1.1/DTD/svg11.dtd">
<svg version="1.1" id="Layer_1" xmlns="http://www.w3.org/2000/svg" xmlns:xlink="http://www.w3.org/1999/xlink" x="0px" y="0px"
	 width="50px" height="50px" viewBox="0 0 50 50" enable-background="new 0 0 50 50" xml:space="preserve">
<circle fill="none" stroke="#3D3D3D" stroke-miterlimit="10" cx="25" cy="25" r="20"/>
<path fill="none" stroke="#3D3D3D" stroke-linecap="round" stroke-linejoin="round" stroke-miterlimit="10" d="M-127.032,1.201"/>
<g>
	<path fill="none" stroke="#3D3D3D" stroke-linejoin="round" stroke-miterlimit="10" d="M33.964,26.291"/>
	<g>
		<path fill="none" stroke="#3D3D3D" stroke-linejoin="round" stroke-miterlimit="10" d="M18.239,28.06l6.979,6.978l-0.111,0.11
			c-0.488,0.489-1.279,0.489-1.768,0c-0.488-0.487-0.488-1.28,0-1.768l-0.442,0.441c-0.489,0.488-1.28,0.489-1.769,0.001
			c-0.53-0.531-0.781-0.988,0.553-2.321l-0.789,0.789c-0.488,0.488-1.279,0.488-1.768,0c-0.488-0.489-0.488-1.281,0-1.77
			l0.678-0.678c-0.488,0.489-1.279,0.489-1.768,0c-0.488-0.487-0.488-1.28,0-1.769L18.239,28.06L18.239,28.06z"/>
	</g>
	<path fill="none" stroke="#3D3D3D" stroke-linecap="round" stroke-linejoin="round" stroke-miterlimit="10" d="M25.327,24.538"/>
	<path fill="none" stroke="#3D3D3D" stroke-linecap="round" stroke-linejoin="round" stroke-miterlimit="10" d="M25.327,21.001"/>
	<path fill="none" stroke="#3D3D3D" stroke-linecap="round" stroke-linejoin="round" stroke-miterlimit="10" d="M19.819,17.53
		l-5.4,5.415l2.238,2.238v1.293l8.67,8.671c0.488,0.489,1.281,0.489,1.77,0l0,0c0.488-0.488,0.488-1.28,0-1.768l-5.305-5.306
		l5.982,5.982c0.488,0.489,1.279,0.489,1.768,0l0,0c0.49-0.487,0.49-1.278,0-1.767l-5.982-5.983l5.748,5.746
		c0.486,0.488,1.279,0.488,1.768,0l0,0c0.488-0.487,0.488-1.279,0-1.768l-5.748-5.747l5.307,5.305c0.486,0.489,1.279,0.489,1.768,0
		l0,0c0.488-0.488,0.488-1.28,0-1.769l-6.154-6.154v-1.849h-1.508l-2.406,2.406c-0.488,0.488-1.279,0.488-1.769,0
		c-0.488-0.488-0.489-1.28,0.001-1.769l3.178-3.179L19.819,17.53z"/>
	<path fill="none" stroke="#3D3D3D" stroke-linecap="round" stroke-linejoin="round" stroke-miterlimit="10" d="M31.837,27.428
		l3.457-3.456l-6.443-6.442h-5.107l-3.178,3.179c-0.49,0.488-0.489,1.28-0.001,1.769c0.489,0.488,1.28,0.488,1.769,0l2.406-2.406
		h1.508v1.849l5.119,5.12L31.837,27.428z"/>
	
		<rect x="14.932" y="13.798" transform="matrix(-0.707 -0.7072 0.7072 -0.707 14.0689 44.394)" fill="none" stroke="#3D3D3D" stroke-linecap="round" stroke-linejoin="round" stroke-miterlimit="10" width="2.597" height="10.969"/>
	
		<rect x="31.873" y="14.526" transform="matrix(-0.707 0.7072 -0.7072 -0.707 70.7753 10.7014)" fill="none" stroke="#3D3D3D" stroke-linecap="round" stroke-linejoin="round" stroke-miterlimit="10" width="2.597" height="10.971"/>
</g>
</svg>
