<?xml version="1.0" standalone="no"?>
<!DOCTYPE svg PUBLIC "-//W3C//DTD SVG 20010904//EN"
 "http://www.w3.org/TR/2001/REC-SVG-20010904/DTD/svg10.dtd">
<svg version="1.0" xmlns="http://www.w3.org/2000/svg"
 width="192.000000pt" height="192.000000pt" viewBox="0 0 192.000000 192.000000"
 preserveAspectRatio="xMidYMid meet">
<metadata>
Created by potrace 1.11, written by Peter Selinger 2001-2013
</metadata>
<g transform="translate(0.000000,192.000000) scale(0.100000,-0.100000)"
fill="#000000" stroke="none">
<path d="M40 1390 l-35 -5 -1 -405 c0 -223 3 -413 8 -422 7 -15 33 -16 250
-15 l243 2 3 93 c2 69 0 92 -10 93 -7 1 -71 2 -143 3 l-130 1 -1 323 c-1 177
-3 324 -5 326 -7 7 -142 11 -179 6z"/>
<path d="M742 1085 c-207 -63 -278 -314 -131 -465 96 -99 261 -121 393 -53 36
19 107 93 103 108 -4 12 -117 74 -136 75 -8 0 -25 -10 -38 -22 -16 -15 -40
-23 -77 -26 -48 -4 -57 -1 -80 21 -14 15 -26 31 -26 37 0 9 163 15 311 11 56
-1 62 8 53 82 -12 102 -67 181 -152 219 -54 24 -163 31 -220 13z m137 -145
c10 -5 21 -16 25 -25 4 -13 -7 -15 -76 -15 l-81 0 23 25 c25 27 75 34 109 15z"/>
<path d="M1303 1085 c-82 -24 -126 -72 -136 -146 -11 -83 34 -141 148 -190 37
-16 61 -33 64 -44 3 -16 -3 -17 -41 -13 -25 3 -62 17 -83 31 -21 14 -42 24
-46 21 -5 -3 -25 -35 -45 -71 l-37 -66 29 -24 c73 -59 254 -73 349 -25 62 31
96 91 91 163 -5 86 -52 136 -161 173 -74 24 -85 33 -55 44 17 7 39 5 70 -5 71
-23 72 -22 107 42 18 33 33 64 33 68 0 4 -21 17 -46 28 -56 25 -180 32 -241
14z"/>
<path d="M1743 778 c-98 -26 -115 -179 -25 -231 90 -52 195 10 194 114 -1 85
-81 141 -169 117z"/>
</g>
</svg>
