<?xml version="1.0" encoding="utf-8"?>
<!-- Generator: Adobe Illustrator 16.0.0, SVG Export Plug-In . SVG Version: 6.00 Build 0)  -->
<!DOCTYPE svg PUBLIC "-//W3C//DTD SVG 1.1//EN" "http://www.w3.org/Graphics/SVG/1.1/DTD/svg11.dtd">
<svg version="1.1" id="Layer_1" xmlns="http://www.w3.org/2000/svg" xmlns:xlink="http://www.w3.org/1999/xlink" x="0px" y="0px"
	 width="200px" height="200px" viewBox="0 0 200 200" enable-background="new 0 0 200 200" xml:space="preserve">
<g id="K1pg1E.tif">
	<g>
		<path fill-rule="evenodd" clip-rule="evenodd" fill="#444444" d="M83.155,72.832c-3.093-1.016-6.21-1.783-9.114-3.042
			c-10.043-4.352-15.178-12.516-17.25-22.911c-0.403-2.019,0.824-3.812,2.642-4.151c1.982-0.369,3.689,0.723,4.206,2.925
			c0.949,4.048,2.268,7.922,4.935,11.187c5.639,6.904,12.991,9.477,21.724,8.432c2.332-0.279,4.108,0.273,5.277,2.573
			c1.549,3.049,4.265,4.576,7.556,5.371c1.62,0.391,3.324,1.047,4.623,2.058c7.547,5.869,15.673,8.57,24.887,4.49
			c2.736-1.211,5.159-3.193,7.596-4.998c2.188-1.622,4.097-1.77,5.659-0.09c1.477,1.587,1.149,3.745-0.846,5.592
			c-11.121,10.299-25.211,11.579-38.007,3.457c-0.382-0.241-0.771-0.468-1.762-1.066c-1.342,4.737-2.834,9.171-3.828,13.715
			c-1.312,5.994-1.435,12.103-0.549,18.191c0.121,0.833,0.563,1.729,1.116,2.376c2.381,2.778,4.923,5.42,7.259,8.234
			c0.786,0.945,1.535,2.223,1.623,3.398c0.601,7.983,1.078,15.977,1.474,23.972c0.162,3.259-2.629,5.417-5.778,4.64
			c-2.388-0.589-3.161-2.368-3.289-4.628c-0.338-5.938-0.798-11.87-1.04-17.81c-0.111-2.775-0.594-5.225-2.878-7.094
			c-0.993-0.812-1.941-1.782-2.612-2.865c-1.737-2.8-4.033-2.592-6.996-2.35c-5.73,0.469-8.771,3.044-9.948,8.652
			c-0.728,3.466-2.21,6.807-3.633,10.081c-0.63,1.452-1.72,2.935-3.001,3.831c-4.117,2.882-8.408,5.518-12.66,8.205
			c-2.535,1.603-5.293,1.165-6.662-0.972c-1.389-2.167-0.65-4.739,1.939-6.43c3.382-2.21,6.843-4.297,10.181-6.566
			c0.868-0.59,1.661-1.567,2.044-2.54c1.617-4.106,3.082-8.274,4.561-12.435c0.245-0.691,0.419-1.468,0.382-2.191
			c-0.226-4.379-0.961-8.78-0.709-13.127c0.716-12.345,4.303-23.93,10.254-34.777C82.78,73.713,82.974,73.224,83.155,72.832z"/>
		<path fill-rule="evenodd" clip-rule="evenodd" fill="#444444" d="M116.05,61.489c-0.025,5.301-4.607,9.723-10.049,9.696
			c-5.297-0.027-9.685-4.464-9.679-9.79c0.006-5.208,4.775-9.812,10.082-9.731C111.739,51.746,116.074,56.16,116.05,61.489z"/>
	</g>
</g>
</svg>
