<?xml version="1.0" encoding="utf-8"?>
<!-- Generator: Adobe Illustrator 16.0.0, SVG Export Plug-In . SVG Version: 6.00 Build 0)  -->
<!DOCTYPE svg PUBLIC "-//W3C//DTD SVG 1.1//EN" "http://www.w3.org/Graphics/SVG/1.1/DTD/svg11.dtd">
<svg version="1.1" id="Layer_1" xmlns="http://www.w3.org/2000/svg" xmlns:xlink="http://www.w3.org/1999/xlink" x="0px" y="0px"
	 width="200px" height="200px" viewBox="0 0 200 200" enable-background="new 0 0 200 200" xml:space="preserve">
<g>
	<polygon fill-rule="evenodd" clip-rule="evenodd" fill="none" stroke="#000000" stroke-miterlimit="10" points="120.829,29.933 
		143.537,36.911 165.678,55.167 171.122,73.72 169.992,94.423 169.577,99.982 169.032,112.1 170.753,111.877 187.699,109.216 
		197.656,113.798 200,131.812 185.658,148.495 160.398,161.629 132.034,168.878 111.587,171.292 109.965,171.687 89.814,171.687 
		88.192,171.292 67.745,168.878 39.381,161.629 14.121,148.495 -0.221,131.812 2.124,113.798 12.08,109.216 29.026,111.877 
		30.747,112.1 30.202,99.982 29.787,94.423 28.657,73.72 34.102,55.167 56.242,36.911 78.95,29.933 	"/>
</g>
</svg>
