<?xml version="1.0" encoding="utf-8"?>
<!-- Generator: Adobe Illustrator 16.0.0, SVG Export Plug-In . SVG Version: 6.00 Build 0)  -->
<!DOCTYPE svg PUBLIC "-//W3C//DTD SVG 1.1//EN" "http://www.w3.org/Graphics/SVG/1.1/DTD/svg11.dtd">
<svg version="1.1" id="Layer_1" xmlns="http://www.w3.org/2000/svg" xmlns:xlink="http://www.w3.org/1999/xlink" x="0px" y="0px"
	 width="200px" height="200px" viewBox="0 0 200 200" enable-background="new 0 0 200 200" xml:space="preserve">
<path fill="none" stroke="#444444" stroke-width="4" stroke-linecap="round" stroke-linejoin="round" stroke-miterlimit="10" d="
	M170,90c0-27.338-31.34-49.5-70-49.5S30,62.662,30,90s31.34,49.5,70,49.5c5.25,0,10.357-0.422,15.277-1.195l-0.043,0.02v22.16
	l41.009-41.01l-0.013,0.006C164.879,111.245,170,101.046,170,90z"/>
<g>
	<path fill-rule="evenodd" clip-rule="evenodd" fill="none" stroke="#444444" stroke-width="4" stroke-miterlimit="10" d="
		M108.373,82.58c3.437,0,7.352-0.772,10.212,1.253c1.304,0.925,2.291,3.134,1.937,4.692c-0.281,1.234-1.572,1.406-1.322,2.978
		c0.409,2.569,2.116,2.887,0.055,5.466c-0.84,1.051-0.822,1.946-0.19,3.134c1.82,3.421-2.87,4.188-2.289,7.479
		c0.419,2.367-2.734,4.114-4.433,4.847c-4.261,1.836-10.725,0.318-15.26,0.192c-3.403-0.094-6.702-1.4-10.083-1.613
		c-1.039-0.065-6.645,0.129-7.131-0.43c-1.04-1.193-0.003-7.843-0.003-9.522c0-3.104,0-6.208,0-9.312
		c0-2.307,0.302-1.866,2.616-1.923c4.39-0.108,6.104-2.042,8.309-5.867c1.305-2.263,1.964-4.845,3.339-7.069
		c1.293-2.093,3.641-3.344,4.938-5.595c0.904-1.568,1.058-9.262,2.404-9.34c2.53-0.146,5.02,2.047,5.46,4.455
		c0.567,3.096,0.105,5.851-1.352,8.582c-0.665,1.245-1.288,2.632-1.781,3.966C102.286,83.046,105.098,82.579,108.373,82.58
		C109.61,82.58,107.171,82.58,108.373,82.58z"/>
</g>
</svg>
