<?xml version="1.0" encoding="utf-8"?>
<!-- Generator: Adobe Illustrator 16.0.0, SVG Export Plug-In . SVG Version: 6.00 Build 0)  -->
<!DOCTYPE svg PUBLIC "-//W3C//DTD SVG 1.1//EN" "http://www.w3.org/Graphics/SVG/1.1/DTD/svg11.dtd">
<svg version="1.1" id="Layer_1" xmlns="http://www.w3.org/2000/svg" xmlns:xlink="http://www.w3.org/1999/xlink" x="0px" y="0px"
	 width="200px" height="200px" viewBox="0 0 200 200" enable-background="new 0 0 200 200" xml:space="preserve">
<path fill="none" stroke="#444444" stroke-width="4" stroke-linecap="round" stroke-linejoin="round" stroke-miterlimit="10" d="
	M170,90c0-27.338-31.34-49.5-70-49.5S30,62.662,30,90s31.34,49.5,70,49.5c5.25,0,10.357-0.422,15.277-1.195l-0.043,0.021v22.159
	l41.009-41.01l-0.013,0.006C164.879,111.245,170,101.046,170,90z"/>
<g>
	<path fill="none" stroke="#444444" stroke-width="4" stroke-linejoin="round" stroke-miterlimit="10" d="M62.974,116.517
		l0.159,0.224c-0.025-0.036-0.035-0.085-0.038-0.141C63.043,116.578,63,116.553,62.974,116.517z"/>
	<path fill="none" stroke="#444444" stroke-width="4" stroke-linejoin="round" stroke-miterlimit="10" d="M106.117,96.235
		c6.845-4.875,2.321-7.244,0.064-10.318c-2.167-3.139-2.927-8.187-9.771-3.312c-2.971,2.116-9.749,8.366-16.42,14.957
		c-0.349,0.345-0.34,1.341-0.688,1.688c-0.415,0.413-1.186,0.175-1.597,0.587c-7.719,7.745-14.679,15.36-14.61,16.764
		c0.909,0.364,5.793-1.514,12.005-4.3c0.397-0.177,0.421-0.697,0.828-0.883c0.206-0.093,0.79,0.152,0.997,0.057
		c7.152-3.272,15.629-7.504,21.809-10.868c0.504-0.274,0.698-1.368,1.168-1.63c0.558-0.31,1.385,0.215,1.892-0.074
		C103.662,97.834,105.158,96.917,106.117,96.235z"/>
</g>
<path fill="none" stroke="#444444" stroke-width="4" stroke-linecap="round" stroke-miterlimit="10" d="M75.467,110.651
	c-0.827-1.516-1.272-1.787-1.272-1.787"/>
<path fill="none" stroke="#444444" stroke-width="4" stroke-linecap="round" stroke-linejoin="round" stroke-miterlimit="10" d="
	M79.67,99.576c0.388,1.291,1.79,2.166,2.555,3.232"/>
<path fill="none" stroke="#444444" stroke-width="4" stroke-linecap="round" stroke-linejoin="round" stroke-miterlimit="10" d="
	M89.992,94.163c0.183,0.61,0.761,1.117,1.098,1.66c0.288,0.464,0.398,0.884,0.5,1.412"/>
<path fill="none" stroke="#444444" stroke-width="4" stroke-linecap="round" stroke-linejoin="round" stroke-miterlimit="10" d="
	M99.729,98.258c-0.455-0.638-1.772-2.049-1.591-2.825"/>
<path fill="none" stroke="#444444" stroke-width="4" stroke-linecap="round" stroke-linejoin="round" stroke-miterlimit="10" d="
	M139.217,76.032c-0.098-0.137-0.205-0.261-0.319-0.38c1.886-1.655,2.479-4.147,1.292-5.814c-0.88-1.235-2.509-1.695-4.181-1.346
	c-0.19-0.193-0.415-0.359-0.666-0.496c-0.119-0.852-0.598-1.541-1.318-1.955c-0.155-0.817-0.65-1.494-1.416-1.885
	c-0.048-0.282-0.131-0.548-0.251-0.792c0.877-1.466,0.975-3.156,0.095-4.392c-1.187-1.667-3.736-1.921-5.917-0.681
	c-0.075-0.146-0.157-0.289-0.254-0.425c-1.348-1.892-4.377-2.048-6.764-0.348c-2.388,1.701-3.231,4.613-1.885,6.505
	c0.1,0.139,0.21,0.266,0.326,0.385c-0.127,0.077-0.253,0.158-0.376,0.246c-2.101,1.496-2.843,4.059-1.657,5.724
	c0.938,1.316-0.021,3.681,1.756,3.035c0.464,0.939,1.495,1.523,2.803,1.419c0.95-0.075-0.959,1.512-0.244,0.891
	c0.032,0.022,0.07,0.037,0.104,0.058c0.009,0.039,0.011,0.079,0.021,0.117c-0.821,0.473,1.303-0.812,0.921,0.062
	c-0.524,1.202-0.311,2.367,0.425,3.113c-1.191,1.468,1.356,1.335,2.294,2.652c1.186,1.665,3.851,1.802,5.951,0.306
	c0.123-0.088,0.241-0.18,0.355-0.275c0.075,0.149,0.158,0.295,0.258,0.434c1.348,1.892,4.375,2.047,6.764,0.347
	C139.721,80.836,140.563,77.924,139.217,76.032z"/>
<path fill="none" stroke="#444444" stroke-width="4" stroke-linecap="round" stroke-linejoin="round" stroke-miterlimit="10" d="
	M121.588,79.161c-0.709-0.766-1.007-1.871-0.672-2.937c0.188-0.6-1.685,0.498-1.225,0.137l-0.108-0.151
	c-0.491,0.316,1.158-1.095,0.53-1.113c-1.117-0.032-2.062-0.676-2.556-1.595c-1.057,0.308,0.035-1.471-0.873-2.087
	c-3.05,4.439-8.17,10.316-11.426,12.635l2.546,3.575c3.233-2.303,10.39-5.197,15.574-6.637
	C122.955,79.841,120.887,80.15,121.588,79.161z"/>
</svg>
