<?xml version="1.0" encoding="utf-8"?>
<!-- Generator: Adobe Illustrator 16.0.0, SVG Export Plug-In . SVG Version: 6.00 Build 0)  -->
<!DOCTYPE svg PUBLIC "-//W3C//DTD SVG 1.1//EN" "http://www.w3.org/Graphics/SVG/1.1/DTD/svg11.dtd">
<svg version="1.1" id="Layer_1" xmlns="http://www.w3.org/2000/svg" xmlns:xlink="http://www.w3.org/1999/xlink" x="0px" y="0px"
	 width="200px" height="200px" viewBox="0 0 200 200" enable-background="new 0 0 200 200" xml:space="preserve">
<g id="lnfw4R.tif">
	<g>
		<path fill="#444444" d="M149.004,98.822c0,1.416,0,2.831,0,4.247c-0.058,0.374-0.132,0.745-0.171,1.121
			c-0.136,1.298-0.197,2.607-0.397,3.896c-1.615,10.387-5.912,19.509-13.374,26.936c-12.964,12.902-28.56,17.44-46.386,13.526
			c-11.658-2.56-21.063-8.968-28.109-18.592c-8.314-11.355-11.162-24.114-8.734-37.942c2.187-12.456,8.531-22.5,18.455-30.295
			c1.331-1.045,2.766-1.957,4.304-3.036c-0.077,0.279-0.078,0.336-0.106,0.373c-0.13,0.174-0.264,0.346-0.402,0.514
			c-3.231,3.907-5.865,8.172-7.682,12.915c-2.436,6.363-3.425,12.895-1.686,19.586c1.673,6.437,5.142,11.692,11.042,15.033
			c3.856,2.185,7.864,2.429,11.796,0.113c2.705-1.593,4.203-4.145,5.084-7.052c1.818-5.999,1.196-11.895-1.062-17.646
			c-1.662-4.234-4.257-7.765-8.266-10.099c-0.757-0.44-1.572-0.781-2.414-1.194c1.946-2.153,3.841-4.249,5.713-6.32
			c3.503,1.947,6.532,4.333,8.583,7.825c0.077-0.425,0.086-0.779,0.042-1.126c-0.5-3.914-1.766-7.56-3.904-10.881
			c-0.316-0.492-0.284-0.763,0.094-1.177c2.148-2.351,4.268-4.729,6.398-7.097c0.705-0.783,1.414-1.561,2.136-2.357
			c0.147,0.122,0.239,0.179,0.309,0.256c2.805,3.115,5.601,6.239,8.42,9.342c0.352,0.387,0.216,0.631-0.013,0.981
			c-1.755,2.696-2.92,5.642-3.595,8.777c-0.227,1.052-0.31,2.135-0.458,3.204c3.07-4.547,5.94-6.042,8.754-7.752
			c1.896,2.103,3.801,4.212,5.748,6.371c-2.245,0.867-4.222,1.975-5.773,3.665c-6.9,7.515-8.703,16.299-5.755,25.902
			c2.027,6.605,7.942,9.422,14.273,7.284c3.929-1.326,6.887-3.993,9.28-7.306c5.05-6.986,5.909-14.739,4.058-22.941
			c-1.545-6.849-4.831-12.835-9.247-18.238c-0.187-0.229-0.362-0.467-0.542-0.702c5.669,3.312,10.321,7.684,14.135,12.945
			c4.952,6.83,7.93,14.448,8.962,22.823C148.683,96.076,148.841,97.449,149.004,98.822z"/>
	</g>
</g>
</svg>
