<?xml version="1.0" encoding="utf-8"?>
<!-- Generator: Adobe Illustrator 16.0.0, SVG Export Plug-In . SVG Version: 6.00 Build 0)  -->
<!DOCTYPE svg PUBLIC "-//W3C//DTD SVG 1.1//EN" "http://www.w3.org/Graphics/SVG/1.1/DTD/svg11.dtd">
<svg version="1.1" id="Layer_1" xmlns="http://www.w3.org/2000/svg" xmlns:xlink="http://www.w3.org/1999/xlink" x="0px" y="0px"
	 width="200px" height="200px" viewBox="0 0 200 200" enable-background="new 0 0 200 200" xml:space="preserve">
<g>
	<polygon fill="none" stroke="#000000" stroke-miterlimit="10" points="102.257,192.952 114.162,192.952 186.668,185.694 
		194.483,180.22 198.68,173.543 200.029,162.793 196.073,156.154 189.308,152.537 187.702,152.684 179.814,156.49 169.229,159.535 
		167.793,159.623 166.219,158.501 166.028,157.985 162.013,132.47 162.109,110.145 176.147,32.839 175.44,24.711 170.948,19.919 
		160.72,14.693 124.828,7.679 102.664,7.047 97.335,7.047 75.172,7.679 39.28,14.693 29.053,19.919 24.559,24.711 23.852,32.839 
		37.892,110.145 37.987,132.47 33.971,157.985 33.782,158.501 32.208,159.623 30.77,159.535 20.186,156.49 12.299,152.684 
		10.692,152.537 3.927,156.154 -0.029,162.793 1.32,173.543 5.518,180.22 13.333,185.694 85.838,192.952 97.744,192.952 	"/>
</g>
</svg>
